<svg width="1000" height="1000" viewBox="0 0 1000 1000" fill="none" xmlns="http://www.w3.org/2000/svg">
<g opacity="0.2">
<path d="M584.652 574.608C555.43 557.247 531.308 532.481 514.722 502.812C498.137 473.143 489.675 439.622 490.192 405.636L591.987 463.657C622.338 480.95 647.571 505.97 665.122 536.173C682.673 566.376 691.916 600.687 691.912 635.62L591.426 578.486L584.652 574.608Z" stroke="white" stroke-linecap="round" stroke-linejoin="round"/>
<path d="M389.893 462.816V116.603L391.575 117.584C421.58 134.984 446.484 159.965 463.793 190.023C481.101 220.081 490.205 254.16 490.192 288.846V408.532C490.179 442.036 498.88 474.968 515.441 504.093C532.002 533.217 555.853 557.534 584.652 574.655L490.192 520.791L389.893 462.816Z" stroke="white" stroke-linecap="round" stroke-linejoin="round"/>
<path d="M490.192 408.486V405.636C490.192 406.664 490.192 407.598 490.192 408.486Z" stroke="white" stroke-miterlimit="10"/>
<path d="M389.332 238.252C388.915 272.218 379.543 305.472 362.162 334.657C344.781 363.841 320.006 387.922 290.34 404.468L289.733 287.304C289.313 216.202 328.321 152.154 389.892 116.603L389.332 230.451V238.252V238.252Z" stroke="white" stroke-miterlimit="10"/>
<path d="M389.893 462.817L90.1155 635.9V633.984C90.1956 599.305 99.3816 565.255 116.754 535.241C134.126 505.226 159.076 480.3 189.107 462.957L292.77 403.113C321.792 386.377 345.96 362.377 362.899 333.472C379.837 304.567 388.963 271.752 389.379 238.252L389.986 347.007L389.893 462.817Z" stroke="white" stroke-miterlimit="10"/>
<path d="M292.723 403.113L290.341 404.468C290.995 404.048 291.929 403.581 292.723 403.113Z" stroke="white" stroke-miterlimit="10"/>
<path d="M195.74 575.543C225.361 558.929 258.842 550.427 292.8 550.895C326.759 551.362 359.993 560.783 389.145 578.205L288.005 637.348C257.849 654.973 223.567 664.304 188.639 664.394C153.711 664.484 119.381 655.33 89.1343 637.862V637.862L188.967 579.513L195.74 575.543Z" stroke="white" stroke-linecap="round" stroke-linejoin="round"/>
<path d="M389.939 462.817L689.717 635.9C659.164 653.485 624.529 662.74 589.277 662.74C554.025 662.74 519.39 653.485 488.837 635.9L386.856 576.991C357.854 560.223 324.988 551.289 291.488 551.068C257.989 550.847 225.008 559.346 195.787 575.729L289.64 520.838L389.939 462.817Z" stroke="white" stroke-linecap="round" stroke-linejoin="round"/>
<path d="M386.81 576.804L389.192 578.159L386.81 576.804Z" stroke="white" stroke-linecap="round" stroke-linejoin="round"/>
<path d="M397.601 657.903C389.219 624.988 389.669 590.444 398.905 557.758C408.14 525.072 425.835 495.401 450.203 471.739L481.176 584.746C490.392 618.444 490.532 653.98 481.581 687.75C472.63 721.519 454.906 752.32 430.209 777.029V777.029L399.656 665.471L397.601 657.903Z" stroke="white" stroke-linecap="round" stroke-linejoin="round"/>
<path d="M338.972 441.187L583.764 196.395L584.232 198.263C593.139 231.779 593.08 267.047 584.061 300.532C575.042 334.017 557.379 364.544 532.844 389.052L448.241 473.702C424.552 497.378 407.428 526.808 398.55 559.102C389.672 591.396 389.345 625.444 397.601 657.903L368.87 553.025L338.972 441.187Z" stroke="white" stroke-linecap="round" stroke-linejoin="round"/>
<path d="M448.288 473.702L450.203 471.786C449.529 472.388 448.89 473.028 448.288 473.702V473.702Z" stroke="white" stroke-miterlimit="10"/>
<path d="M497.34 282.025C473.013 305.766 442.848 322.662 409.896 331.004C376.945 339.347 342.374 338.84 309.681 329.535L392.088 246.241C442.075 195.694 514.952 177.988 583.625 196.395L502.712 276.466L497.34 282.025Z" stroke="white" stroke-miterlimit="10"/>
<path d="M338.926 441.187L4.53149 351.585L5.88616 350.231C30.4635 325.765 61.0363 308.184 94.5438 299.248C128.051 290.311 163.319 290.333 196.815 299.31L312.438 330.283C344.796 338.964 378.857 339.08 411.274 330.62C443.691 322.159 473.351 305.413 497.34 282.025L420.865 359.34L338.926 441.187Z" stroke="white" stroke-miterlimit="10"/>
<path d="M312.437 330.283L309.821 329.582L312.437 330.283Z" stroke="white" stroke-miterlimit="10"/>
<path d="M121.929 383.633C154.646 392.842 184.351 410.526 208.041 434.897C231.731 459.268 248.567 489.462 256.845 522.426L143.465 492.715C109.694 483.86 78.8656 466.232 54.1051 441.619C29.3445 417.006 11.5328 386.284 2.47583 352.567L114.595 381.904L121.929 383.633Z" stroke="white" stroke-linecap="round" stroke-linejoin="round"/>
<path d="M338.972 441.187L428.574 775.628C394.53 766.426 363.501 748.443 338.593 723.478C313.685 698.513 295.773 667.442 286.65 633.377L256.144 519.623C247.492 487.26 230.569 457.705 207.038 433.862C183.506 410.019 154.176 392.709 121.929 383.633L227.087 411.149L338.972 441.187Z" stroke="white" stroke-linecap="round" stroke-linejoin="round"/>
<path d="M256.144 519.623L256.845 522.239C256.612 521.352 256.378 520.511 256.144 519.623Z" stroke="white" stroke-linecap="round" stroke-linejoin="round"/>
<path d="M206.392 584.605C223.739 555.437 248.464 531.353 278.078 514.779C307.692 498.204 341.15 489.724 375.084 490.192L317.062 591.987C299.762 622.332 274.741 647.56 244.539 665.11C214.338 682.659 180.031 691.907 145.1 691.912V691.912L202.421 591.379L206.392 584.605Z" stroke="white" stroke-linecap="round" stroke-linejoin="round"/>
<path d="M318.23 389.893H664.397L663.462 391.574C646.053 421.558 621.076 446.443 591.029 463.742C560.981 481.041 526.919 490.145 492.248 490.145H372.561C339.05 490.129 306.111 498.828 276.978 515.389C247.845 531.949 223.52 555.802 206.392 584.605L260.255 490.145L318.23 389.893Z" stroke="white" stroke-linecap="round" stroke-linejoin="round"/>
<path d="M542.748 389.332C508.786 388.897 475.54 379.517 446.358 362.137C417.177 344.758 393.093 319.994 376.532 290.341L493.743 289.687C564.845 289.313 628.846 328.321 664.397 389.893L550.55 389.285H542.748V389.332Z" stroke="white" stroke-miterlimit="10"/>
<path d="M318.184 389.893L145.1 90.0686H147.016C181.692 90.1346 215.743 99.3094 245.758 116.674C275.774 134.039 300.701 158.985 318.043 189.013L377.887 292.676C394.614 321.711 418.61 345.891 447.517 362.838C476.423 379.785 509.243 388.916 542.748 389.332L434.039 389.939L318.184 389.893Z" stroke="white" stroke-miterlimit="10"/>
<path d="M377.887 292.677L376.532 290.341C376.999 291.135 377.419 291.929 377.887 292.677Z" stroke="white" stroke-miterlimit="10"/>
<path d="M205.458 195.694C222.068 225.322 230.573 258.807 230.113 292.771C229.654 326.735 220.247 359.977 202.841 389.145L143.699 287.958C126.058 257.81 116.713 223.528 116.615 188.598C116.516 153.668 125.667 119.335 143.138 89.0876V89.0876L201.533 188.967L205.458 195.694Z" stroke="white" stroke-linecap="round" stroke-linejoin="round"/>
<path d="M318.184 389.893L145.1 689.717C127.551 659.143 118.335 624.498 118.376 589.246C118.417 553.994 127.713 519.37 145.334 488.837L204.196 386.95C220.964 357.939 229.897 325.066 230.118 291.559C230.34 258.052 221.841 225.063 205.458 195.834L260.349 289.687L318.184 389.893Z" stroke="white" stroke-linecap="round" stroke-linejoin="round"/>
<path d="M204.196 386.95L202.841 389.285C203.308 388.351 203.729 387.557 204.196 386.95Z" stroke="white" stroke-linecap="round" stroke-linejoin="round"/>
<path d="M123.05 397.554C155.97 389.193 190.513 389.657 223.196 398.901C255.88 408.144 285.549 425.839 309.214 450.203L196.208 481.129C162.522 490.357 126.993 490.507 93.2303 481.564C59.4673 472.621 28.6719 454.903 3.97095 430.209V430.209L115.529 399.656L123.05 397.554Z" stroke="white" stroke-linecap="round" stroke-linejoin="round"/>
<path d="M339.813 338.925L584.605 583.718L582.737 584.232C549.221 593.124 513.957 593.058 480.474 584.04C446.991 575.022 416.464 557.367 391.948 532.844L307.345 448.288C283.669 424.567 254.228 407.416 221.915 398.521C189.602 389.626 155.531 389.292 123.05 397.554L227.928 368.87L339.813 338.925Z" stroke="white" stroke-linecap="round" stroke-linejoin="round"/>
<path d="M307.345 448.288L309.26 450.156L307.345 448.288Z" stroke="white" stroke-miterlimit="10"/>
<path d="M498.975 497.293C475.267 472.974 458.391 442.834 450.049 409.911C441.708 376.988 442.196 342.448 451.465 309.775L534.759 392.182C585.306 442.215 603.012 515.045 584.605 583.718L504.534 502.805L498.975 497.293Z" stroke="white" stroke-miterlimit="10"/>
<path d="M339.813 338.925L429.414 4.53149L430.769 5.88623C455.243 30.4489 472.834 61.0111 481.778 94.5117C490.723 128.012 490.709 163.275 481.737 196.768L450.764 312.204C442.058 344.557 441.925 378.62 450.378 411.041C458.831 443.461 475.58 473.123 498.975 497.106L421.8 420.866L339.813 338.925Z" stroke="white" stroke-miterlimit="10"/>
<path d="M450.764 312.204L451.464 309.588C451.231 310.662 450.951 311.55 450.764 312.204Z" stroke="white" stroke-miterlimit="10"/>
<path d="M397.414 121.929C388.197 154.613 370.527 184.29 346.184 207.968C321.842 231.647 291.687 248.489 258.76 256.799L288.472 143.465C297.318 109.69 314.943 78.8568 339.557 54.0949C364.172 29.333 394.899 11.5241 428.621 2.47595V2.47595L399.283 114.595L397.414 121.929Z" stroke="white" stroke-linecap="round" stroke-linejoin="round"/>
<path d="M339.813 338.925L5.41895 428.527C14.6078 394.484 32.5814 363.455 57.5392 338.546C82.4969 313.637 113.562 295.725 147.623 286.603L261.376 256.144C293.742 247.487 323.3 230.563 347.15 207.032C371 183.502 388.321 154.175 397.414 121.929L369.851 227.087L339.813 338.925Z" stroke="white" stroke-linecap="round" stroke-linejoin="round"/>
<path d="M261.377 256.145L258.76 256.845L261.377 256.145Z" stroke="white" stroke-linecap="round" stroke-linejoin="round"/>
<path d="M196.395 206.392C225.618 223.727 249.753 248.464 266.362 278.107C282.971 307.749 291.468 341.248 290.995 375.224L189.2 317.202C158.861 299.9 133.639 274.877 116.098 244.675C98.5556 214.473 89.3175 180.167 89.3213 145.24V145.24L189.808 202.514L196.395 206.392Z" stroke="white" stroke-linecap="round" stroke-linejoin="round"/>
<path d="M391.154 318.183V664.397L389.472 663.416C359.5 646.002 334.628 621.021 317.345 590.973C300.063 560.925 290.976 526.865 290.995 492.201V372.514C291.008 339.01 282.307 306.079 265.746 276.954C249.185 247.829 225.334 223.513 196.535 206.392L290.995 260.209L391.154 318.183Z" stroke="white" stroke-linecap="round" stroke-linejoin="round"/>
<path d="M290.995 372.514V375.224C290.995 374.336 290.995 373.402 290.995 372.514Z" stroke="white" stroke-miterlimit="10"/>
<path d="M391.668 542.701C392.112 508.748 401.496 475.511 418.874 446.338C436.253 417.166 461.013 393.089 490.659 376.532L491.313 493.696C491.687 564.798 452.726 628.846 391.154 664.397L391.715 550.549V542.701H391.668Z" stroke="white" stroke-miterlimit="10"/>
<path d="M391.154 318.183L690.931 145.1V147.016C690.862 181.685 681.685 215.728 664.32 245.736C646.955 275.743 622.011 300.662 591.987 317.997L488.324 377.84C459.305 394.585 435.138 418.585 418.193 447.488C401.248 476.39 392.107 509.201 391.668 542.701L391.061 433.993L391.154 318.183Z" stroke="white" stroke-miterlimit="10"/>
<path d="M488.323 377.84L490.659 376.485C489.865 376.952 489.118 377.606 488.323 377.84Z" stroke="white" stroke-miterlimit="10"/>
<path d="M585.306 205.457C555.671 222.052 522.185 230.543 488.224 230.075C454.262 229.608 421.023 220.198 391.855 202.795L493.042 143.652C523.198 126.027 557.48 116.696 592.408 116.606C627.336 116.516 661.666 125.67 691.912 143.138V143.138L592.033 201.487L585.306 205.457Z" stroke="white" stroke-linecap="round" stroke-linejoin="round"/>
<path d="M391.107 318.183L91.2832 145.1C121.832 127.501 156.468 118.238 191.723 118.238C226.978 118.238 261.614 127.501 292.163 145.1L394.144 204.009C423.154 220.777 456.028 229.71 489.535 229.931C523.042 230.153 556.03 221.654 585.259 205.271L491.407 260.115L391.107 318.183Z" stroke="white" stroke-linecap="round" stroke-linejoin="round"/>
<path d="M394.191 204.196L391.855 202.841L394.191 204.196Z" stroke="white" stroke-linecap="round" stroke-linejoin="round"/>
<path d="M383.446 123.05C391.817 155.966 391.363 190.507 382.128 223.191C372.893 255.875 355.203 285.547 330.844 309.214L299.871 196.161C290.635 162.464 290.486 126.923 299.438 93.1497C308.39 59.3764 326.124 28.5754 350.838 3.87744L381.39 115.482L383.446 123.05Z" stroke="white" stroke-linecap="round" stroke-linejoin="round"/>
<path d="M442.075 339.813L197.282 584.605L196.768 582.737C187.871 549.221 187.934 513.956 196.953 480.472C205.972 446.988 223.629 416.462 248.156 391.948L332.759 307.532C356.46 283.853 373.595 254.417 382.481 222.115C391.368 189.812 391.7 155.754 383.446 123.284L412.129 228.115L442.075 339.813Z" stroke="white" stroke-linecap="round" stroke-linejoin="round"/>
<path d="M332.759 307.532L330.844 309.448C331.517 308.845 332.156 308.205 332.759 307.532V307.532Z" stroke="white" stroke-miterlimit="10"/>
<path d="M283.707 499.068C308.023 475.356 338.162 458.474 371.084 450.124C404.006 441.775 438.547 442.253 471.226 451.511L388.818 534.853C338.785 585.4 265.955 603.105 197.282 584.699L278.195 504.628L283.707 499.068Z" stroke="white" stroke-miterlimit="10"/>
<path d="M442.075 339.813L776.469 429.414L775.114 430.769C750.546 455.235 719.982 472.817 686.482 481.753C652.981 490.69 617.721 490.668 584.232 481.69L468.516 450.717C436.163 442.065 402.116 441.972 369.716 450.449C337.317 458.926 307.678 475.68 283.707 499.068L360.135 421.753L442.075 339.813Z" stroke="white" stroke-miterlimit="10"/>
<path d="M468.516 450.717L471.132 451.418L468.516 450.717Z" stroke="white" stroke-miterlimit="10"/>
<path d="M659.118 397.367C626.424 388.174 596.734 370.518 573.046 346.182C549.357 321.846 532.509 291.69 524.201 258.76L637.535 288.472C671.318 297.311 702.162 314.933 726.932 339.547C751.703 364.162 769.519 394.893 778.571 428.62L666.452 399.283L659.118 397.367Z" stroke="white" stroke-linecap="round" stroke-linejoin="round"/>
<path d="M442.075 339.766L352.473 5.37244C386.515 14.5783 417.541 32.5633 442.448 57.5277C467.355 82.4921 485.269 113.56 494.396 147.623L524.855 261.377C533.516 293.743 550.447 323.3 573.987 347.143C597.527 370.985 626.864 388.294 659.118 397.367L553.913 369.805L442.075 339.766Z" stroke="white" stroke-linecap="round" stroke-linejoin="round"/>
<path d="M524.856 261.377L524.155 258.76C524.575 259.601 524.575 260.489 524.856 261.377Z" stroke="white" stroke-linecap="round" stroke-linejoin="round"/>
<path d="M574.608 196.395C557.253 225.587 532.507 249.687 502.865 266.263C473.223 282.839 439.734 291.305 405.776 290.808L463.844 189.013C481.133 158.669 506.145 133.44 536.339 115.889C566.534 98.3389 600.835 89.092 635.759 89.0876V89.0876L578.485 189.574L574.608 196.395Z" stroke="white" stroke-linecap="round" stroke-linejoin="round"/>
<path d="M462.817 391.107H116.603L117.584 389.426C134.988 359.434 159.963 334.539 190.01 317.232C220.058 299.925 254.124 290.813 288.799 290.808H408.486C441.988 290.84 474.922 282.152 504.048 265.598C533.175 249.044 557.492 225.195 574.608 196.395L520.791 290.808L462.817 391.107Z" stroke="white" stroke-linecap="round" stroke-linejoin="round"/>
<path d="M238.299 391.621C272.257 392.041 305.504 401.415 334.68 418.796C363.857 436.178 387.93 460.95 404.468 490.613L287.304 491.267C216.202 491.64 152.154 452.633 116.603 391.061L230.497 391.668H238.299V391.621Z" stroke="white" stroke-miterlimit="10"/>
<path d="M462.817 391.107L635.947 690.931H633.984C599.309 690.862 565.261 681.68 535.253 664.306C505.244 646.932 480.329 621.977 463.004 591.94L403.113 488.324C386.393 459.291 362.405 435.108 333.508 418.153C304.611 401.199 271.8 392.055 238.299 391.621L347.007 391.014L462.817 391.107Z" stroke="white" stroke-miterlimit="10"/>
<path d="M403.113 488.324L404.468 490.659L403.113 488.324Z" stroke="white" stroke-miterlimit="10"/>
<path d="M575.589 585.306C558.979 555.678 550.474 522.193 550.933 488.229C551.393 454.266 560.8 421.023 578.205 391.855L637.348 493.042C654.98 523.193 664.319 557.473 664.417 592.402C664.516 627.33 655.37 661.662 637.909 691.912V691.912L579.513 592.033L575.589 585.306Z" stroke="white" stroke-linecap="round" stroke-linejoin="round"/>
<path d="M462.817 391.107L635.947 91.2833C653.496 121.857 662.711 156.502 662.67 191.754C662.629 227.006 653.334 261.63 635.713 292.163L576.851 394.144C560.083 423.154 551.149 456.028 550.928 489.535C550.707 523.042 559.206 556.03 575.589 585.26L520.698 491.407L462.817 391.107Z" stroke="white" stroke-linecap="round" stroke-linejoin="round"/>
<path d="M576.851 394.191L578.205 391.855C577.738 392.649 577.271 393.396 576.851 394.191Z" stroke="white" stroke-linecap="round" stroke-linejoin="round"/>
<path d="M657.95 383.399C625.042 391.787 590.505 391.35 557.82 382.131C525.136 372.912 495.46 355.238 471.786 330.89L584.839 299.964C618.526 290.736 654.054 290.586 687.817 299.53C721.58 308.473 752.375 326.191 777.076 350.885V350.885L665.518 381.437L657.95 383.399Z" stroke="white" stroke-linecap="round" stroke-linejoin="round"/>
<path d="M441.187 442.075L196.395 197.235L198.263 196.768C231.779 187.871 267.044 187.935 300.528 196.953C334.012 205.972 364.538 223.629 389.052 248.156L473.701 332.759C497.38 356.46 526.817 373.595 559.119 382.481C591.422 391.368 625.48 391.7 657.95 383.446L553.119 412.176L441.187 442.075Z" stroke="white" stroke-linecap="round" stroke-linejoin="round"/>
<path d="M473.701 332.712L471.786 330.797C472.44 331.451 473.187 332.105 473.701 332.712Z" stroke="white" stroke-miterlimit="10"/>
<path d="M282.072 283.66C305.752 307.968 322.611 338.085 330.951 370.979C339.292 403.874 338.82 438.385 329.582 471.039L246.241 388.631C195.694 338.645 177.988 265.815 196.395 197.095L276.513 278.054L282.072 283.66Z" stroke="white" stroke-miterlimit="10"/>
<path d="M441.234 442.075L351.726 776.469L350.324 775.114C325.854 750.539 308.271 719.967 299.334 686.458C290.397 652.95 290.421 617.681 299.404 584.185L330.376 468.609C339.054 436.247 339.172 402.184 330.72 369.761C322.269 337.339 305.537 307.669 282.165 283.66L359.434 360.135L441.234 442.075Z" stroke="white" stroke-miterlimit="10"/>
<path d="M330.283 468.609L329.582 471.225C329.816 470.338 330.049 469.45 330.283 468.609Z" stroke="white" stroke-miterlimit="10"/>
<path d="M383.633 659.071C392.851 626.382 410.521 596.701 434.863 573.015C459.205 549.33 489.358 532.477 522.286 524.155L492.575 637.535C483.72 671.306 466.092 702.134 441.479 726.895C416.866 751.655 386.144 769.467 352.427 778.524V778.524L381.717 666.639L383.633 659.071Z" stroke="white" stroke-linecap="round" stroke-linejoin="round"/>
<path d="M441.234 442.028L775.628 352.426C766.421 386.472 748.436 417.504 723.472 442.419C698.509 467.333 667.441 485.257 633.377 494.397L519.904 524.855C487.532 533.5 457.967 550.42 434.116 573.952C410.264 597.485 392.947 626.819 383.866 659.071L411.429 553.913L441.234 442.028Z" stroke="white" stroke-linecap="round" stroke-linejoin="round"/>
<path d="M519.904 524.856L522.52 524.155L519.904 524.856Z" stroke="white" stroke-linecap="round" stroke-linejoin="round"/>
<path d="M584.652 574.608C555.43 557.247 531.308 532.481 514.722 502.812C498.137 473.143 489.675 439.622 490.192 405.636L591.987 463.657C622.338 480.95 647.571 505.97 665.122 536.173C682.673 566.376 691.916 600.687 691.912 635.62L591.426 578.486L584.652 574.608Z" stroke="white" stroke-linecap="round" stroke-linejoin="round"/>
<path d="M389.893 462.816V116.603L391.575 117.584C421.58 134.984 446.484 159.965 463.793 190.023C481.101 220.081 490.205 254.16 490.192 288.846V408.532C490.179 442.036 498.88 474.968 515.441 504.093C532.002 533.217 555.853 557.534 584.652 574.655L490.192 520.791L389.893 462.816Z" stroke="white" stroke-linecap="round" stroke-linejoin="round"/>
<path d="M490.192 408.486V405.636C490.192 406.664 490.192 407.598 490.192 408.486Z" stroke="white" stroke-miterlimit="10"/>
<path d="M389.332 238.252C388.915 272.218 379.543 305.472 362.162 334.657C344.781 363.841 320.006 387.922 290.34 404.468L289.733 287.304C289.313 216.202 328.321 152.154 389.892 116.603L389.332 230.451V238.252V238.252Z" stroke="white" stroke-miterlimit="10"/>
<path d="M389.893 462.817L90.1155 635.9V633.984C90.1956 599.305 99.3816 565.255 116.754 535.241C134.126 505.226 159.076 480.3 189.107 462.957L292.77 403.113C321.792 386.377 345.96 362.377 362.899 333.472C379.837 304.567 388.963 271.752 389.379 238.252L389.986 347.007L389.893 462.817Z" stroke="white" stroke-miterlimit="10"/>
<path d="M292.723 403.113L290.341 404.468C290.995 404.048 291.929 403.581 292.723 403.113Z" stroke="white" stroke-miterlimit="10"/>
<path d="M195.74 575.543C225.361 558.929 258.842 550.427 292.8 550.895C326.759 551.362 359.993 560.783 389.145 578.205L288.005 637.348C257.849 654.973 223.567 664.304 188.639 664.394C153.711 664.484 119.381 655.33 89.1343 637.862V637.862L188.967 579.513L195.74 575.543Z" stroke="white" stroke-linecap="round" stroke-linejoin="round"/>
<path d="M389.939 462.817L689.717 635.9C659.164 653.485 624.529 662.74 589.277 662.74C554.025 662.74 519.39 653.485 488.837 635.9L386.856 576.991C357.854 560.223 324.988 551.289 291.488 551.068C257.989 550.847 225.008 559.346 195.787 575.729L289.64 520.838L389.939 462.817Z" stroke="white" stroke-linecap="round" stroke-linejoin="round"/>
<path d="M386.81 576.804L389.192 578.159L386.81 576.804Z" stroke="white" stroke-linecap="round" stroke-linejoin="round"/>
<path d="M397.601 657.903C389.219 624.988 389.669 590.444 398.905 557.758C408.14 525.072 425.835 495.401 450.203 471.739L481.176 584.746C490.392 618.444 490.532 653.98 481.581 687.75C472.63 721.519 454.906 752.32 430.209 777.029V777.029L399.656 665.471L397.601 657.903Z" stroke="white" stroke-linecap="round" stroke-linejoin="round"/>
<path d="M338.972 441.187L583.764 196.395L584.232 198.263C593.139 231.779 593.08 267.047 584.061 300.532C575.042 334.017 557.379 364.544 532.844 389.052L448.241 473.702C424.552 497.378 407.428 526.808 398.55 559.102C389.672 591.396 389.345 625.444 397.601 657.903L368.87 553.025L338.972 441.187Z" stroke="white" stroke-linecap="round" stroke-linejoin="round"/>
<path d="M448.288 473.702L450.203 471.786C449.529 472.388 448.89 473.028 448.288 473.702V473.702Z" stroke="white" stroke-miterlimit="10"/>
<path d="M497.34 282.025C473.013 305.766 442.848 322.662 409.896 331.004C376.945 339.347 342.374 338.84 309.681 329.535L392.088 246.241C442.075 195.694 514.952 177.988 583.625 196.395L502.712 276.466L497.34 282.025Z" stroke="white" stroke-miterlimit="10"/>
<path d="M338.926 441.187L4.53149 351.585L5.88616 350.231C30.4635 325.765 61.0363 308.184 94.5438 299.248C128.051 290.311 163.319 290.333 196.815 299.31L312.438 330.283C344.796 338.964 378.857 339.08 411.274 330.62C443.691 322.159 473.351 305.413 497.34 282.025L420.865 359.34L338.926 441.187Z" stroke="white" stroke-miterlimit="10"/>
<path d="M312.437 330.283L309.821 329.582L312.437 330.283Z" stroke="white" stroke-miterlimit="10"/>
<path d="M121.929 383.633C154.646 392.842 184.351 410.526 208.041 434.897C231.731 459.268 248.567 489.462 256.845 522.426L143.465 492.715C109.694 483.86 78.8656 466.232 54.1051 441.619C29.3445 417.006 11.5328 386.284 2.47583 352.567L114.595 381.904L121.929 383.633Z" stroke="white" stroke-linecap="round" stroke-linejoin="round"/>
<path d="M338.972 441.187L428.574 775.628C394.53 766.426 363.501 748.443 338.593 723.478C313.685 698.513 295.773 667.442 286.65 633.377L256.144 519.623C247.492 487.26 230.569 457.705 207.038 433.862C183.506 410.019 154.176 392.709 121.929 383.633L227.087 411.149L338.972 441.187Z" stroke="white" stroke-linecap="round" stroke-linejoin="round"/>
<path d="M256.144 519.623L256.845 522.239C256.612 521.352 256.378 520.511 256.144 519.623Z" stroke="white" stroke-linecap="round" stroke-linejoin="round"/>
<path d="M206.392 584.605C223.739 555.437 248.464 531.353 278.078 514.779C307.692 498.204 341.15 489.724 375.084 490.192L317.062 591.987C299.762 622.332 274.741 647.56 244.539 665.11C214.338 682.659 180.031 691.907 145.1 691.912V691.912L202.421 591.379L206.392 584.605Z" stroke="white" stroke-linecap="round" stroke-linejoin="round"/>
<path d="M318.23 389.893H664.397L663.462 391.574C646.053 421.558 621.076 446.443 591.029 463.742C560.981 481.041 526.919 490.145 492.248 490.145H372.561C339.05 490.129 306.111 498.828 276.978 515.389C247.845 531.949 223.52 555.802 206.392 584.605L260.255 490.145L318.23 389.893Z" stroke="white" stroke-linecap="round" stroke-linejoin="round"/>
<path d="M542.748 389.332C508.786 388.897 475.54 379.517 446.358 362.137C417.177 344.758 393.093 319.994 376.532 290.341L493.743 289.687C564.845 289.313 628.846 328.321 664.397 389.893L550.55 389.285H542.748V389.332Z" stroke="white" stroke-miterlimit="10"/>
<path d="M318.184 389.893L145.1 90.0686H147.016C181.692 90.1346 215.743 99.3094 245.758 116.674C275.774 134.039 300.701 158.985 318.043 189.013L377.887 292.676C394.614 321.711 418.61 345.891 447.517 362.838C476.423 379.785 509.243 388.916 542.748 389.332L434.039 389.939L318.184 389.893Z" stroke="white" stroke-miterlimit="10"/>
<path d="M377.887 292.677L376.532 290.341C376.999 291.135 377.419 291.929 377.887 292.677Z" stroke="white" stroke-miterlimit="10"/>
<path d="M205.458 195.694C222.068 225.322 230.573 258.807 230.113 292.771C229.654 326.735 220.247 359.977 202.841 389.145L143.699 287.958C126.058 257.81 116.713 223.528 116.615 188.598C116.516 153.668 125.667 119.335 143.138 89.0876V89.0876L201.533 188.967L205.458 195.694Z" stroke="white" stroke-linecap="round" stroke-linejoin="round"/>
<path d="M318.184 389.893L145.1 689.717C127.551 659.143 118.335 624.498 118.376 589.246C118.417 553.994 127.713 519.37 145.334 488.837L204.196 386.95C220.964 357.939 229.897 325.066 230.118 291.559C230.34 258.052 221.841 225.063 205.458 195.834L260.349 289.687L318.184 389.893Z" stroke="white" stroke-linecap="round" stroke-linejoin="round"/>
<path d="M204.196 386.95L202.841 389.285C203.308 388.351 203.729 387.557 204.196 386.95Z" stroke="white" stroke-linecap="round" stroke-linejoin="round"/>
<path d="M123.05 397.554C155.97 389.193 190.513 389.657 223.196 398.901C255.88 408.144 285.549 425.839 309.214 450.203L196.208 481.129C162.522 490.357 126.993 490.507 93.2303 481.564C59.4673 472.621 28.6719 454.903 3.97095 430.209V430.209L115.529 399.656L123.05 397.554Z" stroke="white" stroke-linecap="round" stroke-linejoin="round"/>
<path d="M339.813 338.925L584.605 583.718L582.737 584.232C549.221 593.124 513.957 593.058 480.474 584.04C446.991 575.022 416.464 557.367 391.948 532.844L307.345 448.288C283.669 424.567 254.228 407.416 221.915 398.521C189.602 389.626 155.531 389.292 123.05 397.554L227.928 368.87L339.813 338.925Z" stroke="white" stroke-linecap="round" stroke-linejoin="round"/>
<path d="M307.345 448.288L309.26 450.156L307.345 448.288Z" stroke="white" stroke-miterlimit="10"/>
<path d="M498.975 497.293C475.267 472.974 458.391 442.834 450.049 409.911C441.708 376.988 442.196 342.448 451.465 309.775L534.759 392.182C585.306 442.215 603.012 515.045 584.605 583.718L504.534 502.805L498.975 497.293Z" stroke="white" stroke-miterlimit="10"/>
<path d="M339.813 338.925L429.414 4.53149L430.769 5.88623C455.243 30.4489 472.834 61.0111 481.778 94.5117C490.723 128.012 490.709 163.275 481.737 196.768L450.764 312.204C442.058 344.557 441.925 378.62 450.378 411.041C458.831 443.461 475.58 473.123 498.975 497.106L421.8 420.866L339.813 338.925Z" stroke="white" stroke-miterlimit="10"/>
<path d="M450.764 312.204L451.464 309.588C451.231 310.662 450.951 311.55 450.764 312.204Z" stroke="white" stroke-miterlimit="10"/>
<path d="M397.414 121.929C388.197 154.613 370.527 184.29 346.184 207.968C321.842 231.647 291.687 248.489 258.76 256.799L288.472 143.465C297.318 109.69 314.943 78.8568 339.557 54.0949C364.172 29.333 394.899 11.5241 428.621 2.47595V2.47595L399.283 114.595L397.414 121.929Z" stroke="white" stroke-linecap="round" stroke-linejoin="round"/>
<path d="M339.813 338.925L5.41895 428.527C14.6078 394.484 32.5814 363.455 57.5392 338.546C82.4969 313.637 113.562 295.725 147.623 286.603L261.376 256.144C293.742 247.487 323.3 230.563 347.15 207.032C371 183.502 388.321 154.175 397.414 121.929L369.851 227.087L339.813 338.925Z" stroke="white" stroke-linecap="round" stroke-linejoin="round"/>
<path d="M261.377 256.145L258.76 256.845L261.377 256.145Z" stroke="white" stroke-linecap="round" stroke-linejoin="round"/>
<path d="M196.395 206.392C225.618 223.727 249.753 248.464 266.362 278.107C282.971 307.749 291.468 341.248 290.995 375.224L189.2 317.202C158.861 299.9 133.639 274.877 116.098 244.675C98.5556 214.473 89.3175 180.167 89.3213 145.24V145.24L189.808 202.514L196.395 206.392Z" stroke="white" stroke-linecap="round" stroke-linejoin="round"/>
<path d="M391.154 318.183V664.397L389.472 663.416C359.5 646.002 334.628 621.021 317.345 590.973C300.063 560.925 290.976 526.865 290.995 492.201V372.514C291.008 339.01 282.307 306.079 265.746 276.954C249.185 247.829 225.334 223.513 196.535 206.392L290.995 260.209L391.154 318.183Z" stroke="white" stroke-linecap="round" stroke-linejoin="round"/>
<path d="M290.995 372.514V375.224C290.995 374.336 290.995 373.402 290.995 372.514Z" stroke="white" stroke-miterlimit="10"/>
<path d="M391.668 542.701C392.112 508.748 401.496 475.511 418.874 446.338C436.253 417.166 461.013 393.089 490.659 376.532L491.313 493.696C491.687 564.798 452.726 628.846 391.154 664.397L391.715 550.549V542.701H391.668Z" stroke="white" stroke-miterlimit="10"/>
<path d="M391.154 318.183L690.931 145.1V147.016C690.862 181.685 681.685 215.728 664.32 245.736C646.955 275.743 622.011 300.662 591.987 317.997L488.324 377.84C459.305 394.585 435.138 418.585 418.193 447.488C401.248 476.39 392.107 509.201 391.668 542.701L391.061 433.993L391.154 318.183Z" stroke="white" stroke-miterlimit="10"/>
<path d="M488.323 377.84L490.659 376.485C489.865 376.952 489.118 377.606 488.323 377.84Z" stroke="white" stroke-miterlimit="10"/>
<path d="M585.306 205.457C555.671 222.052 522.185 230.543 488.224 230.075C454.262 229.608 421.023 220.198 391.855 202.795L493.042 143.652C523.198 126.027 557.48 116.696 592.408 116.606C627.336 116.516 661.666 125.67 691.912 143.138V143.138L592.033 201.487L585.306 205.457Z" stroke="white" stroke-linecap="round" stroke-linejoin="round"/>
<path d="M391.107 318.183L91.2832 145.1C121.832 127.501 156.468 118.238 191.723 118.238C226.978 118.238 261.614 127.501 292.163 145.1L394.144 204.009C423.154 220.777 456.028 229.71 489.535 229.931C523.042 230.153 556.03 221.654 585.259 205.271L491.407 260.115L391.107 318.183Z" stroke="white" stroke-linecap="round" stroke-linejoin="round"/>
<path d="M394.191 204.196L391.855 202.841L394.191 204.196Z" stroke="white" stroke-linecap="round" stroke-linejoin="round"/>
<path d="M383.446 123.05C391.817 155.966 391.363 190.507 382.128 223.191C372.893 255.875 355.203 285.547 330.844 309.214L299.871 196.161C290.635 162.464 290.486 126.923 299.438 93.1497C308.39 59.3764 326.124 28.5754 350.838 3.87744L381.39 115.482L383.446 123.05Z" stroke="white" stroke-linecap="round" stroke-linejoin="round"/>
<path d="M442.075 339.813L197.282 584.605L196.768 582.737C187.871 549.221 187.934 513.956 196.953 480.472C205.972 446.988 223.629 416.462 248.156 391.948L332.759 307.532C356.46 283.853 373.595 254.417 382.481 222.115C391.368 189.812 391.7 155.754 383.446 123.284L412.129 228.115L442.075 339.813Z" stroke="white" stroke-linecap="round" stroke-linejoin="round"/>
<path d="M332.759 307.532L330.844 309.448C331.517 308.845 332.156 308.205 332.759 307.532V307.532Z" stroke="white" stroke-miterlimit="10"/>
<path d="M283.707 499.068C308.023 475.356 338.162 458.474 371.084 450.124C404.006 441.775 438.547 442.253 471.226 451.511L388.818 534.853C338.785 585.4 265.955 603.105 197.282 584.699L278.195 504.628L283.707 499.068Z" stroke="white" stroke-miterlimit="10"/>
<path d="M442.075 339.813L776.469 429.414L775.114 430.769C750.546 455.235 719.982 472.817 686.482 481.753C652.981 490.69 617.721 490.668 584.232 481.69L468.516 450.717C436.163 442.065 402.116 441.972 369.716 450.449C337.317 458.926 307.678 475.68 283.707 499.068L360.135 421.753L442.075 339.813Z" stroke="white" stroke-miterlimit="10"/>
<path d="M468.516 450.717L471.132 451.418L468.516 450.717Z" stroke="white" stroke-miterlimit="10"/>
<path d="M659.118 397.367C626.424 388.174 596.734 370.518 573.046 346.182C549.357 321.846 532.509 291.69 524.201 258.76L637.535 288.472C671.318 297.311 702.162 314.933 726.932 339.547C751.703 364.162 769.519 394.893 778.571 428.62L666.452 399.283L659.118 397.367Z" stroke="white" stroke-linecap="round" stroke-linejoin="round"/>
<path d="M442.075 339.766L352.473 5.37244C386.515 14.5783 417.541 32.5633 442.448 57.5277C467.355 82.4921 485.269 113.56 494.396 147.623L524.855 261.377C533.516 293.743 550.447 323.3 573.987 347.143C597.527 370.985 626.864 388.294 659.118 397.367L553.913 369.805L442.075 339.766Z" stroke="white" stroke-linecap="round" stroke-linejoin="round"/>
<path d="M524.856 261.377L524.155 258.76C524.575 259.601 524.575 260.489 524.856 261.377Z" stroke="white" stroke-linecap="round" stroke-linejoin="round"/>
<path d="M574.608 196.395C557.253 225.587 532.507 249.687 502.865 266.263C473.223 282.839 439.734 291.305 405.776 290.808L463.844 189.013C481.133 158.669 506.145 133.44 536.339 115.889C566.534 98.3389 600.835 89.092 635.759 89.0876V89.0876L578.485 189.574L574.608 196.395Z" stroke="white" stroke-linecap="round" stroke-linejoin="round"/>
<path d="M462.817 391.107H116.603L117.584 389.426C134.988 359.434 159.963 334.539 190.01 317.232C220.058 299.925 254.124 290.813 288.799 290.808H408.486C441.988 290.84 474.922 282.152 504.048 265.598C533.175 249.044 557.492 225.195 574.608 196.395L520.791 290.808L462.817 391.107Z" stroke="white" stroke-linecap="round" stroke-linejoin="round"/>
<path d="M238.299 391.621C272.257 392.041 305.504 401.415 334.68 418.796C363.857 436.178 387.93 460.95 404.468 490.613L287.304 491.267C216.202 491.64 152.154 452.633 116.603 391.061L230.497 391.668H238.299V391.621Z" stroke="white" stroke-miterlimit="10"/>
<path d="M462.817 391.107L635.947 690.931H633.984C599.309 690.862 565.261 681.68 535.253 664.306C505.244 646.932 480.329 621.977 463.004 591.94L403.113 488.324C386.393 459.291 362.405 435.108 333.508 418.153C304.611 401.199 271.8 392.055 238.299 391.621L347.007 391.014L462.817 391.107Z" stroke="white" stroke-miterlimit="10"/>
<path d="M403.113 488.324L404.468 490.659L403.113 488.324Z" stroke="white" stroke-miterlimit="10"/>
<path d="M575.589 585.306C558.979 555.678 550.474 522.193 550.933 488.229C551.393 454.266 560.8 421.023 578.205 391.855L637.348 493.042C654.98 523.193 664.319 557.473 664.417 592.402C664.516 627.33 655.37 661.662 637.909 691.912V691.912L579.513 592.033L575.589 585.306Z" stroke="white" stroke-linecap="round" stroke-linejoin="round"/>
<path d="M462.817 391.107L635.947 91.2833C653.496 121.857 662.711 156.502 662.67 191.754C662.629 227.006 653.334 261.63 635.713 292.163L576.851 394.144C560.083 423.154 551.149 456.028 550.928 489.535C550.707 523.042 559.206 556.03 575.589 585.26L520.698 491.407L462.817 391.107Z" stroke="white" stroke-linecap="round" stroke-linejoin="round"/>
<path d="M576.851 394.191L578.205 391.855C577.738 392.649 577.271 393.396 576.851 394.191Z" stroke="white" stroke-linecap="round" stroke-linejoin="round"/>
<path d="M657.95 383.399C625.042 391.787 590.505 391.35 557.82 382.131C525.136 372.912 495.46 355.238 471.786 330.89L584.839 299.964C618.526 290.736 654.054 290.586 687.817 299.53C721.58 308.473 752.375 326.191 777.076 350.885V350.885L665.518 381.437L657.95 383.399Z" stroke="white" stroke-linecap="round" stroke-linejoin="round"/>
<path d="M441.187 442.075L196.395 197.235L198.263 196.768C231.779 187.871 267.044 187.935 300.528 196.953C334.012 205.972 364.538 223.629 389.052 248.156L473.701 332.759C497.38 356.46 526.817 373.595 559.119 382.481C591.422 391.368 625.48 391.7 657.95 383.446L553.119 412.176L441.187 442.075Z" stroke="white" stroke-linecap="round" stroke-linejoin="round"/>
<path d="M473.701 332.712L471.786 330.797C472.44 331.451 473.187 332.105 473.701 332.712Z" stroke="white" stroke-miterlimit="10"/>
<path d="M282.072 283.66C305.752 307.968 322.611 338.085 330.951 370.979C339.292 403.874 338.82 438.385 329.582 471.039L246.241 388.631C195.694 338.645 177.988 265.815 196.395 197.095L276.513 278.054L282.072 283.66Z" stroke="white" stroke-miterlimit="10"/>
<path d="M441.234 442.075L351.726 776.469L350.324 775.114C325.854 750.539 308.271 719.967 299.334 686.458C290.397 652.95 290.421 617.681 299.404 584.185L330.376 468.609C339.054 436.247 339.172 402.184 330.72 369.761C322.269 337.339 305.537 307.669 282.165 283.66L359.434 360.135L441.234 442.075Z" stroke="white" stroke-miterlimit="10"/>
<path d="M330.283 468.609L329.582 471.225C329.816 470.338 330.049 469.45 330.283 468.609Z" stroke="white" stroke-miterlimit="10"/>
<path d="M383.633 659.071C392.851 626.382 410.521 596.701 434.863 573.015C459.205 549.33 489.358 532.477 522.286 524.155L492.575 637.535C483.72 671.306 466.092 702.134 441.479 726.895C416.866 751.655 386.144 769.467 352.427 778.524V778.524L381.717 666.639L383.633 659.071Z" stroke="white" stroke-linecap="round" stroke-linejoin="round"/>
<path d="M441.234 442.028L775.628 352.426C766.421 386.472 748.436 417.504 723.472 442.419C698.509 467.333 667.441 485.257 633.377 494.397L519.904 524.855C487.532 533.5 457.967 550.42 434.116 573.952C410.264 597.485 392.947 626.819 383.866 659.071L411.429 553.913L441.234 442.028Z" stroke="white" stroke-linecap="round" stroke-linejoin="round"/>
<path d="M519.904 524.856L522.52 524.155L519.904 524.856Z" stroke="white" stroke-linecap="round" stroke-linejoin="round"/>
<path d="M584.652 574.608C555.43 557.247 531.308 532.481 514.722 502.812C498.137 473.143 489.675 439.622 490.192 405.636L591.987 463.657C622.338 480.95 647.571 505.97 665.122 536.173C682.673 566.376 691.916 600.687 691.912 635.62L591.426 578.486L584.652 574.608Z" stroke="white" stroke-linecap="round" stroke-linejoin="round"/>
<path d="M389.893 462.816V116.603L391.575 117.584C421.58 134.984 446.484 159.965 463.793 190.023C481.101 220.081 490.205 254.16 490.192 288.846V408.532C490.179 442.036 498.88 474.968 515.441 504.093C532.002 533.217 555.853 557.534 584.652 574.655L490.192 520.791L389.893 462.816Z" stroke="white" stroke-linecap="round" stroke-linejoin="round"/>
<path d="M490.192 408.486V405.636C490.192 406.664 490.192 407.598 490.192 408.486Z" stroke="white" stroke-miterlimit="10"/>
<path d="M389.332 238.252C388.915 272.218 379.543 305.472 362.162 334.657C344.781 363.841 320.006 387.922 290.34 404.468L289.733 287.304C289.313 216.202 328.321 152.154 389.892 116.603L389.332 230.451V238.252V238.252Z" stroke="white" stroke-miterlimit="10"/>
<path d="M389.893 462.817L90.1155 635.9V633.984C90.1956 599.305 99.3816 565.255 116.754 535.241C134.126 505.226 159.076 480.3 189.107 462.957L292.77 403.113C321.792 386.377 345.96 362.377 362.899 333.472C379.837 304.567 388.963 271.752 389.379 238.252L389.986 347.007L389.893 462.817Z" stroke="white" stroke-miterlimit="10"/>
<path d="M292.723 403.113L290.341 404.468C290.995 404.048 291.929 403.581 292.723 403.113Z" stroke="white" stroke-miterlimit="10"/>
<path d="M195.74 575.543C225.361 558.929 258.842 550.427 292.8 550.895C326.759 551.362 359.993 560.783 389.145 578.205L288.005 637.348C257.849 654.973 223.567 664.304 188.639 664.394C153.711 664.484 119.381 655.33 89.1343 637.862V637.862L188.967 579.513L195.74 575.543Z" stroke="white" stroke-linecap="round" stroke-linejoin="round"/>
<path d="M389.939 462.817L689.717 635.9C659.164 653.485 624.529 662.74 589.277 662.74C554.025 662.74 519.39 653.485 488.837 635.9L386.856 576.991C357.854 560.223 324.988 551.289 291.488 551.068C257.989 550.847 225.008 559.346 195.787 575.729L289.64 520.838L389.939 462.817Z" stroke="white" stroke-linecap="round" stroke-linejoin="round"/>
<path d="M386.81 576.804L389.192 578.159L386.81 576.804Z" stroke="white" stroke-linecap="round" stroke-linejoin="round"/>
<path d="M397.601 657.903C389.219 624.988 389.669 590.444 398.905 557.758C408.14 525.072 425.835 495.401 450.203 471.739L481.176 584.746C490.392 618.444 490.532 653.98 481.581 687.75C472.63 721.519 454.906 752.32 430.209 777.029V777.029L399.656 665.471L397.601 657.903Z" stroke="white" stroke-linecap="round" stroke-linejoin="round"/>
<path d="M338.972 441.187L583.764 196.395L584.232 198.263C593.139 231.779 593.08 267.047 584.061 300.532C575.042 334.017 557.379 364.544 532.844 389.052L448.241 473.702C424.552 497.378 407.428 526.808 398.55 559.102C389.672 591.396 389.345 625.444 397.601 657.903L368.87 553.025L338.972 441.187Z" stroke="white" stroke-linecap="round" stroke-linejoin="round"/>
<path d="M448.288 473.702L450.203 471.786C449.529 472.388 448.89 473.028 448.288 473.702V473.702Z" stroke="white" stroke-miterlimit="10"/>
<path d="M497.34 282.025C473.013 305.766 442.848 322.662 409.896 331.004C376.945 339.347 342.374 338.84 309.681 329.535L392.088 246.241C442.075 195.694 514.952 177.988 583.625 196.395L502.712 276.466L497.34 282.025Z" stroke="white" stroke-miterlimit="10"/>
<path d="M338.926 441.187L4.53149 351.585L5.88616 350.231C30.4635 325.765 61.0363 308.184 94.5438 299.248C128.051 290.311 163.319 290.333 196.815 299.31L312.438 330.283C344.796 338.964 378.857 339.08 411.274 330.62C443.691 322.159 473.351 305.413 497.34 282.025L420.865 359.34L338.926 441.187Z" stroke="white" stroke-miterlimit="10"/>
<path d="M312.437 330.283L309.821 329.582L312.437 330.283Z" stroke="white" stroke-miterlimit="10"/>
<path d="M121.929 383.633C154.646 392.842 184.351 410.526 208.041 434.897C231.731 459.268 248.567 489.462 256.845 522.426L143.465 492.715C109.694 483.86 78.8656 466.232 54.1051 441.619C29.3445 417.006 11.5328 386.284 2.47583 352.567L114.595 381.904L121.929 383.633Z" stroke="white" stroke-linecap="round" stroke-linejoin="round"/>
<path d="M338.972 441.187L428.574 775.628C394.53 766.426 363.501 748.443 338.593 723.478C313.685 698.513 295.773 667.442 286.65 633.377L256.144 519.623C247.492 487.26 230.569 457.705 207.038 433.862C183.506 410.019 154.176 392.709 121.929 383.633L227.087 411.149L338.972 441.187Z" stroke="white" stroke-linecap="round" stroke-linejoin="round"/>
<path d="M256.144 519.623L256.845 522.239C256.612 521.352 256.378 520.511 256.144 519.623Z" stroke="white" stroke-linecap="round" stroke-linejoin="round"/>
</g>
</svg>