<svg width="24" height="24" viewBox="0 0 24 24" fill="none" xmlns="http://www.w3.org/2000/svg">
<g clip-path="url(#clip0_433_1746)">
<path d="M22.6698 1C22.6698 0.734784 22.5645 0.48043 22.3769 0.292893C22.1894 0.105357 21.9351 0 21.6698 0L2.33984 0C2.07463 0 1.82027 0.105357 1.63274 0.292893C1.4452 0.48043 1.33984 0.734784 1.33984 1V20.33C1.33984 20.5952 1.4452 20.8496 1.63274 21.0371C1.82027 21.2246 2.07463 21.33 2.33984 21.33H15.5998C15.7492 21.3305 15.8968 21.2975 16.0318 21.2335C16.1668 21.1695 16.2857 21.076 16.3798 20.96C16.5799 20.5544 16.6531 20.0979 16.5898 19.65C16.5802 19.6074 16.5848 19.5629 16.6029 19.5232C16.6209 19.4835 16.6515 19.4507 16.6898 19.43C16.7251 19.4055 16.7669 19.3923 16.8098 19.3923C16.8527 19.3923 16.8946 19.4055 16.9298 19.43L20.9298 23.68C21.1177 23.8611 21.3689 23.9616 21.6298 23.96C21.7669 23.9576 21.9024 23.9305 22.0298 23.88C22.2122 23.8028 22.3675 23.6732 22.4761 23.5076C22.5847 23.3421 22.6417 23.148 22.6398 22.95L22.6698 1ZM18.6698 14.06C17.6648 15.1365 16.312 15.8236 14.8498 16H14.4398C14.3449 16.0026 14.2504 15.9852 14.1626 15.949C14.0748 15.9129 13.9955 15.8587 13.9298 15.79L13.3798 15.07C13.3537 15.032 13.3171 15.0024 13.2746 14.9847C13.232 14.967 13.1852 14.9619 13.1398 14.97C12.9098 14.97 12.6798 15.03 12.4398 15.05C11.9471 15.085 11.4526 15.085 10.9598 15.05C10.6249 15.0356 10.291 15.0022 9.95984 14.95C9.91458 14.9441 9.86857 14.9503 9.82645 14.9678C9.78432 14.9854 9.74755 15.0137 9.71984 15.05L9.19984 15.75C9.10584 15.8531 8.98461 15.9275 8.85014 15.9647C8.71567 16.0018 8.57344 16.0002 8.43984 15.96C7.60165 15.8864 6.78615 15.6486 6.03984 15.26C5.42318 14.9491 4.87294 14.5212 4.41984 14C4.32191 13.8782 4.26893 13.7263 4.26984 13.57C4.34801 11.1576 5.01029 8.80018 6.19984 6.7C6.25289 6.62134 6.31687 6.55063 6.38984 6.49C6.88725 6.12994 7.42821 5.83426 7.99984 5.61C8.49747 5.41151 9.01831 5.2771 9.54984 5.21C9.68875 5.17934 9.83406 5.19989 9.95901 5.26788C10.084 5.33587 10.1801 5.44671 10.2298 5.58L10.2998 5.72C10.3246 5.7634 10.3614 5.79875 10.4057 5.8218C10.45 5.84486 10.5001 5.85465 10.5498 5.85H11.0698C11.4995 5.82477 11.9302 5.82477 12.3598 5.85H12.6098C12.6605 5.85247 12.7107 5.84066 12.7549 5.8159C12.7992 5.79114 12.8355 5.75444 12.8598 5.71L12.9998 5.48C13.0535 5.38871 13.1315 5.31416 13.2251 5.26471C13.3187 5.21525 13.4242 5.19285 13.5298 5.2C13.8036 5.22146 14.0748 5.26833 14.3398 5.34C15.2149 5.56737 16.0392 5.9575 16.7698 6.49C16.8438 6.54895 16.9109 6.61604 16.9698 6.69C18.122 8.78168 18.7692 11.1137 18.8598 13.5C18.8738 13.6024 18.8649 13.7066 18.8337 13.8052C18.8026 13.9037 18.7501 13.9942 18.6798 14.07L18.6698 14.06Z" fill="#9FA1B9"/>
<path d="M13.5715 13C13.2049 13.0089 12.8482 12.8805 12.5715 12.64C12.2153 12.3256 11.9946 11.8857 11.9555 11.4122C11.9163 10.9388 12.0618 10.4686 12.3615 10.1C12.4929 9.92766 12.6606 9.78631 12.8527 9.68592C13.0448 9.58553 13.2565 9.52855 13.4731 9.51901C13.6896 9.50947 13.9056 9.54761 14.1057 9.63072C14.3059 9.71383 14.4854 9.83989 14.6315 9.99999C14.9668 10.3437 15.1545 10.8048 15.1545 11.285C15.1545 11.7652 14.9668 12.2263 14.6315 12.57C14.4918 12.708 14.3263 12.817 14.1444 12.8908C13.9625 12.9646 13.7678 13.0017 13.5715 13Z" fill="#9FA1B9"/>
<path d="M9.5715 13C9.37426 13.0021 9.17864 12.9641 8.99646 12.8885C8.81427 12.8129 8.6493 12.7011 8.51151 12.56C8.18011 12.2169 7.99406 11.759 7.9922 11.282C7.99034 10.805 8.1728 10.3457 8.50151 10C8.63484 9.84888 8.79763 9.72658 8.9799 9.6406C9.16217 9.55463 9.36009 9.50678 9.56151 9.5C9.93876 9.51377 10.2965 9.67117 10.5615 9.94C10.8968 10.2837 11.0845 10.7448 11.0845 11.225C11.0845 11.7052 10.8968 12.1663 10.5615 12.51C10.2991 12.7843 9.94872 12.9577 9.5715 13V13Z" fill="#9FA1B9"/>
</g>
<defs>
<clipPath id="clip0_433_1746">
<rect width="24" height="24" fill="white"/>
</clipPath>
</defs>
</svg>
