<svg width="787" height="787" viewBox="0 0 787 787" fill="none" xmlns="http://www.w3.org/2000/svg">
<g opacity="0.2" filter="url(#filter0_d_51_561)">
<path d="M587.654 573.608C558.432 556.247 534.31 531.481 517.724 501.812C501.138 472.143 492.677 438.622 493.194 404.636L594.989 462.657C625.34 479.95 650.573 504.969 668.124 535.173C685.675 565.376 694.918 599.687 694.914 634.619L594.428 577.485L587.654 573.608Z" stroke="white" stroke-linecap="round" stroke-linejoin="round"/>
<path d="M392.895 461.817V115.604L394.577 116.585C424.582 133.984 449.486 158.965 466.795 189.023C484.103 219.081 493.207 253.161 493.194 287.846V407.532C493.181 441.036 501.882 473.968 518.443 503.093C535.004 532.218 558.855 556.534 587.654 573.655L493.194 519.791L392.895 461.817Z" stroke="white" stroke-linecap="round" stroke-linejoin="round"/>
<path d="M493.191 407.485V404.636C493.191 405.663 493.191 406.598 493.191 407.485Z" stroke="white" stroke-miterlimit="10"/>
<path d="M392.333 237.252C391.916 271.218 382.544 304.472 365.163 333.657C347.782 362.841 323.007 386.922 293.341 403.468L292.734 286.304C292.313 215.202 331.321 151.154 392.893 115.604L392.333 229.451V237.252V237.252Z" stroke="white" stroke-miterlimit="10"/>
<path d="M392.894 461.816L93.1172 634.9V632.984C93.1974 598.305 102.383 564.255 119.756 534.24C137.128 504.226 162.078 479.3 192.109 461.956L295.772 402.113C324.794 385.377 348.962 361.377 365.9 332.472C382.839 303.567 391.965 270.752 392.381 237.252L392.988 346.007L392.894 461.816Z" stroke="white" stroke-miterlimit="10"/>
<path d="M295.722 402.113L293.34 403.468C293.994 403.048 294.928 402.58 295.722 402.113Z" stroke="white" stroke-miterlimit="10"/>
<path d="M198.739 574.542C228.36 557.929 261.84 549.427 295.799 549.894C329.758 550.362 362.992 559.783 392.144 577.205L291.003 636.348C260.848 653.972 226.566 663.303 191.638 663.394C156.709 663.484 122.379 654.33 92.1328 636.862V636.862L191.965 578.513L198.739 574.542Z" stroke="white" stroke-linecap="round" stroke-linejoin="round"/>
<path d="M392.941 461.816L692.718 634.9C662.166 652.485 627.531 661.74 592.279 661.74C557.027 661.74 522.392 652.485 491.839 634.9L389.858 575.991C360.856 559.222 327.99 550.289 294.49 550.068C260.991 549.847 228.01 558.345 198.789 574.729L292.642 519.838L392.941 461.816Z" stroke="white" stroke-linecap="round" stroke-linejoin="round"/>
<path d="M389.809 575.804L392.191 577.158L389.809 575.804Z" stroke="white" stroke-linecap="round" stroke-linejoin="round"/>
<path d="M400.6 656.903C392.218 623.988 392.668 589.444 401.904 556.758C411.139 524.072 428.834 494.401 453.202 470.739L484.175 583.746C493.391 617.444 493.531 652.98 484.58 686.749C475.629 720.519 457.905 751.32 433.208 776.029V776.029L402.655 664.471L400.6 656.903Z" stroke="white" stroke-linecap="round" stroke-linejoin="round"/>
<path d="M341.973 440.187L586.765 195.395L587.232 197.263C596.139 230.779 596.08 266.046 587.061 299.532C578.042 333.017 560.38 363.544 535.845 388.052L451.241 472.701C427.553 496.378 410.429 525.808 401.551 558.102C392.672 590.396 392.345 624.444 400.601 656.903L371.871 552.025L341.973 440.187Z" stroke="white" stroke-linecap="round" stroke-linejoin="round"/>
<path d="M451.289 472.702L453.205 470.786C452.531 471.388 451.891 472.028 451.289 472.702V472.702Z" stroke="white" stroke-miterlimit="10"/>
<path d="M500.338 281.026C476.011 304.766 445.847 321.662 412.895 330.005C379.943 338.347 345.373 337.841 312.68 328.536L395.087 245.241C445.073 194.694 517.95 176.989 586.623 195.395L505.711 275.466L500.338 281.026Z" stroke="white" stroke-miterlimit="10"/>
<path d="M341.925 440.187L7.53125 350.586L8.88591 349.231C33.4633 324.765 64.036 307.184 97.5436 298.248C131.051 289.311 166.318 289.333 199.815 298.31L315.437 329.283C347.796 337.965 381.856 338.081 414.274 329.62C446.691 321.159 476.35 304.413 500.339 281.025L423.865 358.341L341.925 440.187Z" stroke="white" stroke-miterlimit="10"/>
<path d="M315.436 329.283L312.82 328.582L315.436 329.283Z" stroke="white" stroke-miterlimit="10"/>
<path d="M124.93 382.633C157.646 391.842 187.351 409.526 211.042 433.897C234.732 458.268 251.567 488.462 259.846 521.426L146.466 491.715C112.695 482.86 81.8663 465.232 57.1058 440.619C32.3453 416.006 14.5335 385.284 5.47656 351.566L117.595 380.904L124.93 382.633Z" stroke="white" stroke-linecap="round" stroke-linejoin="round"/>
<path d="M341.973 440.187L431.574 774.628C397.531 765.426 366.501 747.443 341.594 722.478C316.686 697.513 298.774 666.442 289.651 632.377L259.145 518.623C250.493 486.26 233.57 456.705 210.038 432.862C186.507 409.019 157.176 391.709 124.93 382.633L230.088 410.149L341.973 440.187Z" stroke="white" stroke-linecap="round" stroke-linejoin="round"/>
<path d="M259.145 518.623L259.845 521.239C259.612 520.352 259.378 519.511 259.145 518.623Z" stroke="white" stroke-linecap="round" stroke-linejoin="round"/>
<path d="M209.393 583.605C226.74 554.437 251.465 530.353 281.079 513.779C310.693 497.204 344.151 488.724 378.085 489.192L320.064 590.987C302.763 621.332 277.742 646.56 247.541 664.11C217.339 681.659 183.032 690.907 148.102 690.912V690.912L205.422 590.379L209.393 583.605Z" stroke="white" stroke-linecap="round" stroke-linejoin="round"/>
<path d="M321.229 388.893H667.395L666.461 390.574C649.052 420.558 624.074 445.443 594.027 462.742C563.98 480.04 529.917 489.145 495.247 489.145H375.56C342.049 489.129 309.11 497.828 279.977 514.389C250.844 530.949 226.519 554.802 209.391 583.605L263.254 489.145L321.229 388.893Z" stroke="white" stroke-linecap="round" stroke-linejoin="round"/>
<path d="M545.747 388.332C511.786 387.896 478.539 378.516 449.358 361.137C420.176 343.758 396.092 318.994 379.531 289.34L496.742 288.686C567.844 288.313 631.845 327.321 667.396 388.892L553.549 388.285H545.747V388.332Z" stroke="white" stroke-miterlimit="10"/>
<path d="M321.185 388.892L148.102 89.0684H150.017C184.693 89.1344 218.744 98.3092 248.76 115.674C278.775 133.039 303.702 157.985 321.044 188.013L380.888 291.676C397.615 320.71 421.612 344.89 450.518 361.838C479.424 378.785 512.244 387.916 545.749 388.332L437.041 388.939L321.185 388.892Z" stroke="white" stroke-miterlimit="10"/>
<path d="M380.886 291.677L379.531 289.341C379.998 290.135 380.419 290.929 380.886 291.677Z" stroke="white" stroke-miterlimit="10"/>
<path d="M208.457 194.694C225.067 224.322 233.572 257.807 233.112 291.771C232.653 325.735 223.246 358.977 205.841 388.145L146.698 286.958C129.057 256.81 119.713 222.529 119.614 187.599C119.516 152.669 128.667 118.335 146.137 88.0879V88.0879L204.533 187.967L208.457 194.694Z" stroke="white" stroke-linecap="round" stroke-linejoin="round"/>
<path d="M321.182 388.893L148.099 688.717C130.549 658.143 121.334 623.498 121.375 588.246C121.416 552.994 130.712 518.37 148.333 487.837L207.195 385.95C223.963 356.939 232.896 324.066 233.117 290.559C233.338 257.052 224.84 224.063 208.456 194.834L263.348 288.687L321.182 388.893Z" stroke="white" stroke-linecap="round" stroke-linejoin="round"/>
<path d="M207.195 385.949L205.84 388.285C206.307 387.351 206.727 386.557 207.195 385.949Z" stroke="white" stroke-linecap="round" stroke-linejoin="round"/>
<path d="M126.052 396.554C158.972 388.193 193.515 388.658 226.198 397.901C258.881 407.144 288.551 424.839 312.216 449.203L199.21 480.129C165.523 489.357 129.995 489.507 96.232 480.564C62.469 471.621 31.6736 453.903 6.97266 429.209V429.209L118.531 398.657L126.052 396.554Z" stroke="white" stroke-linecap="round" stroke-linejoin="round"/>
<path d="M342.814 337.926L587.606 582.718L585.737 583.232C552.221 592.125 516.957 592.059 483.474 583.04C449.992 574.022 419.465 556.368 394.949 531.844L310.346 447.288C286.67 423.567 257.228 406.416 224.915 397.521C192.603 388.626 158.531 388.293 126.051 396.555L230.929 367.871L342.814 337.926Z" stroke="white" stroke-linecap="round" stroke-linejoin="round"/>
<path d="M310.344 447.288L312.259 449.157L310.344 447.288Z" stroke="white" stroke-miterlimit="10"/>
<path d="M501.974 496.293C478.266 471.974 461.39 441.834 453.048 408.911C444.707 375.988 445.195 341.448 454.464 308.774L537.758 391.182C588.305 441.215 606.011 514.045 587.605 582.718L507.533 501.805L501.974 496.293Z" stroke="white" stroke-miterlimit="10"/>
<path d="M342.812 337.925L432.414 3.53125L433.769 4.88599C458.243 29.4487 475.833 60.0109 484.778 93.5115C493.723 127.012 493.709 162.275 484.736 195.768L453.763 311.204C445.057 343.557 444.924 377.62 453.377 410.041C461.831 442.461 478.579 472.122 501.974 496.106L424.799 419.865L342.812 337.925Z" stroke="white" stroke-miterlimit="10"/>
<path d="M453.766 311.204L454.466 308.588C454.233 309.662 453.952 310.55 453.766 311.204Z" stroke="white" stroke-miterlimit="10"/>
<path d="M400.415 120.929C391.198 153.613 373.528 183.29 349.185 206.968C324.843 230.646 294.688 247.489 261.762 255.798L291.473 142.465C300.32 108.69 317.944 77.8565 342.559 53.0946C367.173 28.3327 397.9 10.5238 431.622 1.47559V1.47559L402.284 113.594L400.415 120.929Z" stroke="white" stroke-linecap="round" stroke-linejoin="round"/>
<path d="M342.812 337.925L8.41797 427.527C17.6068 393.484 35.5805 362.454 60.5382 337.546C85.4959 312.637 116.561 294.725 150.622 285.603L264.375 255.144C296.741 246.487 326.299 229.562 350.149 206.032C373.999 182.502 391.32 153.175 400.413 120.929L372.85 226.087L342.812 337.925Z" stroke="white" stroke-linecap="round" stroke-linejoin="round"/>
<path d="M264.378 255.145L261.762 255.845L264.378 255.145Z" stroke="white" stroke-linecap="round" stroke-linejoin="round"/>
<path d="M199.394 205.392C228.618 222.727 252.752 247.464 269.361 277.107C285.97 306.749 294.467 340.248 293.994 374.224L192.199 316.202C161.86 298.9 136.638 273.877 119.097 243.675C101.555 213.473 92.3165 179.167 92.3203 144.24V144.24L192.807 201.514L199.394 205.392Z" stroke="white" stroke-linecap="round" stroke-linejoin="round"/>
<path d="M394.154 317.183V663.396L392.473 662.415C362.5 645.002 337.628 620.021 320.346 589.973C303.063 559.925 293.976 525.864 293.995 491.201V371.514C294.008 338.01 285.307 305.079 268.747 275.954C252.186 246.829 228.334 222.512 199.535 205.392L293.995 259.209L394.154 317.183Z" stroke="white" stroke-linecap="round" stroke-linejoin="round"/>
<path d="M293.996 371.515V374.224C293.996 373.337 293.996 372.402 293.996 371.515Z" stroke="white" stroke-miterlimit="10"/>
<path d="M394.666 541.701C395.11 507.748 404.494 474.511 421.873 445.338C439.251 416.166 464.011 392.089 493.658 375.532L494.312 492.696C494.685 563.798 455.724 627.846 394.152 663.397L394.713 549.55V541.701H394.666Z" stroke="white" stroke-miterlimit="10"/>
<path d="M394.152 317.184L693.929 144.101V146.016C693.86 180.686 684.683 214.729 667.318 244.736C649.953 274.743 625.009 299.662 594.985 316.997L491.322 376.84C462.303 393.585 438.136 417.586 421.191 446.488C404.246 475.39 395.105 508.201 394.666 541.701L394.059 432.993L394.152 317.184Z" stroke="white" stroke-miterlimit="10"/>
<path d="M491.324 376.84L493.66 375.485C492.866 375.953 492.118 376.607 491.324 376.84Z" stroke="white" stroke-miterlimit="10"/>
<path d="M588.307 204.458C558.671 221.052 525.186 229.543 491.224 229.076C457.262 228.608 424.023 219.198 394.855 201.795L496.042 142.652C526.198 125.028 560.48 115.696 595.409 115.606C630.337 115.516 664.667 124.67 694.913 142.138V142.138L595.034 200.487L588.307 204.458Z" stroke="white" stroke-linecap="round" stroke-linejoin="round"/>
<path d="M394.109 317.184L94.2852 144.1C124.833 126.502 159.47 117.238 194.725 117.238C229.98 117.238 264.616 126.502 295.164 144.1L397.146 203.01C426.156 219.777 459.03 228.711 492.537 228.932C526.044 229.153 559.032 220.654 588.261 204.271L494.409 259.116L394.109 317.184Z" stroke="white" stroke-linecap="round" stroke-linejoin="round"/>
<path d="M397.191 203.197L394.855 201.842L397.191 203.197Z" stroke="white" stroke-linecap="round" stroke-linejoin="round"/>
<path d="M386.446 122.05C394.817 154.966 394.363 189.507 385.128 222.191C375.893 254.875 358.203 284.546 333.844 308.213L302.871 195.16C293.635 161.464 293.486 125.922 302.438 92.1492C311.39 58.3759 329.124 27.5749 353.838 2.87695L384.39 114.482L386.446 122.05Z" stroke="white" stroke-linecap="round" stroke-linejoin="round"/>
<path d="M445.073 338.813L200.281 583.606L199.767 581.737C190.87 548.221 190.933 512.956 199.952 479.472C208.97 445.989 226.628 415.462 251.155 390.949L335.758 306.533C359.458 282.854 376.593 253.418 385.48 221.115C394.366 188.812 394.699 154.754 386.445 122.284L415.128 227.115L445.073 338.813Z" stroke="white" stroke-linecap="round" stroke-linejoin="round"/>
<path d="M335.759 306.532L333.844 308.448C334.517 307.845 335.156 307.205 335.759 306.532V306.532Z" stroke="white" stroke-miterlimit="10"/>
<path d="M286.706 498.068C311.022 474.356 341.161 457.474 374.083 449.124C407.005 440.775 441.547 441.253 474.225 450.511L391.817 533.853C341.784 584.399 268.954 602.105 200.281 583.699L281.194 503.627L286.706 498.068Z" stroke="white" stroke-miterlimit="10"/>
<path d="M445.075 338.813L779.469 428.415L778.114 429.77C753.546 454.236 722.982 471.817 689.482 480.754C655.981 489.69 620.721 489.669 587.232 480.69L471.516 449.718C439.163 441.065 405.116 440.973 372.716 449.45C340.317 457.926 310.678 474.681 286.707 498.069L363.135 420.754L445.075 338.813Z" stroke="white" stroke-miterlimit="10"/>
<path d="M471.516 449.717L474.132 450.418L471.516 449.717Z" stroke="white" stroke-miterlimit="10"/>
<path d="M662.119 396.367C629.425 387.175 599.736 369.519 576.047 345.182C552.359 320.846 535.511 290.691 527.203 257.761L640.536 287.472C674.32 296.311 705.163 313.933 729.934 338.547C754.704 363.162 772.52 393.893 781.572 427.621L669.454 398.283L662.119 396.367Z" stroke="white" stroke-linecap="round" stroke-linejoin="round"/>
<path d="M445.074 338.766L355.473 4.37207C389.514 13.5779 420.541 31.5629 445.448 56.5273C470.355 81.4917 488.269 112.56 497.396 146.623L527.855 260.376C536.515 292.743 553.447 322.3 576.987 346.142C600.526 369.985 629.864 387.294 662.117 396.367L556.913 368.804L445.074 338.766Z" stroke="white" stroke-linecap="round" stroke-linejoin="round"/>
<path d="M527.857 260.377L527.156 257.761C527.577 258.602 527.577 259.489 527.857 260.377Z" stroke="white" stroke-linecap="round" stroke-linejoin="round"/>
<path d="M577.609 195.395C560.254 224.587 535.508 248.687 505.866 265.263C476.224 281.839 442.735 290.305 408.777 289.808L466.845 188.014C484.135 157.669 509.146 132.44 539.341 114.89C569.535 97.3392 603.836 88.0922 638.761 88.0879V88.0879L581.487 188.574L577.609 195.395Z" stroke="white" stroke-linecap="round" stroke-linejoin="round"/>
<path d="M465.815 390.107H119.602L120.583 388.425C137.986 358.434 162.961 333.538 193.008 316.231C223.056 298.924 257.122 289.813 291.797 289.808H411.484C444.986 289.84 477.92 281.152 507.047 264.598C536.174 248.044 560.491 224.195 577.607 195.395L523.789 289.808L465.815 390.107Z" stroke="white" stroke-linecap="round" stroke-linejoin="round"/>
<path d="M241.297 390.621C275.256 391.041 308.502 400.415 337.679 417.796C366.855 435.177 390.928 459.95 407.466 489.613L290.302 490.267C219.2 490.64 155.153 451.632 119.602 390.061L233.495 390.668H241.297V390.621Z" stroke="white" stroke-miterlimit="10"/>
<path d="M465.815 390.107L638.945 689.931H636.982C602.307 689.862 568.259 680.68 538.251 663.306C508.242 645.932 483.327 620.976 466.002 590.94L406.111 487.323C389.391 458.29 365.403 434.108 336.506 417.153C307.609 400.198 274.798 391.055 241.297 390.621L350.005 390.014L465.815 390.107Z" stroke="white" stroke-miterlimit="10"/>
<path d="M406.113 487.323L407.468 489.659L406.113 487.323Z" stroke="white" stroke-miterlimit="10"/>
<path d="M578.587 584.306C561.977 554.677 553.472 521.193 553.932 487.229C554.391 453.265 563.798 420.023 581.204 390.854L640.346 492.042C657.978 522.193 667.317 556.473 667.416 591.401C667.514 626.329 658.368 660.662 640.907 690.912V690.912L582.512 591.033L578.587 584.306Z" stroke="white" stroke-linecap="round" stroke-linejoin="round"/>
<path d="M465.816 390.107L638.946 90.2832C656.496 120.857 665.711 155.502 665.67 190.754C665.629 226.006 656.333 260.63 638.713 291.163L579.85 393.144C563.083 422.154 554.149 455.028 553.928 488.535C553.707 522.042 562.205 555.03 578.589 584.259L523.697 490.407L465.816 390.107Z" stroke="white" stroke-linecap="round" stroke-linejoin="round"/>
<path d="M579.852 393.19L581.206 390.854C580.739 391.649 580.272 392.396 579.852 393.19Z" stroke="white" stroke-linecap="round" stroke-linejoin="round"/>
<path d="M660.949 382.399C628.041 390.787 593.504 390.35 560.819 381.131C528.135 371.912 498.459 354.237 474.785 329.89L587.838 298.964C621.525 289.736 657.053 289.586 690.816 298.529C724.579 307.473 755.374 325.191 780.075 349.884V349.884L668.517 380.437L660.949 382.399Z" stroke="white" stroke-linecap="round" stroke-linejoin="round"/>
<path d="M444.187 441.074L199.395 196.235L201.263 195.768C234.779 186.871 270.044 186.934 303.528 195.953C337.012 204.972 367.538 222.628 392.052 247.156L476.701 331.759C500.38 355.459 529.817 372.594 562.119 381.481C594.422 390.367 628.48 390.7 660.95 382.446L556.119 411.176L444.187 441.074Z" stroke="white" stroke-linecap="round" stroke-linejoin="round"/>
<path d="M476.7 331.712L474.785 329.797C475.439 330.451 476.186 331.105 476.7 331.712Z" stroke="white" stroke-miterlimit="10"/>
<path d="M285.074 282.661C308.754 306.968 325.612 337.085 333.953 369.979C342.293 402.874 341.821 437.385 332.584 470.039L249.242 387.632C198.695 337.646 180.99 264.815 199.396 196.096L279.514 277.055L285.074 282.661Z" stroke="white" stroke-miterlimit="10"/>
<path d="M444.232 441.074L354.724 775.469L353.323 774.114C328.853 749.539 311.269 718.967 302.333 685.458C293.396 651.95 293.42 616.681 302.402 583.185L333.375 467.609C342.052 435.246 342.171 401.184 333.719 368.761C325.268 336.339 308.536 306.669 285.164 282.66L362.433 359.134L444.232 441.074Z" stroke="white" stroke-miterlimit="10"/>
<path d="M333.283 467.609L332.582 470.225C332.816 469.338 333.049 468.45 333.283 467.609Z" stroke="white" stroke-miterlimit="10"/>
<path d="M386.632 658.07C395.851 625.382 413.521 595.7 437.862 572.015C462.204 548.329 492.357 531.476 525.286 523.154L495.574 636.534C486.719 670.305 469.091 701.134 444.478 725.894C419.866 750.655 389.143 768.467 355.426 777.524V777.524L384.717 665.638L386.632 658.07Z" stroke="white" stroke-linecap="round" stroke-linejoin="round"/>
<path d="M444.234 441.028L778.629 351.427C769.421 385.473 751.436 416.505 726.473 441.419C701.509 466.333 670.442 484.257 636.378 493.397L522.905 523.856C490.533 532.501 460.968 549.421 437.116 572.953C413.265 596.485 395.948 625.819 386.867 658.071L414.43 552.913L444.234 441.028Z" stroke="white" stroke-linecap="round" stroke-linejoin="round"/>
<path d="M522.902 523.855L525.518 523.154L522.902 523.855Z" stroke="white" stroke-linecap="round" stroke-linejoin="round"/>
<path d="M587.654 573.608C558.432 556.247 534.31 531.481 517.724 501.812C501.138 472.143 492.677 438.622 493.194 404.636L594.989 462.657C625.34 479.95 650.573 504.969 668.124 535.173C685.675 565.376 694.918 599.687 694.914 634.619L594.428 577.485L587.654 573.608Z" stroke="white" stroke-linecap="round" stroke-linejoin="round"/>
<path d="M392.895 461.817V115.604L394.577 116.585C424.582 133.984 449.486 158.965 466.795 189.023C484.103 219.081 493.207 253.161 493.194 287.846V407.532C493.181 441.036 501.882 473.968 518.443 503.093C535.004 532.218 558.855 556.534 587.654 573.655L493.194 519.791L392.895 461.817Z" stroke="white" stroke-linecap="round" stroke-linejoin="round"/>
<path d="M493.191 407.485V404.636C493.191 405.663 493.191 406.598 493.191 407.485Z" stroke="white" stroke-miterlimit="10"/>
<path d="M392.333 237.252C391.916 271.218 382.544 304.472 365.163 333.657C347.782 362.841 323.007 386.922 293.341 403.468L292.734 286.304C292.313 215.202 331.321 151.154 392.893 115.604L392.333 229.451V237.252V237.252Z" stroke="white" stroke-miterlimit="10"/>
<path d="M392.894 461.816L93.1172 634.9V632.984C93.1974 598.305 102.383 564.255 119.756 534.24C137.128 504.226 162.078 479.3 192.109 461.956L295.772 402.113C324.794 385.377 348.962 361.377 365.9 332.472C382.839 303.567 391.965 270.752 392.381 237.252L392.988 346.007L392.894 461.816Z" stroke="white" stroke-miterlimit="10"/>
<path d="M295.722 402.113L293.34 403.468C293.994 403.048 294.928 402.58 295.722 402.113Z" stroke="white" stroke-miterlimit="10"/>
<path d="M198.739 574.542C228.36 557.929 261.84 549.427 295.799 549.894C329.758 550.362 362.992 559.783 392.144 577.205L291.003 636.348C260.848 653.972 226.566 663.303 191.638 663.394C156.709 663.484 122.379 654.33 92.1328 636.862V636.862L191.965 578.513L198.739 574.542Z" stroke="white" stroke-linecap="round" stroke-linejoin="round"/>
<path d="M392.941 461.816L692.718 634.9C662.166 652.485 627.531 661.74 592.279 661.74C557.027 661.74 522.392 652.485 491.839 634.9L389.858 575.991C360.856 559.222 327.99 550.289 294.49 550.068C260.991 549.847 228.01 558.345 198.789 574.729L292.642 519.838L392.941 461.816Z" stroke="white" stroke-linecap="round" stroke-linejoin="round"/>
<path d="M389.809 575.804L392.191 577.158L389.809 575.804Z" stroke="white" stroke-linecap="round" stroke-linejoin="round"/>
<path d="M400.6 656.903C392.218 623.988 392.668 589.444 401.904 556.758C411.139 524.072 428.834 494.401 453.202 470.739L484.175 583.746C493.391 617.444 493.531 652.98 484.58 686.749C475.629 720.519 457.905 751.32 433.208 776.029V776.029L402.655 664.471L400.6 656.903Z" stroke="white" stroke-linecap="round" stroke-linejoin="round"/>
<path d="M341.973 440.187L586.765 195.395L587.232 197.263C596.139 230.779 596.08 266.046 587.061 299.532C578.042 333.017 560.38 363.544 535.845 388.052L451.241 472.701C427.553 496.378 410.429 525.808 401.551 558.102C392.672 590.396 392.345 624.444 400.601 656.903L371.871 552.025L341.973 440.187Z" stroke="white" stroke-linecap="round" stroke-linejoin="round"/>
<path d="M451.289 472.702L453.205 470.786C452.531 471.388 451.891 472.028 451.289 472.702V472.702Z" stroke="white" stroke-miterlimit="10"/>
<path d="M500.338 281.026C476.011 304.766 445.847 321.662 412.895 330.005C379.943 338.347 345.373 337.841 312.68 328.536L395.087 245.241C445.073 194.694 517.95 176.989 586.623 195.395L505.711 275.466L500.338 281.026Z" stroke="white" stroke-miterlimit="10"/>
<path d="M341.925 440.187L7.53125 350.586L8.88591 349.231C33.4633 324.765 64.036 307.184 97.5436 298.248C131.051 289.311 166.318 289.333 199.815 298.31L315.437 329.283C347.796 337.965 381.856 338.081 414.274 329.62C446.691 321.159 476.35 304.413 500.339 281.025L423.865 358.341L341.925 440.187Z" stroke="white" stroke-miterlimit="10"/>
<path d="M315.436 329.283L312.82 328.582L315.436 329.283Z" stroke="white" stroke-miterlimit="10"/>
<path d="M124.93 382.633C157.646 391.842 187.351 409.526 211.042 433.897C234.732 458.268 251.567 488.462 259.846 521.426L146.466 491.715C112.695 482.86 81.8663 465.232 57.1058 440.619C32.3453 416.006 14.5335 385.284 5.47656 351.566L117.595 380.904L124.93 382.633Z" stroke="white" stroke-linecap="round" stroke-linejoin="round"/>
<path d="M341.973 440.187L431.574 774.628C397.531 765.426 366.501 747.443 341.594 722.478C316.686 697.513 298.774 666.442 289.651 632.377L259.145 518.623C250.493 486.26 233.57 456.705 210.038 432.862C186.507 409.019 157.176 391.709 124.93 382.633L230.088 410.149L341.973 440.187Z" stroke="white" stroke-linecap="round" stroke-linejoin="round"/>
<path d="M259.145 518.623L259.845 521.239C259.612 520.352 259.378 519.511 259.145 518.623Z" stroke="white" stroke-linecap="round" stroke-linejoin="round"/>
<path d="M209.393 583.605C226.74 554.437 251.465 530.353 281.079 513.779C310.693 497.204 344.151 488.724 378.085 489.192L320.064 590.987C302.763 621.332 277.742 646.56 247.541 664.11C217.339 681.659 183.032 690.907 148.102 690.912V690.912L205.422 590.379L209.393 583.605Z" stroke="white" stroke-linecap="round" stroke-linejoin="round"/>
<path d="M321.229 388.893H667.395L666.461 390.574C649.052 420.558 624.074 445.443 594.027 462.742C563.98 480.04 529.917 489.145 495.247 489.145H375.56C342.049 489.129 309.11 497.828 279.977 514.389C250.844 530.949 226.519 554.802 209.391 583.605L263.254 489.145L321.229 388.893Z" stroke="white" stroke-linecap="round" stroke-linejoin="round"/>
<path d="M545.747 388.332C511.786 387.896 478.539 378.516 449.358 361.137C420.176 343.758 396.092 318.994 379.531 289.34L496.742 288.686C567.844 288.313 631.845 327.321 667.396 388.892L553.549 388.285H545.747V388.332Z" stroke="white" stroke-miterlimit="10"/>
<path d="M321.185 388.892L148.102 89.0684H150.017C184.693 89.1344 218.744 98.3092 248.76 115.674C278.775 133.039 303.702 157.985 321.044 188.013L380.888 291.676C397.615 320.71 421.612 344.89 450.518 361.838C479.424 378.785 512.244 387.916 545.749 388.332L437.041 388.939L321.185 388.892Z" stroke="white" stroke-miterlimit="10"/>
<path d="M380.886 291.677L379.531 289.341C379.998 290.135 380.419 290.929 380.886 291.677Z" stroke="white" stroke-miterlimit="10"/>
<path d="M208.457 194.694C225.067 224.322 233.572 257.807 233.112 291.771C232.653 325.735 223.246 358.977 205.841 388.145L146.698 286.958C129.057 256.81 119.713 222.529 119.614 187.599C119.516 152.669 128.667 118.335 146.137 88.0879V88.0879L204.533 187.967L208.457 194.694Z" stroke="white" stroke-linecap="round" stroke-linejoin="round"/>
<path d="M321.182 388.893L148.099 688.717C130.549 658.143 121.334 623.498 121.375 588.246C121.416 552.994 130.712 518.37 148.333 487.837L207.195 385.95C223.963 356.939 232.896 324.066 233.117 290.559C233.338 257.052 224.84 224.063 208.456 194.834L263.348 288.687L321.182 388.893Z" stroke="white" stroke-linecap="round" stroke-linejoin="round"/>
<path d="M207.195 385.949L205.84 388.285C206.307 387.351 206.727 386.557 207.195 385.949Z" stroke="white" stroke-linecap="round" stroke-linejoin="round"/>
<path d="M126.052 396.554C158.972 388.193 193.515 388.658 226.198 397.901C258.881 407.144 288.551 424.839 312.216 449.203L199.21 480.129C165.523 489.357 129.995 489.507 96.232 480.564C62.469 471.621 31.6736 453.903 6.97266 429.209V429.209L118.531 398.657L126.052 396.554Z" stroke="white" stroke-linecap="round" stroke-linejoin="round"/>
<path d="M342.814 337.926L587.606 582.718L585.737 583.232C552.221 592.125 516.957 592.059 483.474 583.04C449.992 574.022 419.465 556.368 394.949 531.844L310.346 447.288C286.67 423.567 257.228 406.416 224.915 397.521C192.603 388.626 158.531 388.293 126.051 396.555L230.929 367.871L342.814 337.926Z" stroke="white" stroke-linecap="round" stroke-linejoin="round"/>
<path d="M310.344 447.288L312.259 449.157L310.344 447.288Z" stroke="white" stroke-miterlimit="10"/>
<path d="M501.974 496.293C478.266 471.974 461.39 441.834 453.048 408.911C444.707 375.988 445.195 341.448 454.464 308.774L537.758 391.182C588.305 441.215 606.011 514.045 587.605 582.718L507.533 501.805L501.974 496.293Z" stroke="white" stroke-miterlimit="10"/>
<path d="M342.812 337.925L432.414 3.53125L433.769 4.88599C458.243 29.4487 475.833 60.0109 484.778 93.5115C493.723 127.012 493.709 162.275 484.736 195.768L453.763 311.204C445.057 343.557 444.924 377.62 453.377 410.041C461.831 442.461 478.579 472.122 501.974 496.106L424.799 419.865L342.812 337.925Z" stroke="white" stroke-miterlimit="10"/>
<path d="M453.766 311.204L454.466 308.588C454.233 309.662 453.952 310.55 453.766 311.204Z" stroke="white" stroke-miterlimit="10"/>
<path d="M400.415 120.929C391.198 153.613 373.528 183.29 349.185 206.968C324.843 230.646 294.688 247.489 261.762 255.798L291.473 142.465C300.32 108.69 317.944 77.8565 342.559 53.0946C367.173 28.3327 397.9 10.5238 431.622 1.47559V1.47559L402.284 113.594L400.415 120.929Z" stroke="white" stroke-linecap="round" stroke-linejoin="round"/>
<path d="M342.812 337.925L8.41797 427.527C17.6068 393.484 35.5805 362.454 60.5382 337.546C85.4959 312.637 116.561 294.725 150.622 285.603L264.375 255.144C296.741 246.487 326.299 229.562 350.149 206.032C373.999 182.502 391.32 153.175 400.413 120.929L372.85 226.087L342.812 337.925Z" stroke="white" stroke-linecap="round" stroke-linejoin="round"/>
<path d="M264.378 255.145L261.762 255.845L264.378 255.145Z" stroke="white" stroke-linecap="round" stroke-linejoin="round"/>
<path d="M199.394 205.392C228.618 222.727 252.752 247.464 269.361 277.107C285.97 306.749 294.467 340.248 293.994 374.224L192.199 316.202C161.86 298.9 136.638 273.877 119.097 243.675C101.555 213.473 92.3165 179.167 92.3203 144.24V144.24L192.807 201.514L199.394 205.392Z" stroke="white" stroke-linecap="round" stroke-linejoin="round"/>
<path d="M394.154 317.183V663.396L392.473 662.415C362.5 645.002 337.628 620.021 320.346 589.973C303.063 559.925 293.976 525.864 293.995 491.201V371.514C294.008 338.01 285.307 305.079 268.747 275.954C252.186 246.829 228.334 222.512 199.535 205.392L293.995 259.209L394.154 317.183Z" stroke="white" stroke-linecap="round" stroke-linejoin="round"/>
<path d="M293.996 371.515V374.224C293.996 373.337 293.996 372.402 293.996 371.515Z" stroke="white" stroke-miterlimit="10"/>
<path d="M394.666 541.701C395.11 507.748 404.494 474.511 421.873 445.338C439.251 416.166 464.011 392.089 493.658 375.532L494.312 492.696C494.685 563.798 455.724 627.846 394.152 663.397L394.713 549.55V541.701H394.666Z" stroke="white" stroke-miterlimit="10"/>
<path d="M394.152 317.184L693.929 144.101V146.016C693.86 180.686 684.683 214.729 667.318 244.736C649.953 274.743 625.009 299.662 594.985 316.997L491.322 376.84C462.303 393.585 438.136 417.586 421.191 446.488C404.246 475.39 395.105 508.201 394.666 541.701L394.059 432.993L394.152 317.184Z" stroke="white" stroke-miterlimit="10"/>
<path d="M491.324 376.84L493.66 375.485C492.866 375.953 492.118 376.607 491.324 376.84Z" stroke="white" stroke-miterlimit="10"/>
<path d="M588.307 204.458C558.671 221.052 525.186 229.543 491.224 229.076C457.262 228.608 424.023 219.198 394.855 201.795L496.042 142.652C526.198 125.028 560.48 115.696 595.409 115.606C630.337 115.516 664.667 124.67 694.913 142.138V142.138L595.034 200.487L588.307 204.458Z" stroke="white" stroke-linecap="round" stroke-linejoin="round"/>
<path d="M394.109 317.184L94.2852 144.1C124.833 126.502 159.47 117.238 194.725 117.238C229.98 117.238 264.616 126.502 295.164 144.1L397.146 203.01C426.156 219.777 459.03 228.711 492.537 228.932C526.044 229.153 559.032 220.654 588.261 204.271L494.409 259.116L394.109 317.184Z" stroke="white" stroke-linecap="round" stroke-linejoin="round"/>
<path d="M397.191 203.197L394.855 201.842L397.191 203.197Z" stroke="white" stroke-linecap="round" stroke-linejoin="round"/>
<path d="M386.446 122.05C394.817 154.966 394.363 189.507 385.128 222.191C375.893 254.875 358.203 284.546 333.844 308.213L302.871 195.16C293.635 161.464 293.486 125.922 302.438 92.1492C311.39 58.3759 329.124 27.5749 353.838 2.87695L384.39 114.482L386.446 122.05Z" stroke="white" stroke-linecap="round" stroke-linejoin="round"/>
<path d="M445.073 338.813L200.281 583.606L199.767 581.737C190.87 548.221 190.933 512.956 199.952 479.472C208.97 445.989 226.628 415.462 251.155 390.949L335.758 306.533C359.458 282.854 376.593 253.418 385.48 221.115C394.366 188.812 394.699 154.754 386.445 122.284L415.128 227.115L445.073 338.813Z" stroke="white" stroke-linecap="round" stroke-linejoin="round"/>
<path d="M335.759 306.532L333.844 308.448C334.517 307.845 335.156 307.205 335.759 306.532V306.532Z" stroke="white" stroke-miterlimit="10"/>
<path d="M286.706 498.068C311.022 474.356 341.161 457.474 374.083 449.124C407.005 440.775 441.547 441.253 474.225 450.511L391.817 533.853C341.784 584.399 268.954 602.105 200.281 583.699L281.194 503.627L286.706 498.068Z" stroke="white" stroke-miterlimit="10"/>
<path d="M445.075 338.813L779.469 428.415L778.114 429.77C753.546 454.236 722.982 471.817 689.482 480.754C655.981 489.69 620.721 489.669 587.232 480.69L471.516 449.718C439.163 441.065 405.116 440.973 372.716 449.45C340.317 457.926 310.678 474.681 286.707 498.069L363.135 420.754L445.075 338.813Z" stroke="white" stroke-miterlimit="10"/>
<path d="M471.516 449.717L474.132 450.418L471.516 449.717Z" stroke="white" stroke-miterlimit="10"/>
<path d="M662.119 396.367C629.425 387.175 599.736 369.519 576.047 345.182C552.359 320.846 535.511 290.691 527.203 257.761L640.536 287.472C674.32 296.311 705.163 313.933 729.934 338.547C754.704 363.162 772.52 393.893 781.572 427.621L669.454 398.283L662.119 396.367Z" stroke="white" stroke-linecap="round" stroke-linejoin="round"/>
<path d="M445.074 338.766L355.473 4.37207C389.514 13.5779 420.541 31.5629 445.448 56.5273C470.355 81.4917 488.269 112.56 497.396 146.623L527.855 260.376C536.515 292.743 553.447 322.3 576.987 346.142C600.526 369.985 629.864 387.294 662.117 396.367L556.913 368.804L445.074 338.766Z" stroke="white" stroke-linecap="round" stroke-linejoin="round"/>
<path d="M527.857 260.377L527.156 257.761C527.577 258.602 527.577 259.489 527.857 260.377Z" stroke="white" stroke-linecap="round" stroke-linejoin="round"/>
<path d="M577.609 195.395C560.254 224.587 535.508 248.687 505.866 265.263C476.224 281.839 442.735 290.305 408.777 289.808L466.845 188.014C484.135 157.669 509.146 132.44 539.341 114.89C569.535 97.3392 603.836 88.0922 638.761 88.0879V88.0879L581.487 188.574L577.609 195.395Z" stroke="white" stroke-linecap="round" stroke-linejoin="round"/>
<path d="M465.815 390.107H119.602L120.583 388.425C137.986 358.434 162.961 333.538 193.008 316.231C223.056 298.924 257.122 289.813 291.797 289.808H411.484C444.986 289.84 477.92 281.152 507.047 264.598C536.174 248.044 560.491 224.195 577.607 195.395L523.789 289.808L465.815 390.107Z" stroke="white" stroke-linecap="round" stroke-linejoin="round"/>
<path d="M241.297 390.621C275.256 391.041 308.502 400.415 337.679 417.796C366.855 435.177 390.928 459.95 407.466 489.613L290.302 490.267C219.2 490.64 155.153 451.632 119.602 390.061L233.495 390.668H241.297V390.621Z" stroke="white" stroke-miterlimit="10"/>
<path d="M465.815 390.107L638.945 689.931H636.982C602.307 689.862 568.259 680.68 538.251 663.306C508.242 645.932 483.327 620.976 466.002 590.94L406.111 487.323C389.391 458.29 365.403 434.108 336.506 417.153C307.609 400.198 274.798 391.055 241.297 390.621L350.005 390.014L465.815 390.107Z" stroke="white" stroke-miterlimit="10"/>
<path d="M406.113 487.323L407.468 489.659L406.113 487.323Z" stroke="white" stroke-miterlimit="10"/>
<path d="M578.587 584.306C561.977 554.677 553.472 521.193 553.932 487.229C554.391 453.265 563.798 420.023 581.204 390.854L640.346 492.042C657.978 522.193 667.317 556.473 667.416 591.401C667.514 626.329 658.368 660.662 640.907 690.912V690.912L582.512 591.033L578.587 584.306Z" stroke="white" stroke-linecap="round" stroke-linejoin="round"/>
<path d="M465.816 390.107L638.946 90.2832C656.496 120.857 665.711 155.502 665.67 190.754C665.629 226.006 656.333 260.63 638.713 291.163L579.85 393.144C563.083 422.154 554.149 455.028 553.928 488.535C553.707 522.042 562.205 555.03 578.589 584.259L523.697 490.407L465.816 390.107Z" stroke="white" stroke-linecap="round" stroke-linejoin="round"/>
<path d="M579.852 393.19L581.206 390.854C580.739 391.649 580.272 392.396 579.852 393.19Z" stroke="white" stroke-linecap="round" stroke-linejoin="round"/>
<path d="M660.949 382.399C628.041 390.787 593.504 390.35 560.819 381.131C528.135 371.912 498.459 354.237 474.785 329.89L587.838 298.964C621.525 289.736 657.053 289.586 690.816 298.529C724.579 307.473 755.374 325.191 780.075 349.884V349.884L668.517 380.437L660.949 382.399Z" stroke="white" stroke-linecap="round" stroke-linejoin="round"/>
<path d="M444.187 441.074L199.395 196.235L201.263 195.768C234.779 186.871 270.044 186.934 303.528 195.953C337.012 204.972 367.538 222.628 392.052 247.156L476.701 331.759C500.38 355.459 529.817 372.594 562.119 381.481C594.422 390.367 628.48 390.7 660.95 382.446L556.119 411.176L444.187 441.074Z" stroke="white" stroke-linecap="round" stroke-linejoin="round"/>
<path d="M476.7 331.712L474.785 329.797C475.439 330.451 476.186 331.105 476.7 331.712Z" stroke="white" stroke-miterlimit="10"/>
<path d="M285.074 282.661C308.754 306.968 325.612 337.085 333.953 369.979C342.293 402.874 341.821 437.385 332.584 470.039L249.242 387.632C198.695 337.646 180.99 264.815 199.396 196.096L279.514 277.055L285.074 282.661Z" stroke="white" stroke-miterlimit="10"/>
<path d="M444.232 441.074L354.724 775.469L353.323 774.114C328.853 749.539 311.269 718.967 302.333 685.458C293.396 651.95 293.42 616.681 302.402 583.185L333.375 467.609C342.052 435.246 342.171 401.184 333.719 368.761C325.268 336.339 308.536 306.669 285.164 282.66L362.433 359.134L444.232 441.074Z" stroke="white" stroke-miterlimit="10"/>
<path d="M333.283 467.609L332.582 470.225C332.816 469.338 333.049 468.45 333.283 467.609Z" stroke="white" stroke-miterlimit="10"/>
<path d="M386.632 658.07C395.851 625.382 413.521 595.7 437.862 572.015C462.204 548.329 492.357 531.476 525.286 523.154L495.574 636.534C486.719 670.305 469.091 701.134 444.478 725.894C419.866 750.655 389.143 768.467 355.426 777.524V777.524L384.717 665.638L386.632 658.07Z" stroke="white" stroke-linecap="round" stroke-linejoin="round"/>
<path d="M444.234 441.028L778.629 351.427C769.421 385.473 751.436 416.505 726.473 441.419C701.509 466.333 670.442 484.257 636.378 493.397L522.905 523.856C490.533 532.501 460.968 549.421 437.116 572.953C413.265 596.485 395.948 625.819 386.867 658.071L414.43 552.913L444.234 441.028Z" stroke="white" stroke-linecap="round" stroke-linejoin="round"/>
<path d="M522.902 523.855L525.518 523.154L522.902 523.855Z" stroke="white" stroke-linecap="round" stroke-linejoin="round"/>
<path d="M587.654 573.608C558.432 556.247 534.31 531.481 517.724 501.812C501.138 472.143 492.677 438.622 493.194 404.636L594.989 462.657C625.34 479.95 650.573 504.969 668.124 535.173C685.675 565.376 694.918 599.687 694.914 634.619L594.428 577.485L587.654 573.608Z" stroke="white" stroke-linecap="round" stroke-linejoin="round"/>
<path d="M392.895 461.817V115.604L394.577 116.585C424.582 133.984 449.486 158.965 466.795 189.023C484.103 219.081 493.207 253.161 493.194 287.846V407.532C493.181 441.036 501.882 473.968 518.443 503.093C535.004 532.218 558.855 556.534 587.654 573.655L493.194 519.791L392.895 461.817Z" stroke="white" stroke-linecap="round" stroke-linejoin="round"/>
<path d="M493.191 407.485V404.636C493.191 405.663 493.191 406.598 493.191 407.485Z" stroke="white" stroke-miterlimit="10"/>
<path d="M392.333 237.252C391.916 271.218 382.544 304.472 365.163 333.657C347.782 362.841 323.007 386.922 293.341 403.468L292.734 286.304C292.313 215.202 331.321 151.154 392.893 115.604L392.333 229.451V237.252V237.252Z" stroke="white" stroke-miterlimit="10"/>
<path d="M392.894 461.816L93.1172 634.9V632.984C93.1974 598.305 102.383 564.255 119.756 534.24C137.128 504.226 162.078 479.3 192.109 461.956L295.772 402.113C324.794 385.377 348.962 361.377 365.9 332.472C382.839 303.567 391.965 270.752 392.381 237.252L392.988 346.007L392.894 461.816Z" stroke="white" stroke-miterlimit="10"/>
<path d="M295.722 402.113L293.34 403.468C293.994 403.048 294.928 402.58 295.722 402.113Z" stroke="white" stroke-miterlimit="10"/>
<path d="M198.739 574.542C228.36 557.929 261.84 549.427 295.799 549.894C329.758 550.362 362.992 559.783 392.144 577.205L291.003 636.348C260.848 653.972 226.566 663.303 191.638 663.394C156.709 663.484 122.379 654.33 92.1328 636.862V636.862L191.965 578.513L198.739 574.542Z" stroke="white" stroke-linecap="round" stroke-linejoin="round"/>
<path d="M392.941 461.816L692.718 634.9C662.166 652.485 627.531 661.74 592.279 661.74C557.027 661.74 522.392 652.485 491.839 634.9L389.858 575.991C360.856 559.222 327.99 550.289 294.49 550.068C260.991 549.847 228.01 558.345 198.789 574.729L292.642 519.838L392.941 461.816Z" stroke="white" stroke-linecap="round" stroke-linejoin="round"/>
<path d="M389.809 575.804L392.191 577.158L389.809 575.804Z" stroke="white" stroke-linecap="round" stroke-linejoin="round"/>
<path d="M400.6 656.903C392.218 623.988 392.668 589.444 401.904 556.758C411.139 524.072 428.834 494.401 453.202 470.739L484.175 583.746C493.391 617.444 493.531 652.98 484.58 686.749C475.629 720.519 457.905 751.32 433.208 776.029V776.029L402.655 664.471L400.6 656.903Z" stroke="white" stroke-linecap="round" stroke-linejoin="round"/>
<path d="M341.973 440.187L586.765 195.395L587.232 197.263C596.139 230.779 596.08 266.046 587.061 299.532C578.042 333.017 560.38 363.544 535.845 388.052L451.241 472.701C427.553 496.378 410.429 525.808 401.551 558.102C392.672 590.396 392.345 624.444 400.601 656.903L371.871 552.025L341.973 440.187Z" stroke="white" stroke-linecap="round" stroke-linejoin="round"/>
<path d="M451.289 472.702L453.205 470.786C452.531 471.388 451.891 472.028 451.289 472.702V472.702Z" stroke="white" stroke-miterlimit="10"/>
<path d="M500.338 281.026C476.011 304.766 445.847 321.662 412.895 330.005C379.943 338.347 345.373 337.841 312.68 328.536L395.087 245.241C445.073 194.694 517.95 176.989 586.623 195.395L505.711 275.466L500.338 281.026Z" stroke="white" stroke-miterlimit="10"/>
<path d="M341.925 440.187L7.53125 350.586L8.88591 349.231C33.4633 324.765 64.036 307.184 97.5436 298.248C131.051 289.311 166.318 289.333 199.815 298.31L315.437 329.283C347.796 337.965 381.856 338.081 414.274 329.62C446.691 321.159 476.35 304.413 500.339 281.025L423.865 358.341L341.925 440.187Z" stroke="white" stroke-miterlimit="10"/>
<path d="M315.436 329.283L312.82 328.582L315.436 329.283Z" stroke="white" stroke-miterlimit="10"/>
<path d="M124.93 382.633C157.646 391.842 187.351 409.526 211.042 433.897C234.732 458.268 251.567 488.462 259.846 521.426L146.466 491.715C112.695 482.86 81.8663 465.232 57.1058 440.619C32.3453 416.006 14.5335 385.284 5.47656 351.566L117.595 380.904L124.93 382.633Z" stroke="white" stroke-linecap="round" stroke-linejoin="round"/>
<path d="M341.973 440.187L431.574 774.628C397.531 765.426 366.501 747.443 341.594 722.478C316.686 697.513 298.774 666.442 289.651 632.377L259.145 518.623C250.493 486.26 233.57 456.705 210.038 432.862C186.507 409.019 157.176 391.709 124.93 382.633L230.088 410.149L341.973 440.187Z" stroke="white" stroke-linecap="round" stroke-linejoin="round"/>
<path d="M259.145 518.623L259.845 521.239C259.612 520.352 259.378 519.511 259.145 518.623Z" stroke="white" stroke-linecap="round" stroke-linejoin="round"/>
</g>
<defs>
<filter id="filter0_d_51_561" x="0" y="0" width="787" height="787" filterUnits="userSpaceOnUse" color-interpolation-filters="sRGB">
<feFlood flood-opacity="0" result="BackgroundImageFix"/>
<feColorMatrix in="SourceAlpha" type="matrix" values="0 0 0 0 0 0 0 0 0 0 0 0 0 0 0 0 0 0 127 0" result="hardAlpha"/>
<feOffset dy="4"/>
<feGaussianBlur stdDeviation="2"/>
<feComposite in2="hardAlpha" operator="out"/>
<feColorMatrix type="matrix" values="0 0 0 0 0 0 0 0 0 0 0 0 0 0 0 0 0 0 0.25 0"/>
<feBlend mode="normal" in2="BackgroundImageFix" result="effect1_dropShadow_51_561"/>
<feBlend mode="normal" in="SourceGraphic" in2="effect1_dropShadow_51_561" result="shape"/>
</filter>
</defs>
</svg>
