<svg width="24" height="24" viewBox="0 0 24 24" fill="none" xmlns="http://www.w3.org/2000/svg">
<path fill-rule="evenodd" clip-rule="evenodd" d="M12 0C5.373 0 0 5.373 0 12C0 18.627 5.373 24 12 24C18.627 24 24 18.627 24 12C24 5.373 18.627 0 12 0ZM12 2C17.514 2 22 6.486 22 12C22 17.514 17.514 22 12 22C6.486 22 2 17.514 2 12C2 6.486 6.486 2 12 2ZM9.574 16.741H6V16.539L7.261 15.01C7.395 14.871 7.456 14.675 7.423 14.484V9.18C7.438 9.033 7.382 8.887 7.272 8.788L6.151 7.438V7.237H9.63L12.319 13.134L14.683 7.237H18V7.438L17.042 8.357C16.959 8.42 16.918 8.523 16.936 8.626V15.374C16.918 15.477 16.959 15.58 17.042 15.643L17.978 16.562V16.763H13.272V16.562L14.241 15.621C14.336 15.526 14.336 15.498 14.336 15.352V9.897L11.641 16.741H11.277L8.14 9.897V14.484C8.114 14.677 8.178 14.871 8.314 15.01L9.574 16.539V16.741V16.741Z" fill="#9FA1B9"/>
</svg>
