<svg width="300" height="250" viewBox="0 0 400 327" fill="none" xmlns="http://www.w3.org/2000/svg">
<path fill-rule="evenodd" clip-rule="evenodd" d="M191.132 31.2942C209.005 34.6503 226.715 18.1096 244.445 22.1526C262.042 26.1653 277.665 38.6755 288.096 53.405C298.372 67.9159 288.606 93.2916 302.595 104.267C329.86 125.66 388.52 107.497 399.099 140.499C408.215 168.937 345.456 172.933 333.357 200.236C323.451 222.591 354.146 252.282 340.556 272.609C327.376 292.322 295.428 285.085 272.524 291.222C254.341 296.094 236.446 300.183 218.346 305.353C198.802 310.935 180.8 321.112 160.582 323.198C137.916 325.536 111.091 332.118 92.9826 318.286C74.2285 303.96 83.8992 270.221 68.1816 252.617C50.6536 232.986 0.473726 240.463 0.00407521 214.15C-0.557018 182.713 56.9941 178.231 66.318 148.204C73.1696 126.138 33.7382 106.802 40.2229 84.6258C46.1011 64.5236 78.8255 67.6596 94.0698 53.2977C109.61 38.6566 108.631 5.28054 129.454 0.560119C152.048 -4.56192 168.362 27.0186 191.132 31.2942Z" fill="url(#paint0_linear_2546_29031)"/>
<defs>
<linearGradient id="paint0_linear_2546_29031" x1="0" y1="163.411" x2="400" y2="163.411" gradientUnits="userSpaceOnUse">
<stop stop-color="#FF3200"/>
<stop offset="1" stop-color="#FF9068"/>
</linearGradient>
</defs>
</svg>