<svg width="350" height="500" viewBox="0 0 291 230" fill="none" xmlns="http://www.w3.org/2000/svg">
<path d="M109.09 17.8492C104.656 16.8717 102.127 25.2782 107.122 27.7024C107.752 27.948 108.472 28.006 109.152 27.8658C109.831 27.7255 110.424 27.3964 110.821 26.9388C111.733 25.823 112.212 24.5206 112.199 23.1921C112.325 21.2658 111.889 18.4656 109.09 17.8492Z" fill="#031723"/>
<path d="M161.739 41.9554C156.153 38.9904 149.93 36.8569 143.375 35.6603C134.949 33.9518 126.087 34.1403 117.789 36.2043C117.775 36.2043 117.766 36.2181 117.751 36.2238C117.847 36.2067 117.947 36.2081 118.041 36.2282C118.136 36.2482 118.223 36.2862 118.295 36.3388C119.609 37.3099 120.735 38.4277 121.638 39.6566C122.934 41.446 124.641 44.8787 121.29 45.9172C119.877 46.3087 118.341 46.3296 116.912 45.977C113.151 45.057 110.53 43.1399 107.339 41.0021C107.278 40.9537 107.23 40.8949 107.201 40.83C107.172 40.7653 107.162 40.6962 107.171 40.6278C107.18 40.5593 107.208 40.4933 107.254 40.4348C107.299 40.3761 107.361 40.3265 107.434 40.2891L107.405 40.2994C102.41 43.0629 98.3533 46.7562 95.5931 51.0531C89.0907 61.2455 92.1302 71.6576 97.9211 82.0594C101.169 88.0607 105.642 93.5995 111.162 98.4549C112.363 95.7775 113.901 93.2017 115.751 90.766C119.097 86.3857 125.432 81.0129 131.728 80.1642C133.537 79.9424 135.383 80.0085 137.159 80.3589C138.935 80.7092 140.604 81.3366 142.069 82.2043C146.518 84.7607 149.794 88.9513 152.523 92.7751C154.822 85.8455 157.956 79.1062 161.885 72.6501C166.592 64.8002 173.034 57.6774 180.909 51.6166C174.616 48.2832 168.227 45.0627 161.739 41.9554ZM137.19 79.7904C129.535 73.0503 121.702 66.2066 111.598 61.9424C110.926 61.6584 111.524 60.8511 112.195 61.1374C122.435 65.466 130.293 72.3166 138.033 79.1326C138.535 79.58 137.699 80.2401 137.19 79.7916V79.7904Z" fill="#031623"/>
<path d="M120.037 11.1228C119.351 10.7594 119.345 11.0734 119.716 10.6916C119.976 10.4221 120.112 10.0909 120.102 9.75226C120.093 9.41358 119.938 9.0875 119.663 8.82744C119.166 8.52923 118.563 8.36286 117.939 8.35212C117.315 8.34138 116.703 8.48682 116.19 8.76764C116.862 8.07764 117.434 7.33359 116.839 6.45269C115.94 5.11869 113.945 5.95244 112.97 6.72294C110.599 8.38647 108.535 10.3041 106.836 12.42C106.609 12.7003 106.472 13.0198 106.437 13.3512C106.401 13.6826 106.469 14.0159 106.632 14.3221C106.869 14.5429 107.168 14.7174 107.504 14.8317C107.841 14.946 108.206 14.9972 108.572 14.9811C111.846 14.9068 115.1 14.5524 118.277 13.9242C119.295 13.7609 120.691 13.7322 120.916 12.7478C120.985 12.4387 120.939 12.1205 120.783 11.8319C120.627 11.5434 120.368 11.297 120.037 11.1228Z" fill="#031723"/>
<path d="M118.292 36.34C118.199 36.2733 118.084 36.2294 117.96 36.2136C117.836 36.1979 117.709 36.2111 117.595 36.2514C113.983 37.1912 110.565 38.5434 107.449 40.265L107.423 40.2856C107.35 40.3229 107.288 40.3727 107.242 40.4314C107.197 40.4899 107.168 40.5559 107.159 40.6242C107.15 40.6926 107.161 40.7619 107.19 40.8266C107.219 40.8914 107.266 40.9502 107.328 40.9987C110.708 43.2619 115.502 46.7659 120.132 46.1645C125.951 45.4124 122.593 39.56 118.292 36.34Z" fill="#031723"/>
<path d="M102.337 33.4707C102.064 33.45 94.694 34.8749 90.5516 30.912C87.2517 27.7564 88.3269 21.9972 95.7896 18.3413C96.4342 18.0251 95.8376 17.2109 95.1916 17.5363C87.08 21.597 86.1779 27.608 89.213 31.05C90.4825 32.3427 92.1571 33.3508 94.0711 33.9747C95.9852 34.5985 98.0721 34.8166 100.126 34.6069C80.3186 46.4174 77.282 68.6182 89.9405 86.1775C93.355 90.5765 97.0591 94.8309 101.038 98.923H102.512C98.723 95.075 95.1805 91.0795 91.8975 86.9515C78.1332 69.2461 81.145 45.885 102.634 34.347C102.737 34.2906 102.816 34.2102 102.859 34.117C102.902 34.0238 102.908 33.9222 102.876 33.8264C102.843 33.7305 102.774 33.6449 102.678 33.5811C102.581 33.5175 102.462 33.479 102.337 33.4707Z" fill="#031723"/>
<path d="M66.3038 195.137C66.2078 195.103 66.1045 195.083 66.0041 195.054C65.1849 194.825 64.2988 194.792 63.4561 194.958C62.6133 195.125 61.8509 195.483 61.2637 195.989H67.721C67.3381 195.622 66.8531 195.331 66.3038 195.137Z" fill="031723"/>
<path d="M225.02 108.98C222.744 109.226 220.02 109.325 217.998 108.302C217.056 107.83 216.381 107.088 216.114 106.232C216.047 105.856 216.08 105.473 216.213 105.107C216.343 104.742 216.57 104.402 216.879 104.111C218.542 102.328 221.648 100.956 224.369 99.8717C221.512 99.8637 148.526 99.8625 148.526 99.8625C148.367 100.438 148.38 100.513 148.261 100.638C147.711 102.492 146.885 104.288 145.798 105.989C145.016 107.104 143.445 108.247 141.724 107.653C141.098 107.379 140.548 107.01 140.105 106.567C139.663 106.124 139.336 105.615 139.144 105.071C138.78 104.16 138.482 103.234 138.254 102.296C138.117 104.032 137.788 106.416 136.231 107.622C135.58 108.146 134.692 108.445 133.763 108.455C132.833 108.464 131.937 108.183 131.268 107.672C130.175 106.597 129.407 105.338 129.022 103.992C128.724 103.263 128.476 102.522 128.278 101.773C127.832 103.68 126.801 105.471 125.275 106.99C124.293 107.916 122.535 108.514 121.291 107.499C120.832 107.074 120.505 106.569 120.337 106.027C119.684 104.015 119.517 101.923 119.845 99.8625H111.364C111.273 99.8618 111.184 99.8447 111.102 99.8125C111.021 99.7803 110.951 99.7338 110.896 99.6767C110.841 99.6195 110.803 99.5532 110.786 99.4827C110.768 99.4123 110.771 99.3396 110.795 99.2703C110.844 99.1553 110.904 99.0403 110.955 98.9253H84.5059C84.3876 98.9216 84.2711 98.9486 84.1742 99.0022C84.0773 99.0558 84.0051 99.1329 83.969 99.222C83.8715 99.337 84.3924 98.2353 64.9551 142.11H128.111C128.267 142.111 128.416 142.161 128.527 142.248C128.637 142.335 128.7 142.454 128.702 142.577C128.715 143.99 128.514 162.026 128.702 181.194C128.698 181.317 128.635 181.434 128.525 181.522C128.415 181.608 128.266 181.659 128.111 181.661H47.4325C42.4652 192.876 53.8011 167.304 41.3477 195.395C41.3246 195.464 41.322 195.537 41.3397 195.607C41.3575 195.678 41.3953 195.744 41.4503 195.801C41.5053 195.858 41.576 195.905 41.6571 195.936C41.7381 195.968 41.8273 195.985 41.9181 195.986H52.6851C50.085 193.216 51.8121 189.076 52.2937 186.09C52.3868 185.5 53.5712 185.495 53.4766 186.09C52.9528 189.367 51.185 193.722 54.2405 195.986H59.4785C60.8433 195.096 62.3463 193.551 65.5182 193.982C66.2708 194.084 66.9855 194.318 67.6109 194.664C68.2363 195.01 68.7569 195.462 69.1353 195.986H190.859C190.989 195.983 191.112 195.948 191.216 195.886C191.317 195.824 191.393 195.739 191.431 195.641C192.759 192.404 196.918 183.256 197.527 181.881H192.221C192.07 181.875 191.926 181.823 191.821 181.736C191.716 181.648 191.658 181.533 191.658 181.414C191.658 181.293 191.716 181.178 191.821 181.09C191.926 181.003 192.07 180.951 192.221 180.946C192.221 180.946 197.605 180.946 197.945 180.936L220.442 130.159C220.263 130.121 220.08 130.091 219.908 130.044C219.758 130.009 219.633 129.929 219.556 129.822C219.479 129.715 219.457 129.589 219.495 129.469L228.859 108.332C227.601 108.621 226.318 108.837 225.02 108.98Z" fill="031723"/>
<path d="M192.822 199.572V223.767C192.83 223.887 192.895 224 193.006 224.083C193.116 224.166 193.262 224.212 193.413 224.212C193.566 224.212 193.711 224.166 193.822 224.083C193.932 224 193.998 223.887 194.005 223.767V199.572C193.998 199.453 193.932 199.339 193.822 199.256C193.711 199.173 193.566 199.127 193.413 199.127C193.262 199.127 193.116 199.173 193.006 199.256C192.895 199.339 192.83 199.453 192.822 199.572Z" fill="031723"/>
<path d="M247.119 103.919C246.075 101.423 244.596 99.0562 242.72 96.8864C239.314 92.8518 235.639 88.9629 231.712 85.2357C230.278 90.689 229.042 94.5208 227.617 99.5187C227.546 99.7706 227.294 99.8522 226.965 99.8637C226.092 99.8902 225.219 99.8913 224.346 99.8856C221.694 100.948 218.503 102.365 216.875 104.111C216.567 104.403 216.34 104.742 216.209 105.107C216.076 105.473 216.043 105.856 216.11 106.232C216.377 107.088 217.053 107.83 217.994 108.302C220.016 109.331 222.742 109.222 225.016 108.98C226.312 108.84 227.594 108.626 228.853 108.34L219.488 129.477C219.45 129.597 219.472 129.723 219.549 129.83C219.626 129.937 219.752 130.017 219.901 130.052C220.956 130.382 222.101 130.489 223.223 130.363C224.346 130.236 225.409 129.88 226.303 129.329C226.184 129.922 226.36 130.528 226.794 131.022C227.227 131.515 227.886 131.857 228.631 131.974C230.066 132.149 230.914 131.185 231.565 130.334C231.793 130.035 232.007 129.728 232.206 129.414C232.215 130.363 232.558 131.291 233.196 132.095C234.562 133.384 236.341 131.894 236.937 130.853C237.628 129.646 242.729 120.558 244.514 117.197C246.736 113.038 248.626 108.438 247.119 103.919ZM232.336 107.382L236.138 105.859C236.814 105.586 237.414 106.393 236.734 106.664L232.934 108.187C232.256 108.462 231.658 107.655 232.336 107.382ZM234.63 116.986L231.838 121.661C231.512 122.206 230.494 121.73 230.82 121.189C231.749 119.631 232.681 118.073 233.612 116.515C233.935 115.969 234.955 116.444 234.63 116.986ZM239.151 116.986C238.128 118.843 237.104 120.701 236.08 122.559C235.775 123.11 234.756 122.634 235.061 122.087L238.134 116.515C238.434 115.964 239.454 116.44 239.151 116.986Z" fill="#031723"/>
<path d="M228.891 136V194.695C228.898 194.815 228.963 194.928 229.074 195.011C229.185 195.094 229.33 195.14 229.481 195.14C229.634 195.14 229.78 195.094 229.89 195.011C230.001 194.928 230.066 194.815 230.074 194.695V136C230.066 135.881 230.001 135.767 229.89 135.684C229.78 135.601 229.634 135.555 229.481 135.555C229.33 135.555 229.185 135.601 229.074 135.684C228.963 135.767 228.898 135.881 228.891 136Z" fill="031723"/>
<path d="M41.3213 204.251V223.767C41.3289 223.887 41.3945 224 41.5045 224.083C41.6146 224.166 41.7608 224.212 41.9127 224.212C42.0648 224.212 42.2109 224.166 42.321 224.083C42.431 224 42.4966 223.887 42.5042 223.767V204.251C42.4966 204.132 42.431 204.018 42.321 203.935C42.2109 203.852 42.0648 203.806 41.9127 203.806C41.7608 203.806 41.6146 203.852 41.5045 203.935C41.3945 204.018 41.3289 204.132 41.3213 204.251Z" fill="031723"/>
<path d="M128.702 142.579C128.7 142.456 128.638 142.338 128.527 142.25C128.417 142.163 128.267 142.114 128.111 142.112H37.7558C37.5998 142.115 37.4508 142.164 37.3405 142.252C37.2302 142.338 37.1672 142.456 37.165 142.579V181.196C37.1658 181.321 37.2282 181.439 37.3389 181.526C37.4495 181.614 37.5994 181.663 37.7558 181.663C60.9674 181.636 127.71 181.685 127.9 181.663C128.831 181.578 128.709 181.368 128.705 180.465C128.645 172.308 128.767 149.736 128.702 142.579Z" fill="#031723"/>
<path d="M236.933 58.075C236.587 50.8588 231.24 46.3795 225.983 45.425C223.683 45.0179 221.281 45.1887 219.11 45.9138C216.396 46.8196 213.937 48.1442 211.88 49.81C210.735 48.1933 209.117 46.817 207.161 45.7965C205.204 44.776 202.968 44.141 200.637 43.945C185.505 43.0422 168.605 61.5952 161.901 72.6421C157.972 79.0983 154.838 85.8375 152.539 92.7671C154.057 94.8648 155.41 97.0339 156.591 99.2623C156.615 99.3316 156.617 99.4044 156.6 99.4748C156.583 99.5453 156.545 99.6116 156.489 99.6688C156.434 99.7258 156.364 99.7722 156.283 99.8043C156.201 99.8362 156.111 99.853 156.021 99.8534C195.801 99.8534 226.984 99.8718 227.118 99.843C227.236 99.8399 227.349 99.8054 227.44 99.7451C227.531 99.6848 227.592 99.6023 227.617 99.5107C229.642 92.414 233.001 82.3147 236.354 64.9302C236.82 62.6647 237.013 60.3694 236.933 58.075Z" fill="031723"/>
<path d="M207.098 54.4756C207.332 55.0506 208.476 54.8022 208.238 54.2272L206.436 49.8572C206.201 49.2822 205.058 49.5306 205.295 50.1056L207.098 54.4756Z" fill="#FF623B"/>
<path d="M156.591 99.2703C154.614 95.5951 152.224 92.0674 149.45 88.7294C147.516 86.2187 145.021 84.0076 142.085 82.2043C140.62 81.3366 138.951 80.7092 137.175 80.3588C135.399 80.0085 133.553 79.9423 131.744 80.1642C125.448 81.0129 119.125 86.365 115.766 90.7661C113.735 93.4544 112.068 96.305 110.795 99.2703C110.771 99.3397 110.768 99.4122 110.786 99.4827C110.803 99.5531 110.841 99.6194 110.896 99.6766C110.95 99.7338 111.021 99.7802 111.102 99.8125C111.183 99.8447 111.273 99.8619 111.364 99.8626H119.848C119.524 101.923 119.691 104.014 120.34 106.027C120.508 106.569 120.835 107.074 121.294 107.499C122.538 108.514 124.296 107.916 125.278 106.99C126.804 105.472 127.836 103.681 128.282 101.775C128.48 102.525 128.729 103.266 129.026 103.995C129.411 105.34 130.179 106.599 131.272 107.675C131.941 108.185 132.838 108.466 133.767 108.457C134.697 108.447 135.584 108.148 136.235 107.624C137.781 106.428 138.118 104.072 138.258 102.298C138.488 103.236 138.785 104.162 139.148 105.073C139.34 105.617 139.667 106.126 140.11 106.569C140.553 107.012 141.103 107.381 141.728 107.655C143.445 108.25 145.016 107.106 145.802 105.991C146.887 104.289 147.714 102.492 148.264 100.637C148.172 100.711 148.053 100.761 147.922 100.777C147.792 100.794 147.659 100.776 147.542 100.728C147.426 100.679 147.333 100.602 147.276 100.507C147.221 100.413 147.205 100.307 147.231 100.205C147.874 97.9814 148.268 95.7172 148.409 93.4387C148.446 92.8384 149.629 92.8372 149.592 93.4387C149.466 95.5995 149.108 97.7481 148.524 99.8614C151.306 99.8281 151.434 99.7913 156.019 99.8614C156.111 99.8614 156.199 99.8448 156.282 99.813C156.364 99.7811 156.435 99.7348 156.49 99.6776C156.546 99.6205 156.584 99.5539 156.601 99.4833C156.618 99.4127 156.614 99.3398 156.591 99.2703ZM137.586 95.3603C137.531 94.0401 137.478 92.7199 137.426 91.3997C137.401 90.7971 138.59 90.7994 138.609 91.3997L138.769 95.3603C138.793 95.9641 137.61 95.9606 137.586 95.3615V95.3603ZM127.277 95.3603C127.247 94.0401 127.247 92.7199 127.277 91.3997C127.285 91.2798 127.35 91.1666 127.46 91.0838C127.57 91.001 127.717 90.9549 127.868 90.9549C128.02 90.9549 128.167 91.001 128.277 91.0838C128.387 91.1666 128.452 91.2798 128.46 91.3997C128.489 92.7199 128.489 94.0401 128.46 95.3603C128.452 95.4803 128.387 95.5934 128.277 95.6762C128.167 95.759 128.02 95.8051 127.868 95.8051C127.717 95.8051 127.57 95.759 127.46 95.6762C127.35 95.5934 127.285 95.4803 127.277 95.3603Z" fill="#031723"/>
<path d="M256.854 223.767C256.861 223.887 256.926 224 257.037 224.083C257.146 224.166 257.293 224.212 257.444 224.212C257.597 224.212 257.743 224.166 257.853 224.083C257.964 224 258.029 223.887 258.037 223.767V199.259C258.035 199.136 257.971 199.018 257.86 198.93C257.75 198.843 257.6 198.792 257.444 198.791H216.896C216.739 198.792 216.591 198.843 216.48 198.93C216.37 199.018 216.307 199.136 216.306 199.259V223.767C216.313 223.887 216.378 224 216.489 224.083C216.598 224.166 216.745 224.212 216.896 224.212C217.049 224.212 217.195 224.166 217.305 224.083C217.416 224 217.481 223.887 217.489 223.767V199.732L256.854 199.746V223.767Z" fill="#59DFFD"/>
<path d="M87.3291 128.728V139.673C87.3367 139.793 87.4023 139.907 87.5123 139.99C87.6224 140.072 87.7687 140.118 87.9206 140.118C88.0726 140.118 88.2187 140.072 88.3288 139.99C88.439 139.907 88.5044 139.793 88.512 139.673V128.748C88.118 128.776 87.7214 128.768 87.3291 128.728Z" fill="#031723"/>
<path d="M188.139 111.827L198.428 131.446L213.965 126.356C213.587 125.634 204.798 108.891 203.677 106.736L188.139 111.827Z" fill="031723"/>
<path d="M215.303 126.483L204.564 106.006C204.453 105.795 204.161 105.573 203.836 105.679L199.505 107.098L184.846 108.427C184.555 108.453 184.216 108.62 184.255 108.893C184.617 111.384 187.456 130.915 187.456 130.915C187.49 131.145 187.701 131.414 188.047 131.382C189.911 131.213 195.216 130.718 196.7 130.577L197.535 132.172C197.645 132.382 197.939 132.605 198.262 132.498C215.946 126.705 214.884 127.063 214.974 127.005C215.044 126.993 215.108 126.969 215.165 126.935C215.22 126.9 215.267 126.856 215.298 126.807C215.33 126.756 215.347 126.701 215.347 126.645C215.348 126.589 215.334 126.533 215.303 126.483ZM198.425 131.446L188.136 111.827L203.674 106.736L213.962 126.356L198.425 131.446Z" fill="#031723"/>
<path d="M195.797 116.111C198.223 115.291 200.656 114.472 203.128 113.741C203.833 113.531 203.528 112.628 202.813 112.839C200.245 113.598 197.721 114.449 195.199 115.304C194.502 115.539 195.105 116.344 195.797 116.111Z" fill="#FF623B"/>
<path d="M197.615 120.189C200.041 119.369 202.473 118.55 204.945 117.819C205.651 117.609 205.346 116.705 204.631 116.917C202.063 117.676 199.539 118.527 197.019 119.381C196.32 119.617 196.923 120.422 197.615 120.189Z" fill="#FF623B"/>
<path d="M199.965 123.936C202.39 123.116 204.823 122.297 207.295 121.565C208.001 121.357 207.695 120.452 206.979 120.664C204.412 121.424 201.887 122.274 199.367 123.128C198.67 123.364 199.271 124.17 199.965 123.936Z" fill="#FF623B"/>
<path d="M90.6872 112.101C87.3102 110.767 83.7513 112.216 81.9994 114.723C77.0059 121.853 83.1183 130.045 89.612 128.594C97.2973 126.877 98.0423 115.006 90.6872 112.101ZM87.3291 125.97V118.495C87.3367 118.375 87.4021 118.261 87.5123 118.179C87.6224 118.096 87.7685 118.05 87.9206 118.05C88.0725 118.05 88.2187 118.096 88.3288 118.179C88.4388 118.261 88.5044 118.375 88.512 118.495V125.97C88.5044 126.089 88.4388 126.203 88.3288 126.286C88.2187 126.369 88.0725 126.415 87.9206 126.415C87.7685 126.415 87.6224 126.369 87.5123 126.286C87.4021 126.203 87.3367 126.089 87.3291 125.97Z" fill="#031723"/>
<path d="M206.406 159.275C157.8 159.897 160.155 158.815 159.618 159.634L142.715 177.804C143.151 177.653 140.662 177.704 189.265 177.704C189.362 177.708 189.457 177.73 189.543 177.769C189.627 177.808 189.698 177.862 189.751 177.927C189.805 177.992 189.837 178.066 189.847 178.143C189.856 178.22 189.842 178.297 189.806 178.37C190.456 177.711 194.74 173.07 206.917 159.983C207.231 159.684 206.815 159.275 206.406 159.275Z" fill="#031623"/>
<path d="M189.264 177.7C139.986 177.7 143.18 177.666 142.806 177.765C142.524 177.858 143.644 177.42 134.357 181.201C134.249 181.254 134.166 181.333 134.119 181.427C134.072 181.521 134.064 181.624 134.097 181.721C134.129 181.818 134.2 181.905 134.3 181.968C134.399 182.031 134.521 182.067 134.648 182.071H180.808C181.019 182.071 180.427 182.243 189.555 178.572C189.663 178.519 189.747 178.44 189.795 178.345C189.842 178.252 189.849 178.149 189.817 178.051C189.785 177.953 189.714 177.867 189.614 177.804C189.515 177.741 189.392 177.705 189.264 177.7Z" fill="#031723"/>
<path d="M177.064 166.671C173.402 169.328 170.133 171.487 169.945 171.687C169.895 171.727 169.858 171.775 169.833 171.827C169.807 171.88 169.796 171.936 169.799 171.992C169.804 172.048 169.821 172.103 169.853 172.153C169.885 172.203 169.93 172.248 169.984 172.284C170.285 172.579 170.517 172.53 177.22 172.48C177.376 172.478 177.524 172.429 177.634 172.341C177.745 172.254 177.809 172.137 177.812 172.014C177.875 170.343 177.987 168.672 178.074 167.001C178.071 166.91 178.035 166.82 177.969 166.745C177.904 166.671 177.812 166.611 177.704 166.576C177.598 166.542 177.48 166.531 177.367 166.549C177.253 166.565 177.147 166.607 177.064 166.671Z" fill="#031723"/>
<path d="M142.903 183.895V189.785C142.911 189.904 142.977 190.018 143.087 190.101C143.197 190.184 143.343 190.23 143.495 190.23C143.647 190.23 143.793 190.184 143.903 190.101C144.013 190.018 144.079 189.904 144.086 189.785V183.895C144.079 183.776 144.013 183.662 143.903 183.579C143.793 183.496 143.647 183.45 143.495 183.45C143.343 183.45 143.197 183.496 143.087 183.579C142.977 183.662 142.911 183.776 142.903 183.895Z" fill="#031723"/>
<path d="M188.05 183.895V189.785C188.057 189.904 188.123 190.018 188.233 190.101C188.342 190.184 188.489 190.23 188.641 190.23C188.793 190.23 188.939 190.184 189.049 190.101C189.16 190.018 189.225 189.904 189.233 189.785V183.895C189.225 183.776 189.16 183.662 189.049 183.579C188.939 183.496 188.793 183.45 188.641 183.45C188.489 183.45 188.342 183.496 188.233 183.579C188.123 183.662 188.057 183.776 188.05 183.895Z" fill="#031723"/>
<path d="M87.3291 118.496V125.971C87.3367 126.091 87.4023 126.204 87.5123 126.287C87.6224 126.37 87.7687 126.416 87.9206 126.416C88.0726 126.416 88.2187 126.37 88.3288 126.287C88.439 126.204 88.5044 126.091 88.512 125.971V118.496C88.5044 118.376 88.439 118.263 88.3288 118.18C88.2187 118.097 88.0726 118.051 87.9206 118.051C87.7687 118.051 87.6224 118.097 87.5123 118.18C87.4023 118.263 87.3367 118.376 87.3291 118.496Z" fill="#031723"/>
<path d="M52.3069 107.855C51.1123 105.862 42.1742 90.9443 41.7406 90.2186C41.4147 89.6758 40.3948 90.1496 40.7221 90.6913L51.2854 108.33C51.6114 108.87 52.6313 108.397 52.3069 107.855Z" fill="#FF623B"/>
<path d="M23.7015 110.944C23.5497 110.95 23.4065 111.002 23.3018 111.089C23.197 111.176 23.1387 111.291 23.1387 111.411C23.1387 111.532 23.197 111.647 23.3018 111.734C23.4065 111.821 23.5497 111.873 23.7015 111.879H44.4105C44.5622 111.873 44.7054 111.821 44.8102 111.734C44.9149 111.647 44.9733 111.532 44.9733 111.411C44.9733 111.291 44.9149 111.176 44.8102 111.089C44.7054 111.002 44.5622 110.95 44.4105 110.944C38.9353 110.869 28.8318 110.874 23.7015 110.944Z" fill="#031723"/>
<path d="M51.2859 113.921L40.7197 131.966C40.4025 132.509 41.421 132.984 41.7382 132.437C42.9298 130.404 51.8708 115.135 52.3044 114.393C52.6245 113.85 51.606 113.375 51.2859 113.921Z" fill="#FF623B"/>
<path d="M259.64 101.267C259.349 100.142 259 99.03 258.706 97.9064C258.554 97.3176 257.397 97.5683 257.566 98.1548C259.322 104.321 260.343 109.02 257.411 114.971C256.285 117.214 254.677 119.286 252.658 121.095C252.16 121.546 252.993 122.211 253.495 121.755C259.984 115.877 261.573 108.823 259.64 101.267Z" fill="#031723"/>
<path d="M259.89 124.742C267.335 117.999 269.272 109.85 266.988 100.976C266.657 99.6879 266.253 98.4137 265.917 97.1269C265.771 96.5381 264.607 96.7888 264.776 97.3753C266.813 104.535 268.006 109.975 264.618 116.896C263.304 119.528 261.421 121.959 259.054 124.08C258.553 124.532 259.388 125.196 259.89 124.742Z" fill="#031723"/>
<path d="M178.924 84.5446C182.259 77.2482 186.474 70.2219 191.51 63.5628C191.575 63.4568 191.588 63.3351 191.545 63.222C191.502 63.1088 191.406 63.0128 191.278 62.953C191.149 62.8932 190.996 62.8741 190.85 62.8995C190.705 62.9251 190.575 62.9931 190.491 63.0902C182.107 74.0782 176.036 86.0687 172.512 98.5941C172.478 98.7117 172.503 98.8351 172.58 98.9386C172.659 99.0421 172.785 99.1177 172.932 99.1497C173.079 99.1818 173.236 99.1678 173.37 99.1105C173.504 99.0532 173.606 98.9573 173.652 98.8425C175.035 93.9952 176.795 89.22 178.924 84.5446Z" fill="#031723"/>
<path d="M172.646 113.513H107.435C107.279 113.514 107.13 113.564 107.019 113.651C106.909 113.738 106.846 113.857 106.845 113.98V130.486C106.846 130.609 106.909 130.727 107.019 130.815C107.13 130.902 107.279 130.952 107.435 130.953C173.747 131.324 172.841 131.044 173.091 130.785C173.311 130.601 173.397 131.651 173.237 113.98C173.235 113.857 173.171 113.739 173.062 113.652C172.951 113.564 172.801 113.515 172.646 113.513ZM107.961 121.765C109.171 121.749 121.035 121.765 122.246 121.765V115.935C122.253 115.815 122.319 115.702 122.429 115.619C122.539 115.536 122.685 115.49 122.837 115.49C122.989 115.49 123.135 115.536 123.245 115.619C123.356 115.702 123.421 115.815 123.429 115.935V121.765H138.888V115.935C138.896 115.815 138.961 115.702 139.071 115.619C139.182 115.536 139.328 115.49 139.48 115.49C139.632 115.49 139.778 115.536 139.888 115.619C139.998 115.702 140.064 115.815 140.071 115.935V121.765H154.666V115.935C154.674 115.815 154.739 115.702 154.85 115.619C154.959 115.536 155.106 115.49 155.257 115.49C155.41 115.49 155.555 115.536 155.666 115.619C155.777 115.702 155.842 115.815 155.849 115.935V121.765H170.526C170.677 121.771 170.821 121.823 170.926 121.91C171.031 121.998 171.089 122.113 171.089 122.234C171.089 122.353 171.031 122.468 170.926 122.556C170.821 122.643 170.677 122.695 170.526 122.7C169.507 122.714 156.849 122.7 155.838 122.7V128.531C155.83 128.651 155.765 128.764 155.654 128.847C155.544 128.93 155.398 128.976 155.245 128.976C155.094 128.976 154.947 128.93 154.838 128.847C154.727 128.764 154.662 128.651 154.655 128.531V122.705H140.071V128.536C140.064 128.655 139.998 128.769 139.888 128.852C139.778 128.935 139.632 128.981 139.48 128.981C139.328 128.981 139.182 128.935 139.071 128.852C138.961 128.769 138.896 128.655 138.888 128.536V122.705H123.435V128.536C123.427 128.655 123.361 128.769 123.251 128.852C123.141 128.935 122.995 128.981 122.843 128.981C122.691 128.981 122.545 128.935 122.435 128.852C122.325 128.769 122.259 128.655 122.252 128.536V122.705H107.961C107.809 122.699 107.666 122.648 107.561 122.56C107.456 122.473 107.398 122.358 107.398 122.238C107.398 122.117 107.456 122.002 107.561 121.915C107.666 121.828 107.809 121.776 107.961 121.77V121.765Z" fill="#031723"/>
<path d="M224.869 132.123C225.122 131.548 223.98 131.31 223.728 131.875L201.663 181.341C202.034 181.448 202.395 181.578 202.743 181.728C203.022 181.088 224.774 132.333 224.869 132.123Z" fill="#FF623B"/>
<path d="M194.824 196.675C194.571 197.25 195.713 197.488 195.965 196.924C196.217 196.359 202.222 182.902 202.356 182.601C202.011 182.446 201.648 182.32 201.273 182.22C201.189 182.39 194.874 196.547 194.824 196.675Z" fill="#FF623B"/>
<path d="M41.9165 199.105C41.7646 199.111 41.6215 199.163 41.5168 199.25C41.412 199.338 41.3535 199.453 41.3535 199.573C41.3535 199.693 41.412 199.808 41.5168 199.895C41.6215 199.983 41.7646 200.034 41.9165 200.04H68.0672C68.3029 199.75 68.4842 199.436 68.6055 199.105C32.2698 199.105 44.4933 199.065 41.9165 199.105Z" fill="031723"/>
<path d="M189.265 200.04C189.416 200.034 189.56 199.983 189.665 199.895C189.77 199.808 189.828 199.693 189.828 199.573C189.828 199.453 189.77 199.338 189.665 199.25C189.56 199.163 189.416 199.111 189.265 199.105H69.783C69.6991 199.427 69.5687 199.741 69.3945 200.04C211.455 200.04 186.279 200.08 189.265 200.04Z" fill="031723"/>
<path d="M170.526 121.766H155.844V115.935C155.838 115.811 155.77 115.694 155.656 115.61C155.541 115.524 155.388 115.48 155.231 115.484C155.081 115.487 154.937 115.535 154.831 115.619C154.725 115.703 154.664 115.817 154.661 115.935C154.627 117.474 154.61 119.608 154.607 121.766H140.072V115.935C140.064 115.815 139.998 115.702 139.888 115.619C139.778 115.536 139.632 115.49 139.48 115.49C139.328 115.49 139.182 115.536 139.072 115.619C138.962 115.702 138.896 115.815 138.889 115.935C138.854 117.474 138.838 119.608 138.836 121.766H123.435V115.935C123.427 115.815 123.362 115.702 123.252 115.619C123.142 115.536 122.996 115.49 122.844 115.49C122.692 115.49 122.545 115.536 122.435 115.619C122.325 115.702 122.26 115.815 122.252 115.935C122.219 117.474 122.201 119.608 122.2 121.766C119.834 121.766 108.222 121.766 108.028 121.766C107.95 121.762 107.873 121.771 107.799 121.792C107.726 121.813 107.659 121.844 107.601 121.885C107.543 121.927 107.496 121.976 107.463 122.032C107.429 122.088 107.41 122.147 107.406 122.209C107.402 122.27 107.413 122.331 107.439 122.39C107.465 122.447 107.506 122.5 107.558 122.546C107.61 122.592 107.673 122.629 107.743 122.656C107.813 122.682 107.889 122.697 107.967 122.7H122.2C122.2 124.914 122.22 127.07 122.252 128.531C122.26 128.651 122.325 128.764 122.435 128.847C122.545 128.93 122.692 128.976 122.844 128.976C122.996 128.976 123.142 128.93 123.252 128.847C123.362 128.764 123.427 128.651 123.435 128.531V122.705H138.836C138.836 124.919 138.857 127.075 138.889 128.536C138.896 128.655 138.962 128.769 139.072 128.852C139.182 128.935 139.328 128.981 139.48 128.981C139.632 128.981 139.778 128.935 139.888 128.852C139.998 128.769 140.064 128.655 140.072 128.536V122.705H154.607C154.607 124.919 154.629 127.075 154.661 128.536C154.668 128.655 154.734 128.769 154.844 128.852C154.955 128.935 155.1 128.981 155.252 128.981C155.404 128.981 155.55 128.935 155.661 128.852C155.771 128.769 155.837 128.655 155.844 128.536V122.705C158.179 122.705 169.695 122.717 170.532 122.705C170.683 122.699 170.827 122.648 170.932 122.56C171.037 122.473 171.095 122.358 171.095 122.238C171.095 122.117 171.037 122.002 170.932 121.915C170.827 121.828 170.683 121.776 170.532 121.77L170.526 121.766Z" fill="#031723"/>
<path d="M214.075 62.905C213.828 66.93 212.801 73.0249 212.019 76.9763C210.514 84.4952 208.455 91.9383 205.855 99.268C205.836 99.3282 205.833 99.3909 205.846 99.4521C205.858 99.5134 205.885 99.5721 205.926 99.6248C205.968 99.6776 206.022 99.7234 206.086 99.7595C206.15 99.7955 206.221 99.8211 206.298 99.8349C206.444 99.8631 206.598 99.8458 206.728 99.7867C206.857 99.7276 206.953 99.6312 206.995 99.5175C210.115 90.7404 212.449 81.8004 213.979 72.7639C214.976 66.846 216.224 59.5723 214.224 53.9614C214.196 53.8942 214.15 53.8329 214.087 53.7819C214.026 53.7309 213.95 53.6915 213.866 53.6667C213.781 53.6418 213.693 53.6322 213.603 53.6385C213.514 53.6447 213.428 53.6667 213.351 53.7027C212.326 54.196 214.545 55.3242 214.075 62.905Z" fill="#031723"/>
<path d="M254.27 218.01C252.27 217.084 250.306 216.11 248.325 215.162L252.559 208.971C252.615 208.891 252.64 208.799 252.633 208.707C252.624 208.615 252.582 208.526 252.511 208.454C252.439 208.38 252.343 208.325 252.233 208.294C252.124 208.264 252.004 208.259 251.891 208.281C249.392 208.753 243.863 209.758 243.597 209.805L231 202.744C230.863 202.682 230.702 202.664 230.549 202.697C230.397 202.729 230.267 202.807 230.188 202.915C230.104 203.03 230.285 202.215 227.784 215.236L220.863 218.877C220.729 218.94 220.63 219.043 220.591 219.162C220.551 219.282 220.572 219.41 220.65 219.517L224.471 223.787C224.701 224.043 224.88 224.221 225.279 224.232C226.179 224.253 223.786 224.347 248.192 224.232C248.282 224.23 248.373 224.213 248.453 224.181C248.534 224.149 248.605 224.103 248.659 224.045C248.714 223.988 248.752 223.922 248.77 223.852C248.789 223.782 248.786 223.708 248.762 223.639C248.471 222.844 248.148 222.057 247.843 221.266L254.265 218.814C254.355 218.775 254.431 218.716 254.485 218.646C254.537 218.576 254.566 218.495 254.566 218.413C254.566 218.331 254.539 218.25 254.488 218.179C254.436 218.109 254.36 218.05 254.27 218.01Z" fill="#031623"/>
<path d="M65.5156 193.984C62.4921 193.574 61.0342 194.932 59.4759 195.989C59.0277 196.314 58.4894 196.552 57.904 196.683C57.3185 196.815 56.7025 196.835 56.1049 196.744C55.5075 196.653 54.9453 196.453 54.4634 196.16C53.9815 195.866 53.5933 195.487 53.33 195.054C51.6043 192.551 52.9226 189.569 53.4755 186.092C53.57 185.497 52.3857 185.502 52.2925 186.092C51.8299 188.982 50.3327 192.548 52.1776 195.353C52.7401 196.296 53.734 197.034 54.9588 197.421C56.1836 197.807 57.5483 197.812 58.7775 197.434C59.6684 197.088 60.4756 196.621 61.1622 196.054C61.7518 195.526 62.5269 195.149 63.3888 194.971C64.2506 194.793 65.1601 194.822 66.0016 195.053C66.9946 195.352 67.8111 195.932 68.292 196.681C68.773 197.431 68.8839 198.295 68.6031 199.104C67.6835 201.603 63.6226 202.39 62.0949 205.278C60.6253 208.056 63.125 210.453 67.5249 209.512C69.3251 208.954 71.0556 208.264 72.6946 207.453C73.4117 207.082 74.2591 206.898 75.1161 206.929C75.973 206.96 76.7956 207.204 77.467 207.626C77.9548 208.002 78.3138 208.469 78.5103 208.984C78.7068 209.499 78.7343 210.046 78.5902 210.572C77.8816 213.057 72.9565 212.649 70.6386 216.366C70.2643 216.968 70.0972 217.639 70.1544 218.309C70.2116 218.978 70.491 219.625 70.9646 220.182C71.5359 220.76 72.3273 221.177 73.2218 221.373C74.1162 221.568 75.0664 221.53 75.9319 221.266C77.9689 220.806 79.5505 219.678 81.4231 218.951C82.1091 218.589 82.9271 218.416 83.7501 218.46C84.573 218.503 85.3548 218.76 85.9743 219.19C86.649 219.722 87.0346 220.442 87.0493 221.197C87.0638 221.95 86.7065 222.679 86.0529 223.228C85.484 223.631 86.325 224.291 86.8895 223.889C87.3655 223.484 87.7266 223.003 87.9489 222.479C88.1712 221.955 88.2497 221.399 88.1788 220.848C88.1081 220.299 87.8898 219.767 87.5385 219.289C87.1872 218.811 86.711 218.397 86.1417 218.076C85.383 217.723 84.5208 217.533 83.6405 217.526C82.7604 217.518 81.8931 217.693 81.1248 218.032C78.5058 218.965 75.7195 221.316 72.8211 220.273C71.0417 219.468 70.515 217.011 73.4031 215.051C74.9236 214.016 76.9417 213.585 78.4185 212.521C78.9439 212.097 79.3403 211.584 79.5773 211.02C79.8143 210.457 79.8859 209.858 79.7867 209.269C79.6874 208.681 79.4199 208.118 79.0043 207.623C78.5888 207.129 78.0361 206.716 77.3884 206.415C76.5504 206.106 75.629 205.965 74.7059 206.005C73.7829 206.046 72.8866 206.265 72.0965 206.645C70.4784 207.465 68.7505 208.142 66.9444 208.662C62.7424 209.445 61.2699 206.443 64.8565 203.773C66.7771 202.34 69.204 201.306 69.7787 199.103C69.9322 198.545 69.9433 197.969 69.8112 197.408C69.6792 196.847 69.4065 196.312 69.0095 195.835C68.6123 195.359 68.0986 194.949 67.4987 194.631C66.8987 194.313 66.2245 194.094 65.5156 193.984Z" fill="#031723"/>
<path d="M199.778 180.986C198.953 180.918 199.298 180.851 192.212 180.95C192.061 180.956 191.917 181.008 191.812 181.095C191.708 181.183 191.649 181.298 191.649 181.418C191.649 181.538 191.708 181.653 191.812 181.74C191.917 181.828 192.061 181.879 192.212 181.885C198.865 181.976 199.589 181.778 201.26 182.22C202.341 182.522 203.307 183.037 204.065 183.717C204.823 184.397 205.35 185.219 205.594 186.105C205.753 186.869 205.805 187.644 205.751 188.418C205.751 188.418 205.751 223.723 205.751 223.751C205.759 223.871 205.824 223.984 205.935 224.067C206.044 224.15 206.191 224.196 206.342 224.196C206.495 224.196 206.64 224.15 206.751 224.067C206.861 223.984 206.927 223.871 206.934 223.751C206.934 223.751 206.956 189.166 206.934 187.261C206.912 185.707 206.175 184.21 204.856 183.055C203.54 181.899 201.734 181.164 199.778 180.986Z" fill="#031723"/>
<path d="M231.604 55.6232C231.946 56.1614 232.966 55.6887 232.623 55.1517L229.99 51.0013C229.649 50.4631 228.629 50.9358 228.972 51.4728L231.604 55.6232Z" fill="#FF623B"/>
<path d="M107.122 27.7024C107.752 27.9471 108.472 28.0045 109.151 27.8643C109.83 27.7241 110.423 27.3957 110.821 26.9388C111.735 25.8236 112.213 24.5207 112.197 23.1921C112.328 21.2658 111.892 18.4656 109.09 17.8492C104.741 16.8901 102.076 25.2241 107.122 27.7024ZM109.434 19.0095C109.874 19.2871 110.234 19.6362 110.489 20.0329C110.744 20.4297 110.888 20.8649 110.913 21.3095C111.166 22.631 111.046 23.9804 110.562 25.2609C110.245 26.3293 109.04 27.3988 107.72 26.8905C103.384 24.7664 106.328 17.1005 109.434 19.0095Z" fill="#031723"/>
<path d="M116.836 6.45284C115.937 5.11884 113.948 5.95834 112.967 6.72309C110.598 8.38691 108.534 10.3045 106.836 12.4202C106.609 12.7004 106.472 13.02 106.437 13.3513C106.401 13.6828 106.469 14.0159 106.632 14.3223C106.869 14.5431 107.168 14.7175 107.504 14.8318C107.841 14.9461 108.206 14.9973 108.572 14.9812C111.845 14.9031 115.099 14.5488 118.277 13.9244C119.295 13.7611 120.691 13.7323 120.916 12.7479C120.982 12.4391 120.934 12.1219 120.777 11.8342C120.621 11.5465 120.362 11.3008 120.033 11.1264C119.351 10.7734 119.339 11.0689 119.711 10.6952C119.97 10.4252 120.105 10.0943 120.096 9.75591C120.086 9.41755 119.932 9.09165 119.659 8.83104C119.162 8.53267 118.559 8.36619 117.935 8.35545C117.311 8.34471 116.699 8.49024 116.186 8.77124C116.858 8.08009 117.43 7.33374 116.836 6.45284ZM118.354 9.30139C118.914 9.37499 119.051 9.76139 118.769 10.1271C118.332 10.5269 117.729 10.7897 117.068 10.8677C116.923 10.9048 116.801 10.9847 116.729 11.0909C116.656 11.197 116.639 11.3211 116.679 11.4373C116.72 11.5535 116.815 11.653 116.946 11.7148C117.077 11.7766 117.233 11.7962 117.382 11.7693C118.028 11.7003 119.051 11.5669 119.538 12.0131C119.686 12.1444 119.768 12.3136 119.77 12.4892C119.752 12.7594 119.442 12.7974 119.156 12.8411C117.431 13.0998 109.116 14.619 107.661 13.8519C106.945 12.5628 112.855 8.14909 113.81 7.38434C114.235 7.05314 115.802 6.11934 115.877 7.15434C115.937 7.96854 114.792 8.59874 114.277 9.22434C114.227 9.29568 114.201 9.37606 114.202 9.45767C114.202 9.53929 114.23 9.61937 114.281 9.69018C114.332 9.76097 114.406 9.82008 114.495 9.86177C114.584 9.90347 114.684 9.92633 114.788 9.92814C116.519 9.98794 116.836 9.24849 118.352 9.30139H118.354Z" fill="#031723"/>
<path d="M192.822 199.572V223.767C192.83 223.887 192.895 224 193.006 224.083C193.116 224.166 193.262 224.212 193.413 224.212C193.566 224.212 193.711 224.166 193.822 224.083C193.932 224 193.998 223.887 194.005 223.767V199.572C193.998 199.453 193.932 199.339 193.822 199.256C193.711 199.173 193.566 199.127 193.413 199.127C193.262 199.127 193.116 199.173 193.006 199.256C192.895 199.339 192.83 199.453 192.822 199.572Z" fill="#031723"/>
<path d="M228.891 136V194.695C228.898 194.815 228.963 194.928 229.074 195.011C229.185 195.094 229.33 195.14 229.481 195.14C229.634 195.14 229.78 195.094 229.89 195.011C230.001 194.928 230.066 194.815 230.074 194.695V136C230.066 135.881 230.001 135.767 229.89 135.684C229.78 135.601 229.634 135.555 229.481 135.555C229.33 135.555 229.185 135.601 229.074 135.684C228.963 135.767 228.898 135.881 228.891 136Z" fill="#031723"/>
<path d="M42.5091 204.251C42.5017 204.132 42.436 204.018 42.3259 203.935C42.2158 203.852 42.0697 203.806 41.9176 203.806C41.7657 203.806 41.6195 203.852 41.5095 203.935C41.3994 204.018 41.3337 204.132 41.3262 204.251V223.767C41.3337 223.887 41.3994 224 41.5095 224.083C41.6195 224.166 41.7657 224.212 41.9176 224.212C42.0697 224.212 42.2158 224.166 42.3259 224.083C42.436 224 42.5017 223.887 42.5091 223.767V204.251Z" fill="#031723"/>
<path d="M231.604 55.6232C231.945 56.1614 232.965 55.6876 232.622 55.1517L229.99 51.0014C229.648 50.4632 228.627 50.937 228.971 51.4729L231.604 55.6232Z" fill="#FF623B"/>
<path d="M207.098 54.4755C207.332 55.0505 208.476 54.8009 208.238 54.2271L206.436 49.8571C206.2 49.2821 205.058 49.5305 205.295 50.1055L207.098 54.4755Z" fill="#FF623B"/>
<path d="M127.842 90.9501C127.691 90.9524 127.548 91.0007 127.442 91.0848C127.335 91.1687 127.274 91.2821 127.271 91.4009C127.244 92.7211 127.244 94.0408 127.271 95.3603C127.279 95.4803 127.345 95.5933 127.455 95.6762C127.565 95.759 127.711 95.8052 127.863 95.8052C128.015 95.8052 128.161 95.759 128.271 95.6762C128.381 95.5933 128.447 95.4803 128.454 95.3603C128.482 94.0416 128.482 92.7218 128.454 91.4009C128.453 91.3391 128.436 91.2783 128.404 91.222C128.372 91.1656 128.326 91.1149 128.269 91.0728C128.212 91.0307 128.145 90.9982 128.071 90.9771C127.998 90.956 127.92 90.9469 127.842 90.9501Z" fill="#031723"/>
<path d="M137.426 91.4008C137.479 92.721 137.532 94.0407 137.586 95.3602C137.611 95.9605 138.794 95.964 138.771 95.3602L138.609 91.4008C138.584 90.8005 137.401 90.7982 137.426 91.4008Z" fill="#FF623B"/>
<path d="M102.367 188.83H95.6045V183.9C95.5969 183.78 95.5315 183.666 95.4213 183.584C95.3112 183.501 95.1651 183.455 95.013 183.455C94.8611 183.455 94.7149 183.501 94.6049 183.584C94.4948 183.666 94.4291 183.78 94.4216 183.9V188.83H71.4399V183.9C71.4323 183.78 71.3668 183.666 71.2567 183.584C71.1465 183.501 71.0004 183.455 70.8484 183.455C70.6965 183.455 70.5503 183.501 70.4403 183.584C70.3301 183.666 70.2645 183.78 70.2569 183.9V188.83H63.2278C63.0761 188.836 62.9331 188.887 62.8283 188.975C62.7235 189.062 62.665 189.177 62.665 189.298C62.665 189.418 62.7235 189.533 62.8283 189.62C62.9331 189.707 63.0761 189.759 63.2278 189.765H102.367C103.45 189.76 103.159 188.645 102.367 188.83Z" fill="#031723"/>
<path d="M87.1318 166.611H73.7356C73.5839 166.617 73.4409 166.668 73.3361 166.756C73.2313 166.843 73.1729 166.958 73.1729 167.079C73.1729 167.198 73.2313 167.313 73.3361 167.401C73.4409 167.488 73.5839 167.54 73.7356 167.546H87.1318C87.2837 167.54 87.4268 167.488 87.5315 167.401C87.6363 167.313 87.6948 167.198 87.6948 167.079C87.6948 166.958 87.6363 166.843 87.5315 166.756C87.4268 166.668 87.2837 166.617 87.1318 166.611Z" fill="#031723"/>
<path d="M87.1318 170.348H73.7356C73.5839 170.354 73.4409 170.406 73.3361 170.493C73.2313 170.581 73.1729 170.696 73.1729 170.816C73.1729 170.936 73.2313 171.051 73.3361 171.138C73.4409 171.226 73.5839 171.277 73.7356 171.283H87.1318C87.2837 171.277 87.4268 171.226 87.5315 171.138C87.6363 171.051 87.6948 170.936 87.6948 170.816C87.6948 170.696 87.6363 170.581 87.5315 170.493C87.4268 170.406 87.2837 170.354 87.1318 170.348Z" fill="#031723"/>
<path d="M87.1318 174.296H73.7356C73.5839 174.302 73.4409 174.354 73.3361 174.441C73.2313 174.529 73.1729 174.644 73.1729 174.764C73.1729 174.884 73.2313 174.999 73.3361 175.086C73.4409 175.174 73.5839 175.225 73.7356 175.231H87.1318C87.2837 175.225 87.4268 175.174 87.5315 175.086C87.6363 174.999 87.6948 174.884 87.6948 174.764C87.6948 174.644 87.6363 174.529 87.5315 174.441C87.4268 174.354 87.2837 174.302 87.1318 174.296Z" fill="#031723"/>
<path d="M257.465 224.219C257.615 224.215 257.757 224.166 257.863 224.082C257.97 223.998 258.031 223.885 258.037 223.767V199.259C258.034 199.136 257.971 199.018 257.86 198.93C257.75 198.843 257.6 198.794 257.444 198.791H216.896C216.739 198.794 216.591 198.843 216.48 198.93C216.37 199.018 216.307 199.136 216.306 199.259V223.767C216.313 223.887 216.378 224 216.489 224.083C216.598 224.166 216.745 224.212 216.896 224.212C217.049 224.212 217.195 224.166 217.305 224.083C217.416 224 217.481 223.887 217.489 223.767V199.732L256.854 199.746V223.767C256.858 223.891 256.926 224.008 257.041 224.092C257.155 224.178 257.308 224.224 257.465 224.219Z" fill="#031723"/>
<path d="M187.46 130.915C187.494 131.145 187.705 131.414 188.051 131.382L196.71 130.595L197.539 132.176C197.65 132.387 197.944 132.61 198.267 132.503C215.909 126.725 214.89 127.068 214.979 127.009C215.049 126.998 215.114 126.973 215.169 126.938C215.226 126.904 215.271 126.859 215.303 126.808C215.334 126.758 215.35 126.702 215.35 126.646C215.35 126.59 215.334 126.533 215.303 126.483C214.017 124.191 205.008 106.852 204.564 106.006C204.453 105.795 204.161 105.573 203.836 105.679L199.527 107.091L184.846 108.427C184.555 108.453 184.216 108.62 184.255 108.893C185.208 115.44 186.473 124.149 187.46 130.915ZM203.676 106.736C204.805 108.891 213.586 125.634 213.965 126.356L198.428 131.445L188.138 111.826L203.676 106.736ZM195.576 108.385L187.215 111.124C186.948 111.212 186.667 111.444 186.801 111.699C188.015 114.016 196.243 129.703 196.243 129.703L188.568 130.4C188.568 130.4 185.61 110.077 185.498 109.302L195.576 108.385Z" fill="#031723"/>
<path d="M90.6866 112.101C87.3503 110.768 83.7594 112.202 81.9988 114.723C77.6702 120.895 81.7544 128.148 87.3285 128.728V139.673C87.3361 139.793 87.4017 139.907 87.5117 139.989C87.6218 140.072 87.7681 140.118 87.92 140.118C88.072 140.118 88.2181 140.072 88.3282 139.989C88.4382 139.907 88.5039 139.793 88.5114 139.673V128.748C93.2984 128.456 95.801 124.054 95.8272 120.181C95.8068 117.177 94.3474 113.529 90.6866 112.101ZM94.6442 120.181C94.6253 122.826 93.4381 126.025 90.2894 127.372C87.474 128.59 84.4185 127.281 82.9533 125.077C78.7265 118.867 83.7259 111.41 89.2971 112.669C90.9452 113.121 92.3088 114.058 93.1034 115.285C94.1401 116.786 94.6709 118.472 94.6442 120.181Z" fill="#031723"/>
<path d="M195.798 116.111C198.223 115.291 200.656 114.472 203.128 113.741C203.834 113.531 203.528 112.628 202.812 112.839C200.246 113.598 197.72 114.449 195.2 115.304C194.503 115.539 195.104 116.344 195.798 116.111Z" fill="#FF623B"/>
<path d="M197.615 120.189C200.04 119.368 202.473 118.55 204.945 117.819C205.651 117.609 205.345 116.705 204.631 116.917C202.063 117.676 199.538 118.527 197.017 119.38C196.32 119.617 196.921 120.422 197.615 120.189Z" fill="#FF623B"/>
<path d="M199.965 123.935C202.391 123.116 204.823 122.297 207.294 121.565C208.001 121.357 207.696 120.453 206.981 120.664C204.413 121.424 201.889 122.274 199.367 123.128C198.67 123.364 199.273 124.17 199.965 123.935Z" fill="#FF623B"/>
<path d="M177.46 166.541C177.081 166.549 177.505 166.4 169.982 171.648L169.945 171.687C169.896 171.727 169.856 171.775 169.832 171.827C169.807 171.88 169.795 171.936 169.8 171.992C169.803 172.048 169.822 172.103 169.854 172.153C169.886 172.203 169.929 172.248 169.985 172.284C170.286 172.579 170.51 172.53 177.22 172.482C177.376 172.479 177.526 172.43 177.636 172.342C177.747 172.255 177.809 172.137 177.812 172.013C177.9 170.343 177.987 168.672 178.073 167.001C178.071 166.939 178.054 166.878 178.022 166.821C177.99 166.764 177.943 166.713 177.887 166.671C177.83 166.627 177.763 166.594 177.69 166.572C177.616 166.55 177.539 166.539 177.46 166.541ZM176.654 171.547C171.029 171.547 172.132 171.547 171.898 171.547L176.835 168.077L176.654 171.547Z" fill="#FF623B"/>
<path d="M143.475 183.443C143.325 183.448 143.183 183.496 143.076 183.58C142.97 183.664 142.908 183.777 142.903 183.895V189.784C142.911 189.904 142.977 190.018 143.087 190.101C143.197 190.183 143.343 190.229 143.495 190.229C143.647 190.229 143.793 190.183 143.903 190.101C144.013 190.018 144.079 189.904 144.086 189.784V183.895C144.081 183.771 144.014 183.654 143.899 183.57C143.784 183.485 143.632 183.44 143.475 183.443Z" fill="#FF623B"/>
<path d="M188.62 183.443C188.47 183.448 188.328 183.496 188.223 183.58C188.117 183.664 188.054 183.777 188.05 183.895V189.784C188.057 189.904 188.123 190.018 188.233 190.101C188.342 190.183 188.489 190.229 188.641 190.229C188.793 190.229 188.939 190.183 189.049 190.101C189.16 190.018 189.225 189.904 189.233 189.784V183.895C189.227 183.771 189.159 183.654 189.045 183.57C188.93 183.485 188.777 183.44 188.62 183.443Z" fill="#FF623B"/>
<path d="M137.19 79.7915C137.7 80.24 138.535 79.5765 138.027 79.1303C130.202 72.2383 122.458 65.4867 112.19 61.1351C111.518 60.8522 110.92 61.6583 111.592 61.9401C121.651 66.1824 129.618 73.1181 137.19 79.7915Z" fill="#FF623B"/>
<path d="M87.9009 118.045C87.751 118.049 87.6085 118.098 87.5024 118.181C87.3962 118.265 87.3342 118.378 87.3291 118.496V125.971C87.3367 126.091 87.4023 126.204 87.5123 126.287C87.6224 126.37 87.7687 126.416 87.9206 126.416C88.0726 126.416 88.2187 126.37 88.3288 126.287C88.439 126.204 88.5044 126.091 88.512 125.971V118.496C88.5063 118.372 88.4388 118.256 88.3243 118.171C88.2098 118.087 88.0575 118.042 87.9009 118.045Z" fill="#FF623B"/>
<path d="M52.3069 107.855C51.1123 105.862 42.1757 90.9443 41.7406 90.2198C41.4147 89.6758 40.3948 90.1496 40.7221 90.6913L51.2854 108.33C51.6114 108.87 52.6313 108.397 52.3069 107.855Z" fill="#FF623B"/>
<path d="M23.1342 111.428C23.1393 111.547 23.2012 111.659 23.3074 111.743C23.4135 111.827 23.5561 111.875 23.706 111.879H44.4106C44.5624 111.873 44.7056 111.821 44.8103 111.734C44.9151 111.647 44.9734 111.532 44.9734 111.411C44.9734 111.291 44.9151 111.176 44.8103 111.089C44.7056 111.002 44.5624 110.95 44.4106 110.944H23.7016C23.5453 110.949 23.398 111.003 23.2916 111.094C23.1852 111.184 23.1286 111.305 23.1342 111.428Z" fill="#FF623B"/>
<path d="M51.2859 113.921L40.7197 131.966C40.4025 132.509 41.421 132.984 41.7382 132.437C42.9298 130.404 51.8708 115.134 52.3044 114.393C52.6245 113.85 51.6045 113.375 51.2859 113.921Z" fill="#FF623B"/>
<path d="M259.641 101.267C259.364 100.14 259 99.0299 258.706 97.9063C258.554 97.3175 257.413 97.5613 257.566 98.1547C258.254 100.374 258.769 102.625 259.109 104.895C259.511 107.801 259.144 110.741 258.034 113.529C256.924 116.318 255.092 118.894 252.658 121.094C252.162 121.548 252.996 122.212 253.495 121.756C259.818 116.082 261.635 108.79 259.641 101.267Z" fill="#031723"/>
<path d="M259.891 124.742C267.303 118.09 269.287 109.579 266.988 100.976C266.67 99.6854 266.254 98.4135 265.917 97.1266C265.763 96.5378 264.624 96.7816 264.777 97.375C265.571 99.9437 266.169 102.548 266.566 105.173C267.041 108.564 266.619 111.996 265.325 115.251C264.032 118.506 261.897 121.512 259.054 124.08C258.554 124.533 259.392 125.197 259.891 124.742Z" fill="#031723"/>
<path d="M172.534 130.953H172.646C172.801 130.951 172.95 130.901 173.06 130.814C173.171 130.726 173.235 130.609 173.238 130.486V113.98C173.235 113.857 173.173 113.739 173.062 113.651C172.951 113.564 172.801 113.515 172.646 113.513H107.437C107.281 113.515 107.131 113.564 107.021 113.651C106.91 113.739 106.847 113.857 106.845 113.98V130.486C106.846 130.61 106.909 130.727 107.02 130.815C107.131 130.902 107.28 130.952 107.437 130.953C177.219 131.345 171.69 130.975 172.534 130.953ZM108.028 129.996V122.705H122.252V128.536C122.259 128.655 122.325 128.769 122.435 128.852C122.545 128.935 122.691 128.981 122.843 128.981C122.995 128.981 123.141 128.935 123.251 128.852C123.361 128.769 123.427 128.655 123.435 128.536V122.705H138.888V128.536C138.896 128.655 138.961 128.769 139.071 128.852C139.182 128.935 139.328 128.981 139.48 128.981C139.632 128.981 139.778 128.935 139.888 128.852C139.998 128.769 140.064 128.655 140.071 128.536V122.705H154.666V128.536C154.674 128.655 154.739 128.769 154.85 128.852C154.959 128.935 155.106 128.981 155.257 128.981C155.41 128.981 155.555 128.935 155.666 128.852C155.777 128.769 155.842 128.655 155.849 128.536V122.705C156.757 122.705 169.632 122.718 170.537 122.705C170.689 122.699 170.833 122.648 170.938 122.56C171.042 122.473 171.101 122.358 171.101 122.238C171.101 122.117 171.042 122.002 170.938 121.915C170.833 121.828 170.689 121.776 170.537 121.77H155.843V115.94C155.836 115.82 155.771 115.706 155.66 115.623C155.55 115.541 155.404 115.495 155.251 115.495C155.1 115.495 154.953 115.541 154.844 115.623C154.733 115.706 154.668 115.82 154.661 115.94V121.77H140.071V115.94C140.064 115.82 139.998 115.706 139.888 115.623C139.778 115.541 139.632 115.495 139.48 115.495C139.328 115.495 139.182 115.541 139.071 115.623C138.961 115.706 138.896 115.82 138.888 115.94V121.77H123.435V115.94C123.427 115.82 123.361 115.706 123.251 115.623C123.141 115.541 122.995 115.495 122.843 115.495C122.691 115.495 122.545 115.541 122.435 115.623C122.325 115.706 122.259 115.82 122.252 115.94V121.77H108.028V114.448C108.028 114.448 171.367 114.491 172.055 114.471V130.018C172.055 130.018 108.716 129.975 108.028 129.996Z" fill="#031723"/>
<path d="M223.728 131.875L201.663 181.342C200.471 181.008 199.205 180.871 197.945 180.941L220.442 130.164C221.715 130.439 223.055 130.454 224.337 130.208C225.076 130.045 225.756 129.744 226.316 129.329C226.197 129.922 226.373 130.528 226.806 131.022C227.24 131.515 227.899 131.857 228.644 131.974C230.079 132.149 230.927 131.185 231.577 130.334C231.806 130.035 232.02 129.728 232.219 129.414C232.228 130.363 232.57 131.291 233.208 132.095C234.575 133.384 236.354 131.894 236.949 130.853C237.64 129.646 242.742 120.558 244.527 117.197C246.736 113.036 248.626 108.436 247.118 103.916C246.075 101.421 244.595 99.0539 242.72 96.8841C239.314 92.8493 235.638 88.9602 231.711 85.2334C233.847 77.1075 235.648 68.8436 236.354 64.9359C237.623 58.757 237.312 52.1042 231.553 47.8492C229.952 46.5909 227.917 45.7353 225.702 45.3904C223.488 45.0455 221.193 45.2269 219.109 45.9115C216.399 46.8241 213.943 48.1488 211.878 49.81C210.08 47.238 207.103 45.3078 203.56 44.4159C200.017 43.5238 196.177 43.7376 192.828 45.0133C188.37 46.6014 184.331 48.8393 180.922 51.6097C173.278 47.5697 165.982 43.9438 158.379 40.3535C148.93 35.9891 138.022 34.0046 127.11 34.6645C122.073 35.0426 117.161 36.1255 112.603 37.8626C99.0849 43.1135 90.6459 54.05 92.0878 65.9893C93.2053 75.9702 101.278 90.0853 111.172 98.4504C111.099 98.6091 111.026 98.7678 110.955 98.9276H102.516C98.7823 95.0556 95.136 91.0961 91.903 86.9504C88.7291 82.8557 86.3991 78.3881 85.0005 73.715C79.8324 57.0216 88.4925 41.7186 102.632 34.3493C103.226 34.193 103.005 33.4294 102.26 33.4708C101.873 33.4708 94.6123 34.799 90.5513 30.9132C87.1568 27.6667 88.5784 21.7971 95.7893 18.3425C96.4295 18.0216 95.8374 17.212 95.1928 17.5375C84.8085 22.7413 85.6655 31.6032 94.2092 34.0205C96.1051 34.5495 98.1222 34.7522 100.125 34.615C81.5405 45.6964 76.4495 67.4326 89.9402 86.1856C93.3522 90.5862 97.0569 94.8406 101.039 98.9311H84.5058C84.3877 98.9273 84.2713 98.9542 84.1745 99.0079C84.0778 99.0615 84.006 99.1388 83.9704 99.2278C83.8714 99.3428 84.3603 98.3078 64.9535 142.116H37.745C37.5891 142.118 37.4401 142.168 37.3298 142.255C37.2195 142.341 37.1565 142.46 37.1543 142.583V181.2C37.1565 181.323 37.2195 181.441 37.3298 181.528C37.4401 181.615 37.5891 181.664 37.745 181.667H47.4324C47.1501 182.306 48.9514 178.283 41.3491 195.401C41.1745 195.919 41.7434 195.995 42.3443 195.996C43.2493 195.996 45.7242 195.996 52.6879 195.996C53.3486 196.744 54.3101 197.294 55.4162 197.557C56.5224 197.82 57.7082 197.778 58.7814 197.441C59.7056 197.072 60.5452 196.583 61.2651 195.996H67.7224C68.1769 196.42 68.495 196.925 68.6492 197.468C68.8036 198.01 68.7895 198.575 68.6085 199.112C68.6085 199.112 42.0024 199.112 41.918 199.112C41.7662 199.118 41.623 199.17 41.5183 199.257C41.4135 199.344 41.3552 199.459 41.3552 199.58C41.3552 199.7 41.4135 199.815 41.5183 199.902C41.623 199.99 41.7662 200.041 41.918 200.047H68.0672C66.1219 202.218 63.4112 202.807 62.1017 205.286C60.6278 208.074 63.1493 210.462 67.5318 209.52C69.3322 208.961 71.0634 208.272 72.7029 207.461C73.326 207.092 74.0787 206.886 74.8568 206.87C75.635 206.854 76.4005 207.029 77.0472 207.371C77.6941 207.713 78.1907 208.205 78.4682 208.78C78.7458 209.355 78.7909 209.984 78.5971 210.58C77.8288 213.089 72.9618 212.659 70.6455 216.374C70.2711 216.976 70.1041 217.647 70.1613 218.317C70.2186 218.986 70.498 219.633 70.9714 220.191C71.5429 220.768 72.3343 221.185 73.2287 221.381C74.1232 221.575 75.0733 221.538 75.9388 221.274C77.9758 220.814 79.5574 219.686 81.4299 218.959C82.1169 218.599 82.9344 218.428 83.7566 218.471C84.579 218.514 85.3606 218.769 85.9812 219.198C86.6533 219.732 87.0369 220.452 87.0515 221.205C87.0662 221.957 86.7107 222.686 86.0598 223.236C85.4923 223.639 86.3318 224.299 86.8949 223.897C87.3709 223.492 87.7321 223.011 87.9546 222.487C88.1771 221.963 88.2556 221.407 88.1849 220.858C88.1144 220.307 87.8963 219.775 87.545 219.297C87.1939 218.819 86.7179 218.405 86.1485 218.084C85.3897 217.731 84.5272 217.541 83.6468 217.533C82.7662 217.526 81.8986 217.701 81.1302 218.04C78.5185 218.973 75.7263 221.324 72.828 220.281C71.0412 219.476 70.5291 217.014 73.41 215.059C74.9305 214.024 76.9413 213.586 78.4254 212.529C78.9508 212.105 79.3471 211.592 79.5841 211.028C79.8213 210.465 79.8929 209.866 79.7935 209.277C79.6943 208.689 79.4267 208.126 79.0112 207.631C78.5956 207.137 78.043 206.723 77.3952 206.423C76.5558 206.118 75.6354 205.98 74.7132 206.02C73.7912 206.06 72.8955 206.278 72.1034 206.653C70.4853 207.473 68.7573 208.15 66.9512 208.67C62.7507 209.453 61.2767 206.453 64.8633 203.781C66.5657 202.516 68.4848 201.628 69.3971 200.046C186.114 200.046 189.246 200.046 189.267 200.046C189.419 200.04 189.563 199.988 189.668 199.901C189.772 199.814 189.831 199.699 189.831 199.579C189.831 199.458 189.772 199.343 189.668 199.256C189.563 199.169 189.419 199.117 189.267 199.111H69.7827C70.0511 198.044 69.8201 196.936 69.1323 195.994H190.858C190.986 195.991 191.111 195.957 191.213 195.894C191.315 195.832 191.39 195.747 191.428 195.65C192.759 192.413 196.915 183.264 197.525 181.889C198.787 181.816 200.055 181.93 201.265 182.223C195.101 196.037 194.942 196.404 194.817 196.679C194.562 197.254 195.706 197.492 195.958 196.927C196.209 196.363 202.198 182.937 202.346 182.606C203.166 182.98 203.879 183.484 204.439 184.087C204.999 184.69 205.395 185.378 205.6 186.108C205.758 186.873 205.811 187.648 205.757 188.422C205.757 188.422 205.757 223.727 205.757 223.756C205.764 223.875 205.83 223.989 205.94 224.072C206.049 224.155 206.196 224.201 206.348 224.201C206.5 224.201 206.646 224.155 206.757 224.072C206.867 223.989 206.933 223.875 206.94 223.756C206.94 223.756 206.959 189.17 206.94 187.265C206.924 186.131 206.527 185.02 205.787 184.048C205.05 183.075 203.996 182.276 202.738 181.731C212.815 159.139 224.807 132.265 224.868 132.127C225.122 131.56 223.979 131.31 223.728 131.875ZM143.12 178.639C143.283 178.667 183.072 178.598 186.819 178.639L180.676 181.137H137.095C144.111 178.283 143.263 178.684 143.118 178.639H143.12ZM144.284 177.684L160.544 160.211C160.544 160.211 203.734 160.235 205.235 160.22L188.969 177.7C188.969 177.7 144.52 177.691 144.283 177.684H144.284ZM245.979 104.167C247.817 109.687 244.378 115.186 241.631 120.131L236.239 129.824C235.992 130.43 235.573 130.983 235.014 131.442C233.905 132.18 233.606 130.466 233.483 129.905C233.261 128.821 233.31 127.712 233.629 126.643C233.662 126.525 233.638 126.402 233.561 126.299C233.482 126.195 233.355 126.119 233.208 126.087C233.061 126.055 232.904 126.069 232.77 126.126C232.637 126.184 232.535 126.279 232.488 126.394C232.04 127.587 231.409 128.731 230.607 129.801C230.284 130.228 229.879 130.902 229.21 131.038C228.941 131.066 228.666 131.031 228.421 130.938C228.176 130.846 227.969 130.699 227.826 130.516C227.601 130.166 227.486 129.779 227.49 129.385C227.493 128.993 227.618 128.607 227.851 128.261C228.171 127.449 228.579 126.66 228.976 125.871C229.225 125.385 228.158 125.025 227.896 125.511C227.077 127.031 226.15 128.897 223.914 129.328C222.897 129.504 221.842 129.488 220.835 129.282C221.282 128.276 229.81 109.026 230.38 107.738C230.406 107.658 230.406 107.575 230.378 107.495C230.352 107.416 230.298 107.343 230.226 107.285C230.151 107.227 230.06 107.185 229.959 107.163C229.859 107.142 229.753 107.142 229.652 107.163C228.451 107.484 227.221 107.736 225.974 107.915C222.978 108.363 218.826 108.614 217.464 106.457C217.299 106.203 217.231 105.917 217.266 105.633C217.302 105.35 217.441 105.08 217.666 104.857C218.241 104.201 218.955 103.628 219.777 103.165C221.669 102.077 223.691 101.137 225.816 100.361C227.32 99.7936 227.055 99.9408 227.223 99.8338C227.319 99.8172 227.407 99.7786 227.477 99.7226C227.547 99.6665 227.594 99.5956 227.612 99.5187C228.865 95.1487 230.231 90.7948 231.395 86.4087C235.71 90.5982 244.159 98.969 245.979 104.167ZM215.826 48.415C224.589 43.133 233.675 47.7676 235.435 55.7417C236.404 60.1324 235.261 64.6611 234.353 68.9966C232.21 79.2201 229.552 89.4056 226.581 98.9299H207.205C210.739 88.7809 213.255 78.4271 214.727 67.965C215.628 62.1506 215.971 55.7175 212.501 50.6586C213.532 49.8432 214.644 49.0929 215.826 48.415ZM203.823 45.4606C208.727 46.9028 212.015 50.7829 213.268 54.7757C214.04 57.4407 214.312 60.1809 214.075 62.9085C212.888 75.0976 210.173 87.1636 205.971 98.9288C171.065 98.9288 173.594 98.9702 173.649 98.8437C176.884 87.4804 182.205 76.5521 189.441 66.4056C190.12 65.4534 190.827 64.5127 191.511 63.5628C191.577 63.4569 191.59 63.3351 191.546 63.2219C191.504 63.1089 191.408 63.0128 191.28 62.953C191.15 62.8932 190.997 62.8741 190.852 62.8995C190.706 62.925 190.577 62.9931 190.493 63.0902C182.157 74.0975 176.088 86.0815 172.512 98.5941C172.477 98.7076 172.5 98.8274 172.576 98.9276H156.396C155.487 97.2287 154.478 95.5662 153.371 93.9401C155.325 87.8723 157.908 81.942 161.094 76.2094C165.161 68.7854 170.665 61.9075 177.412 55.8233C184.175 49.8571 194.318 42.665 203.823 45.4584V45.4606ZM148.41 93.4387C148.245 97.3269 147.18 101.158 145.268 104.743C144.808 105.622 143.694 107.031 142.504 106.876C141.418 106.734 140.679 105.628 140.321 104.902C139.991 104.073 139.715 103.231 139.496 102.379C139.163 101.171 138.753 99.9799 138.38 98.7804C138.341 98.6723 138.253 98.5789 138.134 98.5174C138.015 98.456 137.871 98.4303 137.73 98.4454C137.589 98.4605 137.46 98.5152 137.365 98.5995C137.271 98.6838 137.218 98.7921 137.216 98.9046C137.088 101.373 137.267 104.681 135.859 106.495C135.688 106.741 135.452 106.956 135.166 107.123C134.88 107.29 134.551 107.406 134.202 107.462C133.854 107.519 133.494 107.515 133.148 107.45C132.802 107.385 132.477 107.262 132.198 107.088C131.248 106.162 130.576 105.077 130.234 103.916C129.506 102.263 129.205 100.501 128.601 98.8161C128.56 98.7095 128.472 98.6178 128.353 98.5575C128.234 98.4973 128.092 98.4724 127.952 98.4874C127.812 98.5023 127.684 98.556 127.589 98.6391C127.495 98.722 127.441 98.8288 127.437 98.9403C127.454 101.283 126.643 103.583 125.096 105.582C124.578 106.232 123.282 107.688 122.167 106.873C121.77 106.512 121.507 106.072 121.408 105.6C120.821 103.563 120.707 101.459 121.071 99.3899C121.07 99.2664 121.008 99.1482 120.897 99.0608C120.787 98.9735 120.637 98.9239 120.481 98.923H112.21C114.236 94.0996 117.557 89.6793 121.946 85.9648C124.256 83.9678 127.116 82.4163 130.303 81.4292C131.957 81.0049 133.708 80.8716 135.433 81.0389C137.159 81.2062 138.817 81.6699 140.292 82.3975C143.631 84.1381 146.415 86.4654 148.427 89.1975C150.997 92.2768 153.23 95.5235 155.103 98.9023C152.996 98.8552 150.883 98.8874 148.775 98.9138C149.21 97.1047 149.485 95.2736 149.595 93.4341C149.63 92.8372 148.447 92.8384 148.41 93.4387ZM117.728 37.214C119.622 38.6156 121.02 40.3841 121.783 42.3442C122.123 43.2929 122.382 44.5038 121.018 44.9972C116.74 46.2449 112.032 42.9468 108.734 40.7227C111.524 39.2454 114.548 38.0656 117.728 37.214ZM96.3874 76.5578C94.2895 72.2048 93.1831 67.5928 93.1194 62.9349C93.2326 58.6801 94.6082 54.5057 97.1354 50.7478C99.6626 46.9898 103.271 43.7534 107.669 41.2988C110.398 43.1491 113.37 45.2088 116.903 45.977C117.95 46.217 119.049 46.282 120.13 46.1679C120.68 46.1494 121.217 46.0304 121.699 45.8203C122.181 45.6102 122.596 45.3147 122.909 44.9569C124.531 42.8271 121.496 38.847 119.04 36.8851C131.87 33.8491 146.709 35.9651 157.781 41.1631C165.317 44.7243 172.74 48.43 180.05 52.2802C166.309 63.0269 157.497 77.7538 152.537 92.7751C147.615 85.8751 141.607 78.9556 131.742 80.1642C128.192 80.8535 124.95 82.3013 122.371 84.3491C117.553 87.9946 113.881 92.4802 111.647 97.4476C104.872 91.3451 99.6869 84.2464 96.3874 76.5578ZM38.3401 180.728C38.3401 180.613 38.378 143.167 38.375 143.047H127.519C127.519 143.047 127.459 179.305 127.507 180.728H38.3401ZM54.2418 195.989H59.4798C58.7669 196.51 57.8316 196.798 56.8608 196.798C55.8899 196.798 54.9548 196.51 54.2418 195.989ZM196.686 180.95H192.217C192.065 180.956 191.921 181.008 191.817 181.095C191.712 181.183 191.654 181.298 191.654 181.418C191.654 181.538 191.712 181.653 191.817 181.74C191.921 181.828 192.065 181.879 192.217 181.885H196.279C190.785 194.263 190.434 195.025 190.421 195.054H68.204C67.2008 194.318 65.8824 193.908 64.5134 193.908C63.1444 193.908 61.826 194.318 60.8228 195.054H53.3295C51.6054 192.562 52.9236 189.563 53.475 186.092C53.5696 185.497 52.3867 185.503 52.2921 186.092C51.8338 188.955 50.4355 192.269 52.0011 195.054H42.7502C44.0845 192.04 48.6823 181.663 48.6823 181.663C130.162 181.663 128.236 181.741 128.527 181.524C128.818 181.307 128.701 183.791 128.701 142.579C128.699 142.456 128.636 142.338 128.526 142.252C128.416 142.164 128.267 142.115 128.111 142.112H66.2019C66.9905 140.34 84.4971 101.046 84.9278 99.8626H119.848C119.525 101.924 119.692 104.014 120.34 106.027C120.508 106.569 120.835 107.073 121.294 107.499C122.538 108.514 124.296 107.916 125.278 106.99C126.81 105.475 127.843 103.683 128.282 101.775C128.483 102.524 128.731 103.265 129.026 103.995C129.416 105.339 130.184 106.597 131.272 107.675C131.941 108.185 132.837 108.466 133.766 108.456C134.696 108.447 135.582 108.148 136.234 107.624C137.391 106.483 138.049 105.076 138.108 103.615C138.322 102.272 138.203 102.073 138.315 102.472C138.847 104.373 139.479 106.872 141.727 107.647C143.445 108.241 145.016 107.098 145.801 105.983C146.902 104.289 147.729 102.493 148.264 100.637C148.388 100.51 148.379 100.413 148.527 99.8626C148.527 99.8626 221.464 99.8982 224.323 99.9074C221.654 100.97 218.546 102.322 216.882 104.11C216.573 104.401 216.346 104.741 216.215 105.106C216.083 105.472 216.05 105.855 216.117 106.231C216.38 107.089 217.055 107.832 218.001 108.301C220.01 109.345 222.748 109.221 225.023 108.979C226.319 108.839 227.602 108.626 228.859 108.339L206.289 159.275C170.205 159.275 160.396 159.26 160.249 159.275C160.115 159.29 159.987 159.331 159.878 159.393C159.767 159.456 159.679 159.538 159.617 159.634L142.716 177.804C142.355 177.928 143.569 177.459 134.356 181.204C134.247 181.258 134.164 181.338 134.117 181.432C134.071 181.526 134.064 181.63 134.097 181.728C134.131 181.825 134.203 181.912 134.304 181.974C134.404 182.037 134.527 182.071 134.655 182.075H180.815C181.026 182.075 180.395 182.25 189.563 178.575C189.804 178.479 189.23 178.992 205.131 161.91C202.316 168.255 199.5 174.602 196.688 180.95H196.686Z" fill="#031723"/>
<path d="M233.609 116.514C232.679 118.073 231.748 119.631 230.816 121.189C230.493 121.73 231.512 122.205 231.835 121.661L234.627 116.986C234.954 116.444 233.934 115.969 233.609 116.514Z" fill="#031723"/>
<path d="M236.08 122.559C237.104 120.702 238.127 118.844 239.151 116.986C239.452 116.44 238.434 115.964 238.133 116.515L235.058 122.087C234.756 122.634 235.776 123.11 236.08 122.559Z" fill="#031723"/>
<path d="M232.933 108.19L236.734 106.666C237.413 106.393 236.814 105.586 236.137 105.861L232.335 107.385C231.657 107.655 232.255 108.462 232.933 108.19Z" fill="#031723"/>
<path d="M254.271 218.01L248.325 215.165C249.548 213.376 252.372 209.248 252.559 208.975C252.615 208.894 252.64 208.802 252.633 208.71C252.624 208.618 252.582 208.53 252.511 208.457C252.439 208.383 252.343 208.328 252.233 208.297C252.124 208.267 252.004 208.263 251.891 208.285L243.597 209.808L231 202.747C230.921 202.711 230.833 202.689 230.742 202.684C230.652 202.678 230.56 202.69 230.476 202.717C230.392 202.744 230.316 202.786 230.256 202.839C230.195 202.893 230.152 202.958 230.127 203.027L227.78 215.24L220.869 218.88C220.733 218.943 220.636 219.045 220.597 219.166C220.557 219.285 220.578 219.413 220.656 219.52L224.477 223.79C225.031 224.41 224.804 224.235 229.402 224.235H248.198C248.354 224.233 248.501 224.182 248.61 224.095C248.719 224.007 248.78 223.89 248.78 223.767C248.575 222.913 248.265 222.077 247.855 221.269L254.278 218.817C254.37 218.777 254.446 218.719 254.498 218.647C254.55 218.576 254.578 218.494 254.578 218.413C254.577 218.33 254.548 218.248 254.494 218.178C254.44 218.107 254.363 218.049 254.271 218.01ZM246.835 220.621C246.723 220.674 246.635 220.753 246.586 220.848C246.538 220.944 246.529 221.05 246.564 221.148C246.842 221.866 247.12 222.583 247.396 223.299H225.48L221.998 219.406C228.992 215.726 228.826 215.896 228.919 215.543C229.174 214.554 228.734 216.505 231.142 203.967L242.951 210.586C243.091 210.666 243.252 210.72 243.424 210.741C243.596 210.762 243.77 210.75 243.935 210.706L250.904 209.425C249.798 211.041 247.213 214.821 247.027 215.095C246.95 215.203 246.929 215.329 246.97 215.448C247.009 215.568 247.105 215.67 247.239 215.734L252.736 218.368L246.835 220.621Z" fill="#031723"/>
</svg>
