<svg width="42" height="39" viewBox="0 0 42 39" fill="none" xmlns="http://www.w3.org/2000/svg">
<path d="M27.614 20.2207L28.1099 19.3523C27.8026 19.1768 27.4254 19.1768 27.1181 19.3523C26.8108 19.5277 26.6191 19.8525 26.6141 20.2063L27.614 20.2207ZM34.3721 24.0803L33.8761 24.9487L33.8762 24.9487L34.3721 24.0803ZM41 35.5103L40.5039 36.3786C40.8134 36.5554 41.1935 36.5541 41.5018 36.3752C41.8101 36.1964 41.9999 35.867 42 35.5105L41 35.5103ZM34.3318 31.7003L33.8344 32.5678L33.8357 32.5686L34.3318 31.7003ZM20.9582 1L21.4627 0.136596C21.1534 -0.0441196 20.7711 -0.0456161 20.4604 0.132673C20.1497 0.310962 19.9582 0.641802 19.9582 1L20.9582 1ZM21.0698 1.06521L20.5652 1.92862L20.5674 1.92985L21.0698 1.06521ZM27.614 12.4455H28.614V12.4455L27.614 12.4455ZM27.614 20.4008L28.614 20.4014V20.4008H27.614ZM27.614 27.8655L27.1129 28.7309L27.1183 28.734L27.614 27.8655ZM20.9241 9.08883L21.924 9.10271C21.931 8.59506 21.5566 8.16269 21.0531 8.09719C20.5496 8.03169 20.077 8.35384 19.9539 8.8464L20.9241 9.08883ZM14.3551 20.1213L13.3551 20.1269C13.3571 20.4807 13.5459 20.8071 13.8515 20.9853C14.1572 21.1635 14.5343 21.1668 14.8431 20.9941L14.3551 20.1213ZM14.3117 12.3585L13.3117 12.3638L13.3117 12.3641L14.3117 12.3585ZM20.9582 1.01242L21.9582 1.01733C21.9599 0.659062 21.7699 0.327225 21.46 0.14744C21.1501 -0.0323451 20.7677 -0.0326035 20.4575 0.146763L20.9582 1.01242ZM20.921 8.5827L19.921 8.57778V8.5827H20.921ZM20.921 9.10125H19.921C19.921 9.6063 20.2976 10.0321 20.7988 10.0938C21.3001 10.1554 21.7687 9.83367 21.8911 9.34368L20.921 9.10125ZM1.06201 35.5196H0.0620098C0.0620098 35.877 0.252755 36.2072 0.562344 36.3858C0.871934 36.5644 1.2533 36.5642 1.56268 36.3852L1.06201 35.5196ZM1.06201 35.3892L0.0620098 35.3872V35.3892H1.06201ZM7.62792 24.0244L7.12735 23.1588L7.12731 23.1588L7.62792 24.0244ZM14.5069 20.0468L14.0065 19.181L14.0064 19.1811L14.5069 20.0468ZM20.921 9.08883L21.9209 9.08325C21.9179 8.53462 21.4734 8.0909 20.9247 8.08884C20.3761 8.08677 19.9282 8.52714 19.921 9.07574L20.921 9.08883ZM20.9613 16.3144L21.9613 16.3148L21.9612 16.3089L20.9613 16.3144ZM8.07433 31.5078L7.58453 30.6358L7.57245 30.6429L8.07433 31.5078ZM20.9085 31.6817L21.4139 32.5446C21.7189 32.3659 21.9069 32.0396 21.9085 31.6862C21.9101 31.3328 21.7251 31.0048 21.4217 30.8234L20.9085 31.6817ZM14.1969 35.6128L13.6915 34.7499L13.6915 34.7499L14.1969 35.6128ZM1 35.65L0.494485 34.7872C0.187308 34.9672 -0.0010215 35.2969 4.17233e-06 35.6529C0.00102979 36.0089 0.191256 36.3375 0.499465 36.5157L1 35.65ZM7.62482 31.7686L7.12293 30.9037L7.1193 30.9058L7.62482 31.7686ZM20.9613 24.012L21.4619 23.1464C21.1523 22.9673 20.7705 22.9672 20.4608 23.1462L20.9613 24.012ZM40.8574 35.5196L41.3569 36.3859C41.6664 36.2075 41.8572 35.8775 41.8574 35.5203C41.8577 35.1631 41.6673 34.8328 41.3581 34.6539L40.8574 35.5196ZM27.5272 35.5196L27.0252 36.3845L27.0277 36.3859L27.5272 35.5196ZM20.7598 31.5916L21.2617 30.7267L21.2608 30.7262L20.7598 31.5916ZM8.07743 31.5078L7.57196 30.6449C7.09851 30.9223 6.93699 31.5293 7.20999 32.0053C7.48299 32.4813 8.08853 32.6484 8.56698 32.3798L8.07743 31.5078ZM14.3054 27.8593L13.805 26.9935L13.8 26.9964L14.3054 27.8593ZM20.4124 32.5463C20.8899 32.8238 21.5019 32.6616 21.7794 32.1841C22.0569 31.7066 21.8947 31.0945 21.4172 30.817L20.4124 32.5463ZM34.3938 30.5833C32.6074 29.5199 31.1324 28.0034 30.1175 26.1866L28.3715 27.1619C29.5577 29.2855 31.282 31.0584 33.3708 32.3019L34.3938 30.5833ZM30.1175 26.1866C29.1027 24.3698 28.584 22.3169 28.6139 20.235L26.6141 20.2063C26.5792 22.6392 27.1853 25.0384 28.3715 27.1619L30.1175 26.1866ZM27.118 21.089L33.8761 24.9487L34.868 23.212L28.1099 19.3523L27.118 21.089ZM33.8762 24.9487C35.7363 26.011 37.2829 27.5475 38.3585 29.4025L40.0886 28.3992C38.8361 26.2391 37.0349 24.4494 34.868 23.212L33.8762 24.9487ZM38.3585 29.4025C39.4341 31.2574 40.0005 33.3647 40 35.51L42 35.5105C42.0006 33.0128 41.3412 30.5593 40.0886 28.3992L38.3585 29.4025ZM41.4961 34.642L34.8279 30.832L33.8357 32.5686L40.5039 36.3786L41.4961 34.642ZM34.8292 30.8328L34.3797 30.5751L33.3849 32.3101L33.8344 32.5678L34.8292 30.8328ZM21.9582 24.012V1H19.9582V24.012H21.9582ZM20.4536 1.8634L20.5652 1.92861L21.5743 0.201806L21.4627 0.136596L20.4536 1.8634ZM20.5674 1.92985C22.4062 2.99828 23.9328 4.53194 24.994 6.37745L26.7278 5.38044C25.492 3.23145 23.7142 1.44516 21.5721 0.200564L20.5674 1.92985ZM24.994 6.37745C26.0553 8.22296 26.614 10.3155 26.614 12.4455L28.614 12.4455C28.614 9.96573 27.9636 7.52941 26.7278 5.38044L24.994 6.37745ZM26.614 12.4455V20.4008H28.614V12.4455H26.614ZM26.614 20.4001C26.6124 22.8004 27.2344 25.1599 28.419 27.2466L30.1583 26.2592C29.1448 24.474 28.6126 22.4553 28.614 20.4014L26.614 20.4001ZM28.419 27.2466C29.6036 29.3334 31.3101 31.0756 33.3709 32.3019L34.3937 30.5832C32.6314 29.5345 31.1717 28.0444 30.1583 26.2592L28.419 27.2466ZM34.3779 30.5741L28.1096 26.997L27.1183 28.734L33.3866 32.3111L34.3779 30.5741ZM28.115 27.0001L21.4592 23.1466L20.4571 24.8775L27.1129 28.7309L28.115 27.0001ZM28.614 20.4007L28.614 20.2206L26.614 20.2207L26.614 20.4008L28.614 20.4007ZM26.614 20.2207C26.614 20.2518 26.614 20.2821 26.614 20.312C26.614 20.3419 26.614 20.3713 26.614 20.4008H28.614C28.614 20.3712 28.614 20.3417 28.614 20.3118C28.614 20.2819 28.614 20.2517 28.614 20.2207H26.614ZM19.9242 9.07495C19.8953 11.1544 19.3202 13.1895 18.2568 14.9755L19.9752 15.9987C21.2182 13.9112 21.8903 11.5328 21.924 9.10271L19.9242 9.07495ZM18.2568 14.9755C17.1934 16.7614 15.6793 18.2351 13.867 19.2485L14.8431 20.9941C16.9623 19.8091 18.7323 18.0861 19.9752 15.9987L18.2568 14.9755ZM15.355 20.1157L15.3116 12.3529L13.3117 12.3641L13.3551 20.1269L15.355 20.1157ZM15.3116 12.3533C15.2888 8.00697 17.6652 4.07207 21.4588 1.87808L20.4575 0.146763C16.0795 2.67875 13.2849 7.25809 13.3117 12.3638L15.3116 12.3533ZM19.9582 1.00751L19.921 8.57778L21.921 8.58761L21.9582 1.01733L19.9582 1.00751ZM19.921 8.5827V9.10125H21.921V8.5827H19.921ZM21.8911 9.34368L21.8943 9.33126L19.9539 8.8464L19.9508 8.85882L21.8911 9.34368ZM20.4575 23.1464L0.56134 34.654L1.56268 36.3852L21.4588 24.8777L20.4575 23.1464ZM2.06201 35.5196V35.3892H0.0620098V35.5196H2.06201ZM2.06201 35.3912C2.06627 33.2617 2.62902 31.1707 3.69379 29.3277L1.96203 28.3272C0.722141 30.4733 0.0669719 32.9079 0.0620117 35.3872L2.06201 35.3912ZM3.69379 29.3277C4.75855 27.4848 6.28789 25.9545 8.12853 24.8901L7.12731 23.1588C4.98309 24.3988 3.20193 26.1811 1.96203 28.3272L3.69379 29.3277ZM8.12849 24.8901L15.0075 20.9125L14.0064 19.1811L7.12735 23.1588L8.12849 24.8901ZM15.0074 20.9126C17.0832 19.7128 18.8119 17.9932 20.0238 15.9226L18.2978 14.9123C17.2608 16.6839 15.782 18.1548 14.0065 19.181L15.0074 20.9126ZM20.0238 15.9226C21.2358 13.8521 21.8895 11.5016 21.9209 9.10192L19.921 9.07574C19.8942 11.1294 19.3347 13.1407 18.2978 14.9123L20.0238 15.9226ZM19.921 9.09441L19.9613 16.32L21.9612 16.3089L21.9209 9.08325L19.921 9.09441ZM19.9613 16.314L19.9582 24.0116L21.9582 24.0124L21.9613 16.3148L19.9613 16.314ZM14.0077 19.1821L13.8527 19.2722L14.8573 21.0015L15.0124 20.9115L14.0077 19.1821ZM8.56408 32.3797C10.3761 31.3618 12.424 30.8407 14.5012 30.8688L14.5283 28.869C12.0988 28.8361 9.70363 29.4456 7.58458 30.6359L8.56408 32.3797ZM14.5012 30.8688C16.5783 30.897 18.6114 31.4734 20.3954 32.54L21.4217 30.8234C19.3356 29.5761 16.9578 28.9019 14.5283 28.869L14.5012 30.8688ZM20.4031 30.8188L13.6915 34.7499L14.7023 36.4756L21.4139 32.5446L20.4031 30.8188ZM13.6915 34.7499C11.8431 35.8326 9.74168 36.406 7.60065 36.412L7.6063 38.412C10.1009 38.405 12.5491 37.7369 14.7023 36.4756L13.6915 34.7499ZM7.60065 36.412C5.45962 36.4181 3.35502 35.8565 1.50053 34.7843L0.499465 36.5157C2.65977 37.7648 5.1117 38.419 7.6063 38.412L7.60065 36.412ZM1.50551 36.5128L8.13033 32.6314L7.1193 30.9058L0.494485 34.7872L1.50551 36.5128ZM8.12669 32.6336L8.57621 32.3727L7.57245 30.6429L7.12294 30.9037L8.12669 32.6336ZM20.4606 24.8777L40.3567 36.3852L41.3581 34.6539L21.4619 23.1464L20.4606 24.8777ZM40.358 34.6532C38.4823 35.7346 36.3562 36.3036 34.1923 36.3036V38.3036C36.707 38.3036 39.1776 37.6423 41.3569 36.3859L40.358 34.6532ZM34.1923 36.3036C32.0284 36.3036 29.9023 35.7346 28.0266 34.6532L27.0277 36.3859C29.207 37.6423 31.6776 38.3036 34.1923 38.3036V36.3036ZM28.0292 34.6547L21.2617 30.7267L20.2578 32.4565L27.0252 36.3845L28.0292 34.6547ZM21.2608 30.7262C19.1854 29.5247 16.8336 28.8845 14.4363 28.8686L14.4231 30.8686C16.4728 30.8822 18.4839 31.4295 20.2587 32.457L21.2608 30.7262ZM14.4363 28.8686C12.039 28.8528 9.67892 29.4618 7.58788 30.6358L8.56698 32.3798C10.3552 31.3758 12.3733 30.8551 14.4231 30.8686L14.4363 28.8686ZM8.58291 32.3706L14.8109 28.7221L13.8 26.9964L7.57196 30.6449L8.58291 32.3706ZM14.8059 28.725L21.4617 24.8778L20.4608 23.1462L13.805 26.9935L14.8059 28.725ZM20.2573 32.4562L20.4124 32.5463L21.4172 30.817L21.2622 30.727L20.2573 32.4562Z" fill="url(#paint0_linear_51_525)"/>
<defs>
<linearGradient id="paint0_linear_51_525" x1="1.84507" y1="0.999998" x2="24.6439" y2="-5.27351" gradientUnits="userSpaceOnUse">
<stop stop-color="#6C63FF"/>
<stop offset="1" stop-color="#47E6B1"/>
</linearGradient>
</defs>
</svg>
