<svg width="300" height="300" viewBox="0 0 303 303" fill="none" xmlns="http://www.w3.org/2000/svg">
<path fill-rule="evenodd" clip-rule="evenodd" d="M144.683 228.977C141.653 228.977 134.244 241.946 135.38 245.445C136.123 247.733 140.259 248.187 142.652 248.293C145.046 248.399 151.5 248.096 153.47 246.778C153.764 246.548 153.989 246.241 154.12 245.891C154.251 245.54 154.283 245.161 154.212 244.794C154.06 240.234 149.152 228.765 144.683 228.977ZM152.697 245.43C150.833 246.688 141.577 247.521 137.941 245.96C136.714 245.43 136.32 245.097 136.971 242.597C138.032 238.476 142.516 229.659 144.698 229.538C148.955 229.583 153.47 243.279 152.697 245.43ZM30.6485 146.349C38.6932 148.197 63.9785 149.985 66.8722 142.41C69.4174 135.668 51.7222 108.641 45.95 110.307C38.0417 112.11 22.316 137.865 25.2703 143.683C26.0278 145.213 28.9063 145.94 30.6485 146.349ZM46.2379 111.504C50.5708 110.519 66.0541 136.805 64.2209 141.425C63.115 144.258 53.525 144.895 50.4193 144.986C44.0563 145.198 32.4211 144.501 28.3306 142.607C24.8309 140.986 39.0568 113.625 46.2379 111.474V111.504Z" fill="rgb(3,23,35)"/>
<path fill-rule="evenodd" clip-rule="evenodd" d="M47.5256 127.26C47.7154 124.85 47.7154 122.428 47.5256 120.018C46.5863 112.443 44.7077 115.988 44.7228 123.654C44.6925 131.017 46.556 135.002 47.5256 127.26ZM44.1017 140.334C44.7219 140.653 45.4187 140.792 46.1135 140.735C46.8084 140.679 47.4737 140.429 48.0344 140.015C48.5952 139.601 49.029 139.038 49.2871 138.391C49.5452 137.743 49.6172 137.036 49.4951 136.35C49.4951 134.835 47.268 133.153 44.9501 133.683C44.2697 133.886 43.6629 134.283 43.2033 134.824C42.7438 135.365 42.4514 136.028 42.3615 136.733C42.2717 137.437 42.3883 138.152 42.6972 138.792C43.0061 139.431 43.494 139.967 44.1017 140.334ZM60.4334 81.5675C74.1593 88.0062 87.7034 79.9161 86.0672 66.0084C85.643 57.6608 78.2952 52.1159 69.9779 51.5856C60.6909 51.0099 53.3129 56.7669 52.1615 65.5842C51.6819 68.78 52.2234 72.0456 53.7087 74.9156C55.194 77.7856 57.5474 80.1135 60.4334 81.5675ZM84.84 66.1145C85.4915 79.2192 72.3867 84.6126 61.2818 78.7344C67.7983 71.9673 73.6574 64.5966 78.78 56.7215C80.443 57.7174 81.8544 59.0826 82.9053 60.7114C83.9561 62.3402 84.6181 64.1889 84.84 66.1145ZM55.0854 65.9478C56.4489 54.6308 69.084 51.8129 77.4771 56.0246C70.7464 62.5581 64.8718 69.9192 59.994 77.9315C58.1837 76.5526 56.7763 74.7136 55.9183 72.6059C55.0603 70.4982 54.7832 68.199 55.1157 65.9478H55.0854ZM234.007 128.351C233.746 128.978 233.618 129.652 233.631 130.331C233.644 131.01 233.798 131.679 234.082 132.296C234.367 132.912 234.777 133.463 235.285 133.913C235.794 134.363 236.39 134.703 237.037 134.911C243.097 136.956 245.885 127.896 240.264 125.548C239.67 125.306 239.034 125.187 238.394 125.198C237.753 125.209 237.121 125.35 236.536 125.612C235.952 125.874 235.426 126.252 234.991 126.722C234.556 127.193 234.222 127.747 234.007 128.351ZM237.128 131.638C236.873 131.321 236.708 130.942 236.65 130.539C236.592 130.137 236.643 129.726 236.798 129.35C236.953 128.974 237.205 128.646 237.53 128.401C237.854 128.156 238.239 128.003 238.643 127.957C244.324 127.351 241.43 135.638 237.128 131.638ZM103.172 33.5874C109.398 36.4508 108.807 24.4974 102.869 27.6335C102.475 27.409 102.037 27.2756 101.585 27.243C101.133 27.2105 100.68 27.2796 100.258 27.4452C99.8368 27.6109 99.4579 27.869 99.1492 28.2005C98.8406 28.5319 98.6103 28.9283 98.475 29.3606C98.2593 29.9973 98.235 30.6833 98.405 31.3338C98.575 31.9842 98.9319 32.5705 99.4317 33.0203C99.9314 33.47 100.552 33.7634 101.217 33.8642C101.881 33.965 102.561 33.8688 103.172 33.5874ZM105.489 28.8758C108.307 30.0878 106.717 33.4208 104.262 32.5118C104.585 31.9199 104.744 31.2526 104.723 30.5788C104.701 29.905 104.501 29.2491 104.141 28.6788C104.6 28.603 105.071 28.6718 105.489 28.8758ZM103.172 29.2091C103.41 29.3568 103.612 29.5569 103.761 29.7941C103.911 30.0313 104.005 30.2996 104.036 30.5784C104.066 30.8572 104.033 31.1394 103.938 31.4035C103.844 31.6676 103.69 31.9067 103.49 32.1027C103.26 31.9477 103.067 31.7446 102.924 31.5074C102.781 31.2703 102.691 31.0049 102.661 30.7296C102.631 30.4542 102.661 30.1756 102.749 29.9131C102.837 29.6505 102.981 29.4103 103.172 29.2091ZM101.747 28.6485C101.338 29.244 101.134 29.9569 101.167 30.6788C101.2 31.4008 101.467 32.0922 101.929 32.6481C101.292 32.5627 100.701 32.2699 100.248 31.8149C99.9868 31.5399 99.8153 31.1925 99.7555 30.8182C99.6958 30.444 99.7507 30.0604 99.9129 29.7179C100.075 29.3754 100.337 29.09 100.665 28.8992C100.992 28.7083 101.369 28.6209 101.747 28.6485Z" fill="rgb(3,23,35)"/>
<path fill-rule="evenodd" clip-rule="evenodd" d="M250.536 128.184C250.62 128.317 250.754 128.41 250.907 128.444C251.06 128.479 251.221 128.45 251.354 128.366C251.486 128.282 251.58 128.148 251.614 127.994C251.648 127.841 251.62 127.68 251.536 127.548C250.573 125.53 249.17 123.754 247.43 122.351C243.807 119.616 239.276 118.37 234.764 118.867C232.542 119.215 230.451 120.145 228.704 121.564C228.575 121.651 228.485 121.786 228.452 121.938C228.42 122.091 228.447 122.25 228.529 122.383C228.611 122.516 228.742 122.612 228.893 122.651C229.044 122.691 229.204 122.67 229.341 122.594C236.052 119.685 246.082 123.094 250.536 128.184Z" fill="rgb(3,23,35)"/>
<path fill-rule="evenodd" clip-rule="evenodd" d="M256.565 124.063C256.643 124.191 256.767 124.285 256.911 124.325C257.056 124.365 257.21 124.349 257.343 124.28C257.476 124.21 257.577 124.093 257.627 123.952C257.677 123.81 257.671 123.655 257.611 123.518C256.407 120.546 254.542 117.888 252.157 115.746C249.693 113.604 246.782 112.041 243.637 111.171C240.491 110.301 237.19 110.145 233.977 110.716C230.821 111.404 227.911 112.933 225.553 115.14C225.451 115.244 225.389 115.381 225.38 115.527C225.371 115.673 225.414 115.817 225.503 115.933C225.591 116.049 225.718 116.129 225.861 116.159C226.004 116.188 226.153 116.166 226.28 116.094C236.582 109.731 250.278 114.458 256.565 124.063Z" fill="rgb(3,23,35)"/>
<path fill-rule="evenodd" clip-rule="evenodd" d="M221.629 108.065C221.521 108.17 221.456 108.312 221.447 108.463C221.438 108.614 221.486 108.762 221.58 108.88C221.675 108.997 221.81 109.075 221.959 109.098C222.109 109.121 222.261 109.088 222.387 109.004C225.651 106.716 229.388 105.189 233.321 104.536C237.254 103.883 241.283 104.121 245.112 105.232C252.799 107.654 259.315 112.842 263.398 119.791C263.466 119.934 263.588 120.044 263.737 120.096C263.887 120.149 264.051 120.14 264.193 120.071C264.336 120.003 264.446 119.881 264.498 119.732C264.551 119.583 264.542 119.419 264.474 119.276C257.55 102.081 235.81 94.8846 221.629 108.065ZM71.8715 37.3903C74.5531 39.0114 100.505 39.6628 109.383 37.7842C110.474 37.557 112.246 37.1176 112.807 36.1783C113.973 34.2088 113.746 11.9383 112.261 9.8931C111.595 8.9538 109.095 8.57505 107.883 8.3781C99.0052 7.09035 71.0989 7.1964 70.4929 9.57495C69.5384 13.2261 69.6899 30.4516 71.417 36.8449C71.4531 36.9613 71.5118 37.0694 71.5898 37.163C71.6678 37.2566 71.7636 37.3339 71.8715 37.3903ZM71.0989 9.72645C73.538 7.9842 110.489 8.21145 111.246 11.2414C111.412 12.0059 111.528 12.7801 111.595 13.5594C97.8538 13.2109 78.5072 13.6806 70.6898 13.8624C70.5921 12.4705 70.7304 11.0722 71.0989 9.72645ZM112.004 20.1648C112.243 25.0849 112.136 30.0157 111.686 34.9209C111.58 35.4663 111.686 35.4814 111.11 35.7238C106.156 38.1024 77.8406 37.8751 72.5684 36.3601C71.447 30.9611 70.8484 25.4666 70.7807 19.9527C82.8856 20.3011 100.429 20.5132 111.974 20.1648H112.004Z" fill="rgb(3,23,35)"/>
<path fill-rule="evenodd" clip-rule="evenodd" d="M86.552 31.3603C86.5964 31.3704 86.6425 31.3704 86.6868 31.3603C86.7312 31.3501 86.7727 31.3301 86.8083 31.3017C86.8439 31.2733 86.8726 31.2373 86.8923 31.1963C86.9121 31.1553 86.9223 31.1104 86.9223 31.0649C86.9223 31.0194 86.9121 30.9744 86.8923 30.9334C86.8726 30.8924 86.8439 30.8564 86.8083 30.828C86.7727 30.7996 86.7312 30.7796 86.6868 30.7695C86.6425 30.7593 86.5964 30.7593 86.552 30.7694C81.3556 29.8301 80.492 30.3301 75.6743 30.527C74.1593 30.527 73.5836 31.5269 75.7652 31.3451C77.9468 31.1633 80.0224 32.2996 86.552 31.3603ZM191.557 28.7848C190.526 29.9968 193.072 32.9662 194.587 32.1632C195.359 31.739 196.965 30.6482 197.708 30.224C197.762 31.3779 197.893 32.5269 198.101 33.6631C198.374 34.5418 199.616 34.7387 200.525 34.7387C201.434 34.7387 202.798 34.466 202.919 33.4813C203.04 32.4965 203.086 31.1482 203.116 30.4513C203.813 30.8906 205.313 31.8602 206.025 32.2541C207.464 33.0571 210.131 30.0725 209.055 28.8151C207.726 27.5529 206.325 26.3691 204.858 25.27C206.404 24.2029 207.817 22.957 209.07 21.5582C210.04 20.0432 207.419 17.6041 206.222 18.1495C205.074 18.7443 203.975 19.4281 202.934 20.1947C202.878 19.0274 202.674 17.872 202.328 16.7557C201.768 15.4225 198.329 15.7406 198.101 16.7557C197.92 18.0198 197.844 19.2968 197.874 20.5735C196.757 19.7437 195.583 18.9945 194.359 18.3313C193.314 17.8616 190.951 20.1947 191.769 21.3613C193.025 22.788 194.438 24.0686 195.98 25.1791C194.435 26.2918 192.958 27.4959 191.557 28.7848ZM197.253 25.7548C197.325 25.7012 197.384 25.6315 197.424 25.5513C197.464 25.4711 197.485 25.3825 197.485 25.2927C197.485 25.2029 197.464 25.1144 197.424 25.0341C197.384 24.9539 197.325 24.8842 197.253 24.8306C195.543 23.6927 193.95 22.3885 192.496 20.9371C192.208 20.528 193.708 18.9827 194.011 19.1039C195.382 19.7929 196.704 20.5776 197.965 21.4522C198.007 21.4999 198.063 21.5325 198.125 21.5452C198.187 21.5578 198.251 21.5498 198.308 21.5222C198.365 21.4946 198.411 21.4491 198.439 21.3926C198.468 21.3362 198.477 21.2719 198.465 21.2098C198.472 19.8084 198.594 18.41 198.829 17.0284C199.556 16.589 201.313 16.7708 201.45 17.1496C201.754 18.5019 201.907 19.8841 201.904 21.2704C201.909 21.3667 201.94 21.4599 201.993 21.5405C202.045 21.6211 202.119 21.6863 202.205 21.7294C202.291 21.7725 202.387 21.792 202.483 21.7859C202.58 21.7798 202.672 21.7483 202.753 21.6946C203.989 20.8228 205.285 20.0381 206.631 19.3463C206.944 19.4932 207.223 19.7039 207.45 19.9648C207.677 20.2256 207.847 20.531 207.949 20.8613C207.447 21.4544 206.883 21.9927 206.267 22.4672C203.465 24.7852 203.01 24.6791 203.01 25.3003C203.01 25.9214 203.162 25.6942 206.207 28.2091C208.025 29.7241 207.934 29.618 207.722 29.9816C206.404 32.0269 206.207 30.7391 202.874 28.4666C202.764 28.394 202.637 28.3518 202.505 28.3446C202.374 28.3373 202.242 28.3652 202.125 28.4253C202.008 28.4855 201.909 28.5757 201.838 28.6868C201.767 28.7979 201.727 28.9258 201.722 29.0575C201.586 32.7844 201.934 34.057 199.526 33.148C199.427 32.6478 199.361 32.1417 199.329 31.633C199.056 28.8605 199.329 28.603 198.723 28.3151C198.117 28.0273 194.056 30.83 194.056 30.9361C194.056 31.0421 193.057 30.3604 192.754 29.5877C193.42 28.7848 196.42 26.3911 197.253 25.7548ZM211.585 29.0272C210.555 30.2543 213.176 33.2086 214.615 32.4208C215.372 31.9966 217.024 30.9058 217.751 30.4664C217.797 31.6209 217.929 32.7704 218.145 33.9055C218.402 34.7842 219.66 34.9963 220.554 34.9811C221.448 34.966 222.826 34.7084 222.947 33.7388C223.069 32.7692 223.129 31.4057 223.16 30.6331C223.841 31.0724 225.341 32.042 226.053 32.4359C227.568 33.2389 230.159 30.2543 229.083 28.9969C227.752 27.7358 226.346 26.557 224.872 25.4669C226.399 24.3839 227.802 23.1339 229.053 21.74C230.023 20.3008 227.386 17.7859 226.205 18.3313C225.061 18.9338 223.963 19.6172 222.917 20.3765C222.861 19.2142 222.657 18.0637 222.311 16.9526C221.735 15.6194 218.296 15.9224 218.069 16.9526C217.887 18.2218 217.811 19.5038 217.842 20.7856C216.732 19.9492 215.562 19.1948 214.342 18.5282C213.297 18.0586 210.918 20.3917 211.736 21.5582C212.998 22.99 214.415 24.2757 215.963 25.3912C214.429 26.5105 212.967 27.7249 211.585 29.0272ZM217.281 25.9214C217.354 25.8663 217.412 25.7952 217.452 25.7138C217.493 25.6323 217.514 25.5427 217.514 25.4518C217.514 25.3609 217.493 25.2713 217.452 25.1898C217.412 25.1083 217.354 25.0373 217.281 24.9821C215.574 23.8404 213.981 22.5365 212.524 21.0886C212.236 20.6795 213.751 19.1342 214.039 19.2554C215.416 19.9406 216.738 20.7307 217.993 21.6188C218.038 21.6485 218.09 21.6656 218.144 21.6685C218.198 21.6713 218.251 21.6598 218.299 21.6352C218.347 21.6105 218.387 21.5735 218.416 21.528C218.445 21.4826 218.461 21.4302 218.463 21.3764C218.474 19.9696 218.601 18.566 218.842 17.1799C219.645 16.7254 221.326 16.9526 221.448 17.3011C221.76 18.6522 221.912 20.0352 221.902 21.4219C221.91 21.5185 221.943 21.6114 221.998 21.6915C222.052 21.7715 222.127 21.8361 222.214 21.8788C222.301 21.9216 222.397 21.941 222.494 21.9353C222.591 21.9295 222.684 21.8988 222.766 21.8461C224.001 20.9798 225.291 20.1954 226.629 19.4978C226.941 19.6483 227.22 19.86 227.449 20.1202C227.678 20.3804 227.853 20.684 227.962 21.0128C227.456 21.6022 226.893 22.1401 226.28 22.6187C223.478 24.9367 223.008 24.8306 223.008 25.4518C223.008 26.0729 223.175 25.8457 226.205 28.3606C226.993 29.012 227.583 29.5271 227.856 29.8756C226.917 32.2541 226.341 31.0421 222.857 28.7393C222.747 28.6667 222.619 28.6245 222.488 28.6173C222.356 28.61 222.225 28.6379 222.108 28.698C221.991 28.7582 221.892 28.8484 221.821 28.9595C221.75 29.0706 221.71 29.1985 221.705 29.3302C221.705 30.3301 221.599 32.1026 221.523 33.1025C221.523 33.5267 221.523 33.4964 221.281 33.5267C220.689 33.6026 220.087 33.5666 219.508 33.4207C219.508 33.1177 219.387 32.5874 219.311 31.9057C219.039 29.1029 219.236 28.8757 218.705 28.5878C216.872 27.6788 214.312 33.8297 212.736 29.8604C213.433 29.012 216.403 26.6183 217.281 25.9214ZM171.195 29.0272C170.18 30.2392 172.71 33.1934 174.225 32.4056C174.998 31.9814 176.619 30.8906 177.361 30.4664C177.408 31.6209 177.54 32.7703 177.755 33.9055C178.028 34.7842 179.27 34.9811 180.164 34.9811C181.058 34.9811 182.452 34.7084 182.573 33.7237C182.694 32.7389 182.739 31.3906 182.77 30.6179C183.451 31.0724 184.966 32.042 185.663 32.4359C187.178 33.2389 189.784 30.2543 188.693 28.9817C187.355 27.7288 185.949 26.5503 184.482 25.4518C186.016 24.3772 187.42 23.1263 188.663 21.7249C189.633 20.3008 187.012 17.7859 185.815 18.3161C184.668 18.9182 183.569 19.607 182.527 20.3765C182.471 19.2092 182.267 18.0538 181.921 16.9375C181.346 15.6043 177.907 15.9224 177.679 16.9375C177.495 18.2012 177.424 19.4789 177.467 20.7553C176.348 19.9289 175.174 19.1798 173.952 18.5131C172.907 18.0434 170.528 20.3765 171.347 21.5431C172.608 22.9701 174.026 24.2507 175.573 25.3609C174.043 26.495 172.58 27.7193 171.195 29.0272ZM176.891 25.9063C176.964 25.8527 177.022 25.783 177.062 25.7028C177.103 25.6226 177.124 25.534 177.124 25.4442C177.124 25.3544 177.103 25.2659 177.062 25.1856C177.022 25.1054 176.964 25.0357 176.891 24.9821C175.186 23.8441 173.598 22.5399 172.15 21.0886C171.847 20.6795 173.362 19.1342 173.665 19.2554C175.038 19.9411 176.359 20.7259 177.619 21.6037C177.664 21.6333 177.716 21.6505 177.769 21.6533C177.823 21.6562 177.877 21.6447 177.924 21.62C177.972 21.5953 178.013 21.5583 178.041 21.5129C178.07 21.4674 178.086 21.4151 178.088 21.3613C178.101 19.9595 178.227 18.5611 178.467 17.1799C179.225 16.7254 180.952 16.9375 181.073 17.2859C181.391 18.636 181.544 20.0198 181.527 21.4067C181.531 21.5055 181.561 21.6014 181.614 21.6844C181.668 21.7673 181.743 21.8341 181.832 21.8777C181.921 21.9213 182.019 21.9399 182.118 21.9317C182.216 21.9234 182.311 21.8886 182.391 21.8309C183.626 20.9696 184.917 20.1902 186.254 19.4978C186.569 19.6446 186.85 19.855 187.079 20.1157C187.309 20.3765 187.482 20.6819 187.587 21.0128C187.08 21.5966 186.517 22.1294 185.906 22.6036C183.103 24.9215 182.648 24.8155 182.633 25.4518C182.618 26.0881 182.8 25.8457 185.83 28.3606C186.409 28.8336 186.96 29.3394 187.481 29.8756C186.406 32.6177 185.194 30.5422 182.482 28.7393C182.372 28.6667 182.245 28.6245 182.113 28.6173C181.982 28.61 181.851 28.6379 181.733 28.698C181.616 28.7582 181.517 28.8484 181.446 28.9595C181.375 29.0706 181.335 29.1985 181.33 29.3302C181.209 32.8753 181.694 34.3751 179.134 33.4207C179.134 33.1177 179.012 32.5874 178.937 31.9057C178.664 29.1181 178.937 28.8757 178.331 28.603C177.467 28.1636 174.028 31.633 173.18 30.9361C172.814 30.6653 172.531 30.2981 172.362 29.8756C173.074 29.012 176.013 26.6335 176.922 25.9063H176.891ZM145.001 148.47C144.819 148.682 144.849 148.667 145.001 148.47V148.47ZM151.5 109.443C149.652 113.625 147.561 115.14 145.122 115.973C145.078 115.973 145.034 115.982 144.994 116C144.954 116.018 144.918 116.044 144.889 116.077C144.861 116.111 144.839 116.15 144.827 116.192C144.815 116.234 144.812 116.279 144.819 116.322C144.825 116.366 144.842 116.407 144.866 116.444C144.89 116.48 144.922 116.511 144.96 116.534C144.997 116.557 145.039 116.572 145.083 116.577C145.127 116.582 145.171 116.578 145.213 116.564C146.134 116.617 147.055 116.459 147.905 116.102C148.756 115.744 149.514 115.198 150.121 114.503C151.359 113.16 152.055 111.406 152.076 109.58C152.077 109.511 152.054 109.444 152.012 109.389C151.969 109.335 151.91 109.296 151.843 109.281C151.776 109.265 151.705 109.272 151.643 109.302C151.58 109.331 151.53 109.381 151.5 109.443ZM236.173 83.3248C236.083 84.6428 235.78 88.1576 236.673 89.0212C237.567 89.8847 249.475 91.8239 253.338 90.0514C255.611 89.006 254.747 87.0214 254.99 84.4459C254.99 84.0357 255.135 83.6387 255.399 83.3248C256.87 82.2562 258.249 81.0652 259.52 79.7645C262.55 76.0679 262.292 67.6445 260.368 63.4177C255.096 51.934 235.249 52.7218 230.977 62.2511C229.751 65.434 229.055 68.7965 228.917 72.2047C228.644 77.1436 231.992 81.2189 236.173 83.3248ZM229.992 72.2804C230.177 70.3167 230.496 68.3679 230.947 66.4477C231.841 62.7814 232.992 60.4937 236.279 58.6151C244.551 53.8429 255.884 57.1001 259.004 64.0388C260.701 67.7051 261.019 75.6286 258.414 78.8858C257.193 80.136 255.893 81.3051 254.52 82.3855C253.55 83.2793 253.657 84.8398 253.702 86.173C253.702 88.5515 253.702 88.7333 252.414 89.203C251.43 89.5014 250.412 89.6695 249.384 89.7029C249.618 88.7109 249.689 87.6878 249.596 86.6729C249.596 86.1427 249.248 83.2339 248.778 83.4763C248.218 83.1733 248.096 86.5063 248.127 87.1123C248.122 88.0221 248.281 88.9253 248.596 89.7787C246.796 89.8102 244.996 89.7445 243.203 89.5817C243.42 88.9642 243.523 88.3121 243.506 87.6577C243.506 86.8093 243.324 83.9005 242.658 83.9005C241.991 83.9005 241.84 84.8398 242.052 87.7031C242.096 88.2762 242.213 88.8413 242.4 89.3848C240.632 89.3026 238.88 88.9971 237.188 88.4758C236.537 87.9001 236.719 84.0974 236.749 83.1884C236.751 83.1316 236.737 83.0754 236.707 83.0268C236.677 82.9783 236.634 82.9396 236.582 82.9157C234.621 81.8307 232.928 80.3189 231.628 78.4919C230.367 76.7023 229.787 74.5208 229.992 72.341V72.2804Z" fill="rgb(3,23,35)"/>
<path fill-rule="evenodd" clip-rule="evenodd" d="M238.143 76.6442C239.578 76.7689 241.019 76.4963 242.309 75.8564C242.779 75.5231 242.93 74.705 242.824 73.7051C242.592 72.1226 242.106 70.5878 241.385 69.1601C238.355 64.6151 232.568 67.4633 232.568 72.4931C232.598 75.4474 233.31 76.6291 238.143 76.6442ZM234.037 72.4628C234.032 71.8173 234.165 71.178 234.426 70.5876C234.687 69.9973 235.071 69.4693 235.552 69.0389C236.129 68.5418 236.871 68.2799 237.632 68.3051C238.392 68.3304 239.116 68.6411 239.658 69.1753C240.657 70.3608 241.381 71.7524 241.779 73.2506C242.779 76.6139 239.825 76.1746 235.719 75.1595C234.931 74.9626 234.31 74.8262 234.083 73.8718C234.021 73.4048 234.005 72.9328 234.037 72.4628ZM247.233 75.614C248.293 76.5988 252.52 76.4776 254.308 76.1443C256.626 75.7049 256.959 74.2808 256.974 72.2204C256.968 71.3565 256.776 70.5041 256.413 69.7202C256.05 68.9363 255.523 68.2391 254.868 67.6754C254.039 66.9896 252.989 66.6284 251.913 66.6591C250.837 66.6898 249.809 67.1102 249.021 67.8421C248.697 68.1708 248.408 68.5312 248.157 68.9177C247.405 70.3388 246.893 71.8745 246.642 73.4627C246.612 74.4475 246.748 75.2807 247.233 75.614ZM249.824 68.9329C250.366 68.3987 251.089 68.088 251.85 68.0627C252.61 68.0375 253.353 68.2994 253.929 68.7965C254.41 69.2269 254.794 69.7549 255.056 70.3452C255.317 70.9356 255.449 71.5749 255.444 72.2204C255.444 73.993 255.368 74.5081 253.732 74.902C244.006 77.2654 247.824 70.8721 249.824 68.9329ZM286.335 275.458C286.184 273.625 287.305 276.261 221.311 277.336C221.417 276.215 221.523 275.018 221.629 273.776C245.43 266.64 261.853 255.338 262.58 239.37C264.322 200.874 248.066 156.606 198.738 144.425C201.247 141.055 202.96 137.159 203.747 133.032C204.534 128.904 204.375 124.652 203.283 120.594C198.965 104.613 193.11 89.0877 185.8 74.2354C188.163 72.0992 189.708 69.3268 189.193 66.4634C188.921 65.1102 188.408 63.817 187.678 62.6456C185.36 58.7975 180.694 57.2825 175.876 57.3734C166.226 43.5869 154.469 33.694 140.789 33.6485C115.443 33.5728 96.0965 75.4474 88.2336 99.6571C85.2012 108.505 83.0992 117.644 81.9615 126.927C81.704 129.775 82.6887 137.85 89.4002 145.94C86.6021 147.246 83.8716 148.692 81.2192 150.273C65.9177 159.409 51.51 168.59 44.1623 184.83C34.7844 205.465 30.5273 221.812 35.0723 256.899C36.1782 265.413 49.5708 272.261 69.3416 276.912C40.9656 276.458 20.7252 275.927 17.4831 275.685C17.2822 275.669 17.0832 275.733 16.9297 275.864C16.7763 275.995 16.6811 276.181 16.665 276.382C16.6489 276.583 16.7133 276.782 16.844 276.935C16.9747 277.089 17.161 277.184 17.3619 277.2C21.3918 277.503 43.7229 278.063 74.3259 278.518C75.8409 287.517 74.5683 284.578 76.3106 290.396C76.4712 290.734 76.6991 291.036 76.9805 291.284C77.2618 291.531 77.5906 291.719 77.9468 291.835C90.7485 297.183 218.13 296.971 219.842 288.229C220.22 286.335 220.629 283.033 221.039 278.806C247.248 278.366 270.231 277.579 285.517 276.261C285.625 276.27 285.734 276.255 285.837 276.218C285.939 276.181 286.032 276.122 286.11 276.046C286.187 275.97 286.248 275.878 286.286 275.777C286.325 275.675 286.342 275.566 286.335 275.458ZM244.339 175.468C246.408 178.679 248.261 182.024 249.884 185.482C248.628 185.752 247.318 185.616 246.145 185.093C244.971 184.57 243.994 183.688 243.354 182.573C242.527 181.499 242.159 180.14 242.329 178.795C242.499 177.45 243.195 176.226 244.263 175.392L244.339 175.468ZM83.325 127.063C85.7187 100.354 110.307 34.1485 140.774 34.2242C153.954 34.2242 165.317 43.9202 174.695 57.4037C171.875 57.5913 169.116 58.3056 166.559 59.5096C163.777 60.6552 160.851 61.4147 157.863 61.7669C154.939 62.1305 152.318 58.5854 140.138 60.2519C132.684 61.2518 122.821 67.2209 119.852 74.5384C115.791 84.2041 111.307 119.988 109.368 134.396C109.351 134.506 109.36 134.618 109.396 134.722C109.432 134.827 109.493 134.922 109.573 134.998C109.654 135.074 109.752 135.13 109.858 135.159C109.965 135.189 110.078 135.192 110.186 135.169C120.412 133.184 135.941 142.289 144.001 148.622C144.14 148.74 144.318 148.805 144.501 148.805C144.684 148.805 144.861 148.74 145.001 148.622C152 140.683 166.68 130.639 177.694 130.139C178.225 130.139 178.119 129.124 178.088 128.533C176.846 107.096 168.377 80.4166 168.377 80.2651C168.953 79.1288 169.635 77.5835 170.256 77.4926C172.437 77.1139 174.952 78.5077 177.391 78.2501C180.158 77.8743 182.773 76.7654 184.966 75.0383C192.109 89.7881 197.831 105.184 202.056 121.019C208.116 143.153 183.224 161.924 159.787 164.181C159.205 161.669 157.829 159.411 155.863 157.742C157.605 156.606 157.378 153.955 155.863 153.621C151.636 152.667 151.318 157.636 154.348 158.166C155.878 159.938 156.839 162.129 157.106 164.454C149.528 164.821 141.934 164.654 134.381 163.954C134.725 162.01 135.594 160.197 136.895 158.712C140.531 155.818 137.941 153.97 136.805 154.167C134.062 153.349 133.199 156.954 135.365 158.348C133.68 159.743 132.441 161.603 131.805 163.696C119.503 162.181 110.262 159.151 103.323 155.394C85.2642 145.44 82.916 131.018 83.325 127.063ZM161.969 133.517C155.407 137.021 149.452 141.558 144.334 146.955C138.581 142.605 132.305 138.991 125.654 136.199C127.896 131.321 132.593 122.715 132.638 121.2C132.684 119.685 130.76 121.564 126.487 114.322C124.281 110.534 122.619 106.454 121.548 102.202C121.367 101.399 118.518 100.975 116.049 98.7632C116.382 96.7331 116.731 94.7333 117.079 92.7941C118.791 95.5514 121.836 100.369 123.003 101.111C124.806 102.384 135.774 101.339 136.456 100.081C137.562 98.036 139.486 95.0363 141.759 94.1425C140.763 98.1384 140.325 102.253 140.456 106.369C140.468 106.596 140.532 106.818 140.642 107.017C140.752 107.216 140.906 107.388 141.092 107.52C142.208 108.137 143.485 108.404 144.755 108.285C146.025 108.166 147.23 107.667 148.212 106.853C148.24 106.827 148.261 106.795 148.276 106.76C148.29 106.725 148.298 106.687 148.298 106.649C148.298 106.611 148.29 106.573 148.276 106.538C148.261 106.503 148.24 106.471 148.212 106.444C147.849 105.914 147.258 107.247 144.683 107.111C141.259 106.959 141.031 106.838 142.425 93.9152C148.485 92.8699 149.424 100.399 150.591 100.793C152.318 101.369 162.817 101.369 163.832 100.051C165.347 97.9451 168.726 88.8248 169.635 88.4006C169.801 89.1127 170.831 93.991 171.15 95.7635C169.271 99.4147 166.226 101.717 165.771 102.505C165.317 103.293 157.015 119.761 156.545 120.685C156.075 121.609 158.287 125.215 161.908 133.517H161.969ZM129.82 81.568C130.671 81.1941 131.454 80.6822 132.138 80.053C133.487 78.7349 133.744 76.5079 135.593 76.523C136.865 76.523 137.623 77.4169 138.91 77.932C142.061 78.8454 145.382 79.0063 148.606 78.4016C149.924 78.0683 150.894 76.8866 151.955 77.2805C152.273 77.3714 152.712 78.3865 153.121 78.7955C153.987 79.7301 155.047 80.4643 156.227 80.9468C157.136 81.2498 158.242 80.7044 159.257 80.5226C159.954 80.3863 159.651 80.5226 160.772 81.4165C152.258 81.371 139.713 81.3862 129.82 81.568ZM162.726 88.2794C163.15 88.7188 161.454 89.7944 161.211 89.9308C159.337 91.2756 157.301 92.3801 155.151 93.2183C154.182 93.4759 151.606 94.5515 151.349 94.2485C151.091 93.9455 152.864 92.0821 153.651 91.37C155.322 89.7438 157.426 88.6339 159.711 88.1734C160.378 88.037 162.105 87.6431 162.726 88.2794ZM132.335 92.5366C133.184 93.2638 134.88 95.1121 134.638 95.4302C134.396 95.7484 131.805 94.6576 130.835 94.4C128.69 93.5525 126.655 92.4487 124.775 91.1125C124.548 90.9761 122.851 89.9005 123.26 89.446C123.669 88.9915 125.609 89.2187 126.29 89.3399C128.569 89.8081 130.666 90.9171 132.335 92.5366ZM36.5873 256.732C34.1178 237.568 34.2693 224.054 36.4661 212.373C38.2083 212.873 42.9806 214.312 46.2833 215.524C46.4618 215.562 46.6481 215.535 46.8079 215.446C46.9677 215.358 47.0902 215.215 47.1529 215.044C47.2156 214.872 47.2143 214.684 47.1491 214.513C47.084 214.343 46.9594 214.201 46.7984 214.115C43.5411 212.918 37.9053 211.207 36.7539 210.904C37.3496 207.984 38.0929 205.097 38.981 202.253C41.6777 203.056 46.4045 204.495 48.3588 205.283C48.4503 205.317 48.5476 205.332 48.6451 205.328C48.7426 205.325 48.8384 205.302 48.927 205.261C49.0157 205.22 49.0954 205.162 49.1617 205.091C49.2279 205.019 49.2794 204.935 49.3133 204.844C49.3471 204.752 49.3626 204.655 49.3588 204.557C49.355 204.46 49.3321 204.364 49.2913 204.275C49.2505 204.187 49.1926 204.107 49.121 204.041C49.0494 203.974 48.9654 203.923 48.8739 203.889C46.662 203.056 41.2989 201.435 39.4203 200.859C40.2687 198.243 41.2232 195.632 42.2837 193.027C44.9198 194.208 54.7521 198.556 57.9942 197.95C60.1304 197.541 62.312 190.754 61.2212 189.678C60.1304 188.603 49.1012 185.255 46.0712 184.255C53.4795 169.105 67.3569 160.287 81.8706 151.576C84.5921 149.943 87.3988 148.456 90.2789 147.122C100.323 158.272 116.231 163.136 131.184 164.969C130.76 166.484 130.457 168.12 130.108 169.711C129.684 172.615 128.567 175.374 126.851 177.755C121.73 186.073 123.351 185.179 125.336 183.815C125.897 183.437 125.094 183.937 127.942 180.604C131.169 176.816 132.169 175.437 133.487 167.726C133.623 166.938 133.759 166.12 133.911 165.287C141.66 166.026 149.452 166.209 157.227 165.832C157.908 169.832 158.454 174.362 161.454 178.195C162.726 179.831 164.302 181.437 165.241 182.891C165.877 183.846 168.938 184.588 167.453 182.997C165.544 180.967 168.423 184.633 162.908 175.422C161.302 172.68 160.848 169.09 160.029 165.666C174.664 164.151 189.648 156.47 197.904 145.592C222.054 151.379 231.613 162.363 238.325 168.696C232.81 171.847 229.674 176.71 230.75 183.285C232.507 194.299 245.566 201.465 254.005 193.89C261.338 212.722 262.58 226.22 261.974 239.446C261.262 255.126 245.051 266.05 221.614 273.003C222.538 261.444 223.296 245.733 223.266 231.811C228.901 233.023 232.674 234.659 231.144 233.326C230.045 232.644 228.883 232.071 227.674 231.614C226.232 231.061 224.754 230.605 223.25 230.25C223.175 216.055 222.235 203.813 219.781 199.647C215.236 191.89 169.786 192.163 160.817 192.224C135.168 192.405 107.004 194.223 89.4759 196.769C85.9763 197.284 73.9169 199.056 72.0534 201.798C70.19 204.541 69.69 215.827 69.9779 229.826C63.0695 229.917 56.2065 232.856 54.9642 233.841C52.9493 235.583 59.3426 232.326 70.0233 231.144C70.4437 246.361 71.7844 261.539 74.0381 276.594C52.4796 272.019 37.6781 265.201 36.5873 256.732ZM218.508 287.956C217.1 294.88 93.2028 295.531 78.9618 290.229C77.9619 289.865 78.2195 290.441 77.4468 287.078C101.202 291.532 198.813 290.577 219.084 284.639C218.842 286.002 218.675 287.123 218.508 287.956ZM219.114 283.836C202.722 288.608 118.443 290.002 76.25 284.972C70.9323 260.596 69.2507 207.949 73.0382 202.45C78.6134 194.39 211.509 188.421 218.478 200.314C224.038 209.707 221.357 265.489 219.114 283.836Z" fill="rgb(3,23,35)"/>
</svg>
