<svg width="300" height="300" viewBox="0 0 371 386" fill="none" xmlns="http://www.w3.org/2000/svg">
<path d="M19.8132 192.737C22.4418 190.921 24.6826 194.036 25.6101 196.271C26.1481 197.572 26.61 198.904 27.0273 200.249C27.0904 198.74 27.2316 197.234 27.4503 195.743C27.5595 194.463 27.8192 193.203 28.2238 191.99C28.603 191.274 29.1376 190.659 29.7852 190.196C30.4326 189.733 31.1751 189.433 31.9535 189.32C32.732 189.208 33.5248 189.286 34.2693 189.548C35.0135 189.811 35.6887 190.25 36.2411 190.832C36.7483 191.351 37.1605 191.961 37.458 192.633C38.7124 196.078 39.789 199.593 40.6838 203.159C40.8693 200.044 40.8842 197.825 41.2181 195.409C41.263 194.407 41.5915 193.444 42.1623 192.637C42.7331 191.83 43.5205 191.218 44.4254 190.876C45.2438 190.743 46.0815 190.884 46.8178 191.279C47.5538 191.674 48.1504 192.302 48.5212 193.073C51.2165 198.5 49.2632 202.37 50.2464 207.12C50.3374 207.921 50.6116 208.687 51.0459 209.355C51.1945 209.571 51.4063 209.731 51.6499 209.81C51.8932 209.891 52.1552 209.887 52.3963 209.801C53.114 209.322 53.6228 208.569 53.8135 207.705C54.2367 206.01 54.3543 204.25 54.1604 202.511C53.8746 200.357 54.0397 198.167 54.6446 196.086C55.7316 192.418 59.8107 190.035 62.7175 192.523C63.2716 193.114 63.7066 193.813 63.9969 194.581C64.287 195.349 64.4267 196.169 64.4074 196.995C64.3258 201.376 64.0531 201.561 63.9808 204.213C64.8016 203.221 65.546 202.164 66.2068 201.05C66.8368 191.548 68.1263 182.106 70.0652 172.798C68.7548 168.728 66.5049 165.054 63.5128 162.099C60.5207 159.144 56.8776 156.997 52.9027 155.847C46.5985 153.505 39.7153 153.471 33.39 155.75C29.7505 156.823 26.3586 158.654 23.4201 161.133C20.4818 163.611 18.058 166.685 16.2962 170.167C14.0262 175.022 12.9538 180.387 13.176 185.781C13.3982 191.174 14.9078 196.426 17.5687 201.06C17.2515 198.155 17.1643 194.569 19.8132 192.737ZM37.1853 169.249L51.8732 175.133C52.6764 175.456 52.3258 176.812 51.5133 176.484L36.8254 170.611C36.0222 170.281 36.3728 168.923 37.1853 169.249ZM36.7661 174.344L46.3972 178.843C47.1893 179.213 46.503 180.424 45.7165 180.055L36.0853 175.558C35.2932 175.187 35.987 173.977 36.7661 174.344Z" fill="#FF4A24"/>
<path d="M141.136 261.467C139.704 270.213 136.647 278.586 132.135 286.115C132.075 286.219 131.989 286.304 131.887 286.364C131.785 286.423 131.67 286.454 131.553 286.454C131.436 286.454 131.321 286.423 131.219 286.364C131.117 286.304 131.031 286.219 130.97 286.115C126.311 278.574 122.994 270.223 121.178 261.461H93.811C94.6961 270.949 96.4522 280.325 99.0551 289.465C99.2963 288.682 104.435 272.07 105.177 269.621C105.442 268.762 106.744 269.131 106.475 269.993L99.7619 291.737C101.884 298.596 105.163 305.007 109.445 310.67C109.507 310.736 109.582 310.786 109.664 310.823C109.745 310.857 109.833 310.875 109.922 310.875C110.01 310.875 110.098 310.857 110.18 310.823C110.262 310.786 110.336 310.736 110.398 310.67C113.75 307.088 116.908 303.317 119.859 299.372C122.146 311.087 126.418 330.132 130.967 341.23C131.027 341.334 131.112 341.421 131.215 341.481C131.317 341.54 131.432 341.573 131.549 341.573C131.667 341.573 131.782 341.54 131.884 341.481C131.986 341.421 132.071 341.334 132.132 341.23C136.645 330.688 140.769 310.643 142.846 299.318C145.28 302.255 151.359 309.475 153.854 312.056C153.927 312.129 154.016 312.187 154.114 312.22C154.211 312.255 154.315 312.264 154.416 312.251C154.519 312.237 154.616 312.199 154.702 312.141C154.788 312.083 154.86 312.004 154.913 311.913C158.494 306.081 161.483 299.876 163.832 293.4C167.674 283.106 170.369 272.387 171.864 261.455C144.265 261.461 168.837 261.467 141.136 261.467Z" fill="#FF4A24"/>
<path d="M190.909 260.571L187.915 252.11C187.897 252.182 187.88 252.253 187.86 252.322C187.819 252.469 187.733 252.6 187.617 252.693C187.5 252.786 187.355 252.836 187.208 252.838C186.695 252.838 95.3192 252.838 84.8607 252.838C82.7638 256.319 79.9151 259.245 76.541 261.38C76.6987 261.422 97.4357 261.445 121.178 261.459C122.987 270.223 126.302 278.576 130.963 286.115C131.024 286.219 131.11 286.304 131.212 286.362C131.314 286.422 131.429 286.452 131.545 286.452C131.662 286.452 131.777 286.422 131.879 286.362C131.981 286.304 132.067 286.219 132.128 286.115C136.637 278.584 139.694 270.213 141.128 261.467C165.325 261.467 187.656 261.467 190.251 261.467C190.356 261.467 190.46 261.444 190.553 261.395C190.648 261.347 190.731 261.276 190.794 261.189C190.857 261.102 190.902 261.002 190.922 260.894C190.941 260.787 190.937 260.677 190.909 260.571Z" fill="#031623"/>
<path d="M160.547 95.716C151.309 80.3842 141.193 65.6452 130.253 51.5788C130.179 51.5039 130.09 51.4476 129.993 51.4136C129.895 51.3796 129.791 51.369 129.689 51.3825C129.587 51.396 129.49 51.4335 129.403 51.4918C129.317 51.5502 129.245 51.628 129.192 51.7197C118.922 66.6116 109.291 80.4072 100.235 95.7237C100.181 95.9167 100.311 95.4265 100.882 95.3763C100.975 95.3763 159.608 95.3512 159.894 95.3763C160.028 95.3873 160.159 95.4296 160.275 95.4996C160.392 95.5697 160.492 95.666 160.569 95.7816C160.563 95.759 160.556 95.737 160.547 95.716Z" fill="#FF4A24"/>
<path d="M70.0559 172.789C68.1167 182.097 66.8271 191.538 66.1975 201.04C68.6081 196.833 70.1906 192.167 70.853 187.317C71.5154 182.467 71.2444 177.529 70.0559 172.789Z" fill="#FF4A24"/>
<path d="M191.33 179.196C164.134 185.66 164.323 186.453 150.582 189.599C150.124 195.123 148.403 200.454 145.56 205.144C145.071 205.89 144.525 206.597 143.928 207.255C134.838 218.161 119.334 219.221 106.746 214.425C104.178 213.46 101.858 211.893 99.9641 209.847C92.3048 224.598 92.0526 241.113 84.8607 252.84H187.209C187.355 252.838 187.5 252.786 187.617 252.693C187.733 252.6 187.819 252.471 187.86 252.324C194.219 229.788 194.855 203.208 191.33 179.196ZM173.01 190.925C173.027 191.367 173.289 198.385 173.404 201.451C173.437 202.357 172.087 202.353 172.053 201.451C172.036 201.009 171.775 193.992 171.662 190.925C171.627 190.019 172.977 190.023 173.01 190.925ZM168.655 227.196C168.759 226.308 170.109 226.3 170.005 227.196L169.054 235.406C168.952 236.294 167.599 236.301 167.703 235.406L168.655 227.196Z" fill="#FF4A24"/>
<path d="M163.719 101.147C162.791 99.5451 160.697 95.9649 160.565 95.7738C160.488 95.6594 160.387 95.5639 160.271 95.4938C160.154 95.4239 160.024 95.3811 159.89 95.3685C159.853 95.3685 100.984 95.3589 100.879 95.3685C100.355 95.4149 100.137 95.8453 99.8583 96.3471C97.5544 100.437 92.9336 108.039 87.2276 120.352C79.8663 136.271 74.2822 153.015 70.5846 170.256C74.6248 180.387 72.3821 194.942 66.0528 203.7C65.8302 208.309 65.7913 212.927 65.9656 217.536C66.6451 218.964 67.7305 220.142 69.0746 220.906C72.9126 222.892 78.7206 221.786 82.8406 215.21L82.861 215.187L82.8703 215.164C86.3168 209.542 87.031 203.391 90.255 197.176C88.3542 192.363 87.4289 187.194 87.5371 181.992C87.6454 176.79 88.7847 171.667 90.8839 166.945C100.122 146.641 127.887 144.557 143.38 162C145.82 160.058 178.79 133.146 179.154 132.841C174.75 121.904 169.591 111.311 163.719 101.147ZM82.7497 202.057L74.5023 202.515C73.6324 202.563 73.6379 201.164 74.5023 201.11L82.7497 200.652C83.6197 200.604 83.6141 202.009 82.7497 202.057ZM83.8961 170.291C80.9086 170.729 77.8959 170.955 74.8789 170.967C74.6999 170.967 74.5281 170.893 74.4014 170.761C74.2749 170.629 74.2037 170.451 74.2037 170.264C74.2037 170.078 74.2749 169.899 74.4014 169.768C74.5281 169.636 74.6999 169.562 74.8789 169.562C77.8937 169.495 80.9032 169.269 83.8961 168.886C84.7568 168.772 84.7457 170.177 83.8961 170.291ZM148.215 112.833C147.979 112.374 144.213 105.088 142.568 101.902C142.156 101.105 143.323 100.396 143.735 101.193L149.387 112.133C149.799 112.92 148.632 113.63 148.215 112.833ZM159.421 136.451C159.278 136.065 156.968 129.844 155.959 127.123C155.644 126.277 156.95 125.915 157.258 126.748C157.402 127.134 159.712 133.357 160.721 136.078C161.036 136.927 159.73 137.29 159.421 136.451Z" fill="#FF4A24"/>
<path d="M90.8838 166.945C88.7899 171.67 87.6539 176.793 87.5463 181.995C87.4387 187.197 88.3622 192.366 90.2587 197.18C91.4539 194.826 92.9551 192.652 94.72 190.723C93.7695 186.512 93.2842 182.202 93.2731 177.877C93.3028 171.351 95.7606 164.201 101.455 160.734C102.819 159.896 104.355 159.409 105.936 159.312C107.517 159.216 109.097 159.514 110.545 160.181C118.032 163.668 119.618 171.726 120.308 180.222C122.324 178.643 143.03 162.288 143.39 162.001C127.943 144.677 100.17 146.52 90.8838 166.945Z" fill="#FF4A24"/>
<path d="M131.163 194.276C135.35 197.481 141.158 201.417 145.102 204.748C145.208 204.856 145.276 205.001 145.295 205.155C145.314 205.308 145.283 205.464 145.208 205.599C144.807 206.178 144.375 206.718 143.928 207.255C144.525 206.597 145.071 205.89 145.56 205.144C148.402 200.454 150.124 195.123 150.581 189.599C143.189 191.291 135.229 193.031 131.163 194.276Z" fill="#FF4A24"/>
<path d="M117.195 166.627C114.081 160.628 107.297 157.17 101.456 160.73C95.7607 164.204 93.3028 171.345 93.2731 177.873C93.2843 182.198 93.7695 186.508 94.72 190.719C97.8316 187.177 101.694 184.438 106 182.721C110.307 181.004 114.939 180.355 119.529 180.826L120.306 180.218C120.181 175.512 119.122 170.885 117.195 166.627ZM110.829 173.893C110.421 175.173 109.558 176.242 108.417 176.882C107.276 177.522 105.943 177.684 104.691 177.334C103.486 176.975 102.401 176.274 101.558 175.31C100.714 174.346 100.146 173.156 99.9159 171.874C99.8005 170.781 99.9808 169.676 100.437 168.683C100.893 167.691 101.607 166.851 102.497 166.258C103.388 165.665 104.42 165.343 105.477 165.328C106.535 165.313 107.575 165.606 108.48 166.173C109.636 167.01 110.492 168.221 110.917 169.617C111.342 171.014 111.311 172.517 110.829 173.893Z" fill="#031623"/>
<path d="M108.48 166.173C107.574 165.604 106.532 165.311 105.474 165.327C104.415 165.342 103.382 165.665 102.491 166.26C101.599 166.854 100.886 167.697 100.431 168.691C99.9761 169.686 99.7977 170.793 99.9158 171.887C100.146 173.169 100.714 174.359 101.558 175.323C102.401 176.288 103.486 176.988 104.691 177.347C105.944 177.696 107.279 177.532 108.42 176.89C109.561 176.248 110.423 175.175 110.829 173.893C111.311 172.517 111.342 171.013 110.917 169.617C110.492 168.221 109.635 167.01 108.48 166.173Z" fill="#FF4A24"/>
<path d="M94.234 222.562C90.1914 221.116 86.4268 218.937 83.1151 216.125C82.9688 216.029 82.8621 215.88 82.8157 215.706C82.7693 215.533 82.7869 215.347 82.8647 215.187L82.8443 215.21C78.7633 221.718 72.9645 222.917 69.0783 220.906C67.7342 220.14 66.6488 218.964 65.9693 217.536C64.6041 213.94 63.9248 210.102 63.9697 206.238C60.1628 209.978 55.3038 212.352 50.1054 213.012C51.7333 212.84 53.3769 212.941 54.9748 213.307C55.8243 213.5 55.4626 214.851 54.6149 214.658C46.3416 212.752 39.1776 218.904 33.8908 224.714C33.2917 225.372 32.3382 224.376 32.9355 223.72C37.6324 218.565 42.0361 214.749 48.7345 213.211C40.5725 214.249 29.4982 213.147 22.4399 208.899C20.7454 207.645 19.2692 206.099 18.0751 204.329C18.5352 206.782 19.1324 209.21 19.5443 211.675C21.8055 225.208 19.1733 248.655 31.062 257.937C34.2553 260.376 37.7572 262.345 41.4685 263.789C55.5498 269.438 69.0839 267.241 78.4479 260.017C89.1049 251.796 90.5685 237.004 95.0576 222.085C95.0064 222.259 94.8919 222.407 94.7383 222.496C94.5848 222.585 94.4039 222.608 94.234 222.562ZM47.117 256.781L53.5854 257.649C54.4368 257.765 54.4461 259.17 53.5854 259.054L47.117 258.186C46.2729 258.072 46.2637 256.665 47.117 256.781Z" fill="#FF4A24"/>
<path d="M62.7177 192.513C59.8146 190.029 55.7299 192.411 54.6448 196.076C54.0398 198.157 53.8746 200.347 54.1606 202.501C54.3543 204.24 54.2367 206 53.8137 207.695C53.6228 208.56 53.1142 209.312 52.3965 209.791C51.124 210.262 50.3931 208.388 50.2466 207.11C49.2486 202.303 51.2167 198.493 48.5214 193.064C48.1491 192.294 47.552 191.668 46.8159 191.276C46.0799 190.883 45.2427 190.743 44.4256 190.877C43.5192 191.219 42.7307 191.833 42.1599 192.641C41.5889 193.45 41.2613 194.417 41.2183 195.418C40.8844 197.835 40.8714 200.127 40.684 203.169C39.7897 199.603 38.7129 196.088 37.4582 192.643C37.0965 191.71 36.4897 190.903 35.7073 190.313C34.925 189.724 33.9986 189.375 33.0348 189.308C32.0707 189.241 31.1082 189.458 30.2573 189.934C29.4064 190.41 28.7017 191.126 28.224 192C27.8194 193.212 27.5595 194.473 27.4505 195.752C27.2316 197.244 27.0904 198.749 27.0275 200.259C26.6102 198.908 26.1483 197.582 25.6103 196.281C24.6828 194.046 22.442 190.931 19.8134 192.747C17.1848 194.563 17.259 198.165 17.5725 201.073C18.8724 203.393 20.5343 205.474 22.4902 207.226C25.7494 210.013 39.0386 214.118 51.8159 211.237C56.5109 210.374 60.7935 207.901 63.981 204.213C64.0589 201.37 64.326 201.397 64.4076 196.995C64.428 196.167 64.2891 195.345 63.9988 194.577C63.7085 193.807 63.2729 193.104 62.7177 192.513Z" fill="#FF4A24"/>
<path d="M158.901 186.884L150.392 156.957C150.357 156.808 150.368 156.651 150.424 156.509C150.48 156.366 150.577 156.246 150.702 156.164C148.27 158.115 119.788 180.623 119.538 180.826C115.223 180.37 110.864 180.912 106.774 182.413C102.683 183.915 98.9626 186.338 95.8775 189.511C87.2017 198.157 87.7434 207.234 82.8925 215.158L82.8833 215.181C82.8055 215.342 82.7879 215.527 82.8343 215.701C82.8807 215.874 82.9873 216.023 83.1337 216.119C86.4415 218.937 90.2072 221.118 94.2526 222.556C94.4221 222.602 94.6024 222.581 94.7558 222.492C94.9094 222.404 95.0242 222.257 95.0762 222.083C96.3218 217.845 97.9652 213.746 99.9826 209.841C101.876 211.889 104.196 213.454 106.765 214.419C120.306 219.58 136.665 217.779 145.226 205.593C145.302 205.46 145.333 205.304 145.314 205.149C145.295 204.995 145.226 204.852 145.12 204.742C141.175 201.415 135.372 197.48 131.182 194.27C137.385 192.373 154.848 188.775 159.749 187.368C159.575 187.42 159.388 187.399 159.229 187.308C159.07 187.217 158.953 187.065 158.901 186.884Z" fill="#031623"/>
<path d="M259.752 140.214C260.154 138.524 260.186 136.762 259.843 135.057C259.5 133.353 258.793 131.752 257.773 130.371C256.65 128.78 255.09 127.579 253.3 126.926C255.063 126.291 256.641 125.202 257.891 123.761C258.873 122.683 259.476 121.293 259.604 119.815C259.732 118.337 259.377 116.858 258.598 115.614C254.302 108.51 243.96 108.645 234.978 106.35C233.392 105.931 231.834 105.402 230.317 104.766C229.777 104.553 229.284 104.228 228.868 103.812C228.204 103.021 228.942 103.681 229.662 91.7461C229.966 88.7612 230.061 85.7573 229.948 82.7581C229.942 81.4693 229.645 80.1999 229.083 79.0508C228.523 77.9018 227.711 76.9052 226.714 76.1401C225.434 75.4423 224.002 75.0956 222.557 75.1333C221.112 75.1707 219.701 75.5911 218.454 76.3544C217.827 76.7261 217.278 77.2252 216.838 77.8219C216.401 78.4187 216.08 79.101 215.9 79.8284C213.694 88.1737 215.308 93.5507 214.149 100.209C213.972 101.323 213.661 102.409 213.221 103.442C212.685 104.021 193.232 121.005 187.867 125.554C184.982 128.001 152.11 155.039 150.702 156.164C150.577 156.245 150.48 156.366 150.424 156.508C150.368 156.651 150.357 156.808 150.392 156.957L158.901 186.884C158.951 187.062 159.066 187.212 159.22 187.304C159.375 187.395 159.558 187.42 159.73 187.374C168.146 185.031 176.581 182.759 185.064 180.686C186.706 180.285 242.361 167.165 246.314 166.344C250.045 165.65 253.534 163.947 256.432 161.408C261.663 156.64 260.353 149.43 251.653 147.153C255.092 145.908 258.587 143.864 259.752 140.214ZM181.174 176.435L174.441 178.258C174.273 178.293 174.099 178.261 173.954 178.167C173.809 178.074 173.703 177.927 173.657 177.756C173.612 177.585 173.631 177.402 173.709 177.245C173.788 177.087 173.922 176.967 174.082 176.907C176.308 176.243 178.564 175.666 180.814 175.084C180.982 175.047 181.157 175.079 181.303 175.172C181.449 175.265 181.556 175.412 181.602 175.584C181.647 175.756 181.629 175.939 181.549 176.097C181.47 176.255 181.336 176.376 181.174 176.435ZM220.639 157.804C220.363 158.657 219.055 158.287 219.341 157.43C219.782 156.111 219.914 154.701 219.725 153.318C219.534 151.935 219.029 150.62 218.25 149.482C217.471 148.345 216.44 147.418 215.245 146.78C214.052 146.142 212.728 145.811 211.385 145.815C210.917 145.815 210.483 145.201 210.802 144.757C215.069 138.811 219.081 131.884 219.229 124.444C219.276 122.197 218.866 119.964 218.029 117.891C217.193 115.819 215.948 113.952 214.373 112.413C213.737 111.793 214.694 110.801 215.327 111.421C224.474 120.36 220.335 134.069 212.639 144.51C214.071 144.697 215.445 145.212 216.662 146.02C217.879 146.828 218.909 147.907 219.675 149.18C220.441 150.453 220.925 151.887 221.092 153.379C221.259 154.871 221.103 156.382 220.639 157.804ZM248.956 147.838C246.034 148.69 243.009 149.086 239.976 149.013C237.859 149.483 235.83 150.303 233.964 151.443C233.157 151.914 232.457 152.559 231.91 153.334C230.884 154.821 230.45 156.663 230.695 158.475C230.94 160.287 231.849 161.931 233.229 163.065C235.277 164.381 237.616 165.126 240.02 165.229C242.593 165.387 245.174 165.116 247.665 164.426C247.832 164.39 248.008 164.422 248.153 164.514C248.299 164.607 248.407 164.755 248.451 164.927C248.498 165.098 248.479 165.282 248.399 165.44C248.32 165.598 248.186 165.718 248.025 165.777C245.19 166.623 242.226 166.885 239.295 166.549C236.385 166.393 233.606 165.239 231.391 163.268C230.489 162.265 229.848 161.042 229.523 159.711C229.198 158.381 229.204 156.986 229.536 155.658C229.736 154.464 230.202 153.335 230.896 152.361C231.591 151.387 232.495 150.596 233.535 150.051C234.39 149.539 235.283 149.093 236.201 148.718C231.46 148.116 225.833 146.828 224.032 142.32C222.201 137.734 224.507 130.854 231.465 128.628C230.141 128.519 228.825 128.307 227.531 127.995C224.594 127.285 221.396 125.27 220.936 121.885C220.467 118.442 223.194 115.558 225.891 114.076C228.785 112.701 231.895 111.892 235.069 111.689C235.93 111.581 235.921 112.986 235.069 113.092C231.775 113.256 228.558 114.196 225.663 115.842C223.275 117.446 221.144 120.499 222.904 123.41C224.457 125.975 227.557 126.737 230.256 127.054C237.037 127.636 243.862 127.372 250.583 126.266C251.443 126.15 251.43 127.551 250.583 127.669C238.266 129.379 232.157 128.107 227.638 132.405C224.974 134.938 223.609 139.805 225.985 142.999C228.295 146.105 232.663 146.838 236.175 147.32C240.326 147.927 244.552 147.635 248.59 146.464C248.731 146.42 248.884 146.431 249.017 146.494C249.151 146.549 249.262 146.645 249.34 146.769C249.418 146.894 249.455 147.041 249.449 147.189C249.442 147.337 249.392 147.479 249.303 147.596C249.214 147.712 249.093 147.797 248.956 147.838Z" fill="#FF4A24"/>
<path d="M19.9042 206.62C20.6571 207.488 21.5108 208.255 22.4455 208.903C29.5038 213.149 40.5819 214.253 48.7402 213.215C53.8156 212.738 58.6505 210.744 62.6619 207.475C71.0706 199.975 74.6749 184.315 71.4435 172.781C67.919 160.209 56.0284 153.095 43.216 152.709C37.5719 152.768 32.0259 154.252 27.0552 157.034C9.77404 166.379 6.87839 191.728 19.9042 206.62ZM23.4843 161.087C28.6499 157.091 34.7854 154.675 41.1996 154.11C45.1628 153.972 49.1186 154.56 52.8861 155.847C65.9045 160.053 73.6992 171.942 70.592 188.881C69.6727 195.21 66.88 201.083 62.6026 205.684C58.0077 210.244 51.582 211.742 45.2156 212.138C35.6309 212.734 26.8159 210.094 23.0762 207.676C22.5819 207.326 22.1178 206.933 21.6887 206.5C10.2582 195.252 9.84082 171.984 23.4843 161.087Z" fill="#031623"/>
<path d="M74.879 170.967C77.8959 170.955 80.9086 170.729 83.8961 170.291C84.7457 170.177 84.7568 168.772 83.8961 168.886C80.9034 169.27 77.8937 169.496 74.879 169.562C74.7 169.562 74.5282 169.636 74.4015 169.768C74.275 169.899 74.2037 170.078 74.2037 170.264C74.2037 170.451 74.275 170.629 74.4015 170.761C74.5282 170.893 74.7 170.967 74.879 170.967Z" fill="#031623"/>
<path d="M82.7497 200.652L74.5023 201.11C73.6379 201.158 73.6323 202.563 74.5023 202.515L82.7497 202.057C83.6141 202.009 83.6197 200.604 82.7497 200.652Z" fill="FF4A24"/>
<path d="M81.8352 268.915C82.3175 268.16 81.1488 267.455 80.6702 268.206C80.2436 268.872 32.8558 343.179 32.8298 343.222C32.3475 343.976 33.5162 344.681 33.9947 343.93C34.4733 343.179 81.7109 269.109 81.8352 268.915Z" fill="FF4A24"/>
<path d="M106.477 269.993C106.744 269.131 105.44 268.762 105.179 269.621C104.424 272.07 82.4139 343.347 82.401 343.389C82.1338 344.252 83.436 344.621 83.6995 343.764L106.477 269.993Z" fill="FF4A24"/>
<path d="M180.133 266.776C179.762 265.956 178.607 266.668 178.967 267.485L212.768 343.926C213.139 344.746 214.295 344.034 213.935 343.218C213.881 343.123 180.176 266.875 180.133 266.776Z" fill="FF4A24"/>
<path d="M246.364 61.2078C247.609 58.6196 256.938 39.2212 257.392 38.2717C257.778 37.4649 256.615 36.7528 256.226 37.5614L245.199 60.4995C244.812 61.3043 245.973 62.0165 246.364 61.2078Z" fill="FF4A24"/>
<path d="M252.169 67.3143C251.458 67.8238 252.133 69.0513 252.851 68.5282L278.163 50.3862C278.875 49.8767 278.2 48.6492 277.482 49.1742C274.631 51.2161 253.208 66.5693 252.169 67.3143Z" fill="FF4A24"/>
<path d="M256.808 77.2244C256.628 77.2244 256.457 77.2984 256.331 77.4302C256.203 77.562 256.133 77.7405 256.133 77.927C256.133 78.1132 256.203 78.2919 256.331 78.4237C256.457 78.5554 256.628 78.6295 256.808 78.6295H279.51C279.689 78.6295 279.86 78.5554 279.986 78.4237C280.114 78.2919 280.185 78.1132 280.185 77.927C280.185 77.7405 280.114 77.562 279.986 77.4302C279.86 77.2984 279.689 77.2244 279.51 77.2244C273.488 77.1164 262.393 77.1241 256.808 77.2244Z" fill="#031623"/>
<path d="M317.762 192.965C316.723 192.243 315.493 191.882 314.244 191.931C312.998 191.981 311.798 192.439 310.815 193.241C309.909 194.054 309.288 195.154 309.043 196.372C308.8 197.59 308.947 198.858 309.462 199.979C310.238 199.319 311.134 198.834 312.098 198.553C313.061 198.273 314.07 198.201 315.061 198.344C316.42 198.209 317.78 198.605 318.875 199.456C319.969 200.305 320.72 201.548 320.984 202.943C321.036 202.843 321.063 202.733 321.069 202.619C321.236 199.122 320.741 195.082 317.762 192.965Z" fill="#031623"/>
<path d="M20.1138 157.355C20.7501 156.737 19.7947 155.745 19.1585 156.361C15.0468 160.346 11.7453 165.148 9.44946 170.485C9.09701 171.301 10.2601 172.017 10.6144 171.193C12.8595 165.966 16.0897 161.26 20.1138 157.355Z" fill="#031623"/>
<path d="M315.062 198.344C307.012 197.528 305.504 206.95 309.247 210.515C310.314 211.522 311.66 212.149 313.092 212.306C314.525 212.46 315.968 212.136 317.211 211.377C322.937 207.89 322.546 198.211 315.062 198.344Z" fill="#FF4A24"/>
<path d="M36.0853 175.558L45.7165 180.055C46.503 180.424 47.1893 179.214 46.3972 178.843L36.7661 174.344C35.987 173.977 35.2932 175.188 36.0853 175.558Z" fill="#031623"/>
<path d="M36.8255 170.611L51.5134 176.496C52.3259 176.82 52.6764 175.463 51.8732 175.145L37.1853 169.26C36.3729 168.922 36.0223 170.281 36.8255 170.611Z" fill="#031623"/>
<path d="M283.758 297.579C283.016 295.085 276.953 274.772 276.655 273.747C276.612 273.601 276.527 273.471 276.41 273.379C276.293 273.286 276.15 273.234 276.004 273.232C274.52 273.213 231.346 272.962 231.32 272.962C231.231 272.962 231.142 272.981 231.061 273.016C230.977 273.053 230.903 273.107 230.84 273.172C230.779 273.238 230.729 273.317 230.695 273.404C230.662 273.491 230.645 273.581 230.647 273.676C230.647 274.025 238.861 296.857 239.277 297.967C241.068 297.807 242.287 297.899 283.758 297.899V297.579ZM261.039 289.76C256.543 289.799 254.059 289.78 253.862 289.739C253.755 289.72 253.655 289.676 253.567 289.608C253.48 289.54 253.41 289.454 253.362 289.351C253.315 289.249 253.291 289.137 253.295 289.025C253.297 288.911 253.326 288.801 253.378 288.703C254.385 286.754 255.354 284.781 256.402 282.855C256.454 282.762 256.526 282.683 256.611 282.623C256.699 282.564 256.797 282.527 256.899 282.513C257.001 282.498 257.105 282.509 257.203 282.544C257.302 282.579 257.391 282.635 257.463 282.712C259.019 284.573 260.411 286.574 261.622 288.695C261.681 288.801 261.713 288.923 261.713 289.048C261.715 289.172 261.683 289.293 261.624 289.402C261.564 289.508 261.481 289.598 261.377 289.662C261.275 289.724 261.158 289.759 261.039 289.76Z" fill="#031623"/>
<path d="M261.622 288.703C260.41 286.582 259.019 284.58 257.463 282.72C257.4 282.654 257.326 282.602 257.242 282.565C257.161 282.531 257.071 282.511 256.982 282.511C256.893 282.511 256.804 282.531 256.723 282.565C256.639 282.602 256.565 282.654 256.502 282.72C256.285 282.949 254.289 286.939 253.378 288.703C253.326 288.801 253.297 288.911 253.295 289.025C253.291 289.137 253.315 289.249 253.361 289.351C253.41 289.454 253.48 289.54 253.567 289.608C253.655 289.676 253.755 289.72 253.862 289.739C254.048 289.778 254.74 289.815 261.039 289.76C261.158 289.759 261.273 289.724 261.375 289.66C261.475 289.598 261.561 289.51 261.618 289.403C261.677 289.297 261.709 289.176 261.709 289.054C261.709 288.931 261.679 288.809 261.622 288.703Z" fill="#FF4A24"/>
<path d="M322.911 329.258C322.679 329.395 324.508 329.877 294.912 329.347C294.734 329.347 294.561 329.273 294.435 329.14C294.307 329.009 294.236 328.831 294.236 328.644C294.236 328.457 294.307 328.279 294.435 328.148C294.561 328.015 294.734 327.942 294.912 327.942H321.323C319.06 325.794 317.142 323.285 315.636 320.509C313.853 317.375 309.108 307.304 308.542 306.287C307.292 303.958 305.786 301.788 304.055 299.822C297.334 300.235 292.535 301.823 289.89 299.308H284.433C284.255 299.306 284.084 299.231 283.958 299.1C283.832 298.969 283.759 298.791 283.758 298.606V297.903C283.758 297.903 239.735 297.932 239.276 297.971C235.936 298.37 232.745 299.642 230.001 301.667C222.005 306.878 216.929 315.296 218.295 324.894C219.042 329.91 221.168 334.593 224.416 338.379C226.902 341.315 230.285 344.362 234.138 344.849C235.724 345.009 237.319 345.051 238.911 344.978C240.857 344.941 264.352 345.13 266.721 345.138C263.442 344.762 260.281 343.652 257.45 341.888C254.621 340.126 252.189 337.746 250.323 334.917C248.457 332.085 247.199 328.87 246.635 325.489C246.071 322.107 246.216 318.639 247.058 315.32C249.301 305.72 256.376 299.704 265.541 297.928C266.391 297.764 266.753 299.117 265.899 299.279C261.147 300.092 256.756 302.433 253.347 305.973C250.618 309.095 248.774 312.944 248.023 317.091C247.272 321.239 247.641 325.523 249.091 329.464C250.49 333.301 252.877 336.663 255.994 339.18C259.108 341.697 262.829 343.274 266.749 343.733C267.589 343.828 267.612 345.169 266.795 345.134C270.368 345.15 338.493 344.972 339.907 344.941C340.085 344.937 340.255 344.864 340.381 344.733C340.508 344.601 340.58 344.424 340.582 344.239V334.305C337.462 334.716 334.295 334.481 331.262 333.616C328.231 332.749 325.393 331.269 322.911 329.258ZM228.629 308.781L224.919 313.501C224.362 314.202 223.418 313.202 223.963 312.508L227.673 307.789C228.223 307.086 229.172 308.086 228.629 308.781ZM260.349 308.781L256.639 313.501C256.083 314.202 255.14 313.202 255.686 312.508L259.396 307.789C259.945 307.086 260.895 308.086 260.349 308.781Z" fill="#FF4A24"/>
<path d="M266.749 343.733C262.831 343.272 259.11 341.697 255.996 339.18C252.881 336.661 250.494 333.301 249.095 329.464C247.644 325.521 247.275 321.239 248.027 317.091C248.778 312.944 250.622 309.095 253.35 305.972C256.758 302.429 261.149 300.088 265.903 299.279C266.756 299.113 266.395 297.76 265.545 297.928C239.03 303.068 240.458 341.282 266.755 345.142H266.795C267.617 345.169 267.595 343.827 266.749 343.733Z" fill="#031623"/>
<path d="M294.912 327.938C294.733 327.938 294.561 328.011 294.435 328.144C294.307 328.275 294.236 328.453 294.236 328.64C294.236 328.827 294.307 329.005 294.435 329.136C294.561 329.269 294.733 329.343 294.912 329.343C324.464 329.872 322.677 329.393 322.911 329.254C322.512 328.941 321.69 328.289 321.323 327.938H294.912Z" fill="#031623"/>
<path d="M361.573 347.956C359.688 340.932 356.943 334.191 353.402 327.897C353.071 328.225 352.717 328.521 352.37 328.827C351.159 329.929 349.831 330.887 348.412 331.678L360.337 348.496C360.759 349.089 361.823 348.774 361.573 347.956Z" fill="#031623"/>
<path d="M309.989 175.913C309.679 175.434 309.271 175.033 308.796 174.736C308.32 174.44 307.787 174.257 307.234 174.199C304.795 174.187 302.408 174.925 300.371 176.322C299.755 176.668 299.905 176.693 300.163 176.222C301.08 174.554 301.321 171.246 298.818 170.994C297.722 171.011 296.659 171.395 295.789 172.09C293.148 174.057 290.766 176.375 288.701 178.984C289.159 177.038 289.69 175.197 288.545 173.547C288.33 173.232 288.046 172.975 287.714 172.8C287.384 172.625 287.017 172.536 286.646 172.541C285.683 172.72 284.809 173.238 284.169 174.008C281.001 176.992 278.81 180.933 277.905 185.279C267.263 188.008 257.263 192.951 248.507 199.811C234.511 210.812 226.019 228.203 230.602 245.517L230.615 245.54C230.584 245.396 230.597 245.243 230.653 245.108C230.71 244.971 230.807 244.857 230.929 244.782C232.723 243.855 252.829 233.636 260.906 229.091C260.993 229.039 261.089 229.01 261.188 229.002C261.288 228.994 261.388 229.01 261.481 229.047C261.574 229.083 261.657 229.141 261.728 229.214C261.796 229.29 261.848 229.379 261.881 229.477V229.458C259.099 222.228 272.826 209.183 289.3 210.783C290.986 213.304 293.122 215.465 295.591 217.152C296.184 217.58 296.861 217.868 297.575 217.995C298.288 218.123 299.019 218.086 299.716 217.889C300.271 217.623 300.74 217.2 301.072 216.666C301.402 216.133 301.582 215.513 301.586 214.878C301.61 213.244 301.143 211.642 300.248 210.297C299.963 210.627 299.601 210.872 299.195 211.011C298.79 211.148 298.356 211.173 297.939 211.082C297.522 210.99 297.136 210.787 296.819 210.49C296.5 210.194 296.264 209.816 296.13 209.395C295.503 207.477 295.234 205.454 295.333 203.432C294.056 201.139 293.615 198.443 294.092 195.841C294.515 194.588 295.095 193.401 295.819 192.308C298.585 188.274 302.144 184.899 306.261 182.408C307.546 181.669 308.713 180.724 309.716 179.609C310.106 179.089 310.342 178.461 310.39 177.804C310.438 177.146 310.299 176.488 309.989 175.913ZM287.093 199.043C287.045 199.201 286.944 199.338 286.807 199.427C286.672 199.516 286.51 199.552 286.351 199.529C286.191 199.506 286.047 199.425 285.939 199.301C285.831 199.176 285.77 199.016 285.766 198.85C285.679 197.555 285.297 196.302 284.652 195.192C284.008 194.083 283.118 193.149 282.056 192.469C281.314 191.988 282.001 190.772 282.737 191.257C284.639 192.507 286.048 194.424 286.709 196.661C287.481 195.297 288.517 194.116 289.751 193.193C290.458 192.662 291.131 193.88 290.434 194.405C288.881 195.549 287.714 197.171 287.093 199.043ZM231.782 230.888C232.157 228.9 232.86 226.995 233.858 225.256C233.951 225.098 234.097 224.986 234.27 224.94C234.44 224.895 234.622 224.922 234.776 225.015C234.928 225.109 235.04 225.26 235.086 225.437C235.132 225.615 235.11 225.804 235.023 225.966C234.116 227.615 233.463 229.402 233.084 231.262C232.91 232.158 231.608 231.779 231.782 230.897V230.888Z" fill="#FF4A24"/>
<path d="M357.813 258.989C357.256 251.977 357 246.079 352.537 240.603C349.586 236.985 345.18 235.9 340.808 235.452C322.217 233.549 295.822 235.497 276.534 235.632C272.049 235.663 266.807 235.782 263.445 232.133C262.751 231.374 262.219 230.471 261.881 229.485C261.848 229.386 261.796 229.297 261.728 229.224C261.657 229.149 261.574 229.091 261.481 229.054C261.388 229.018 261.288 229.002 261.188 229.01C261.089 229.018 260.993 229.048 260.906 229.099C252.977 233.559 247.016 236.487 230.929 244.79C230.807 244.865 230.71 244.979 230.653 245.116C230.597 245.253 230.584 245.403 230.615 245.548V245.583C231.886 250.883 234.502 255.729 238.189 259.616C241.877 263.501 246.5 266.286 251.577 267.675C256.031 268.772 260.568 269.467 265.137 269.748C271.329 270.183 277.54 270.275 283.741 270.022C283.741 273.079 283.761 298.608 283.761 298.608C283.763 298.793 283.835 298.97 283.962 299.102C284.088 299.233 284.258 299.308 284.436 299.31H289.894C289.287 298.637 288.927 297.762 288.879 296.842C288.831 295.919 289.096 295.01 289.63 294.273C290.263 293.541 291.066 292.989 291.962 292.671C290.686 292.584 289.473 292.059 288.514 291.177C287.955 290.685 287.571 290.011 287.423 289.266C287.275 288.519 287.371 287.744 287.698 287.062C288.581 285.883 289.777 285.001 291.139 284.526C290.198 284.563 289.269 284.299 288.477 283.77C287.685 283.239 287.067 282.471 286.707 281.566C286.531 280.954 286.473 280.309 286.542 279.674C286.61 279.039 286.802 278.424 287.104 277.868C287.675 276.903 288.443 276.081 289.352 275.455C294.409 271.682 302.252 268.637 308.448 269.654C311.427 270.215 314.276 271.358 316.849 273.018C323.581 277.312 328.764 283.799 331.592 291.469C331.453 289.722 331.301 287.979 331.184 286.23C331.186 286.045 331.258 285.868 331.385 285.736C331.511 285.605 331.681 285.53 331.859 285.528H358.905C359.082 285.534 359.25 285.611 359.377 285.74C359.501 285.872 359.573 286.047 359.581 286.23C359.085 277.148 358.542 268.056 357.813 258.989ZM330.73 283.114C330.474 277.644 330.095 272.182 329.596 266.73C329.513 265.828 330.865 265.838 330.947 266.73C331.442 272.182 331.819 277.642 332.08 283.114C332.125 284.013 330.774 284.009 330.732 283.108L330.73 283.114Z" fill="#031623"/>
<path d="M331.268 197.825C329.351 193.328 326.762 188.827 322.393 186.544C314.291 182.313 302.825 186.888 298.171 197.892C297.46 198.128 296.83 198.57 296.353 199.166C295.876 199.763 295.574 200.488 295.481 201.258C295.498 201.324 295.488 201.393 295.457 201.451C295.108 204.122 295.336 206.84 296.128 209.407C296.297 209.845 296.566 210.235 296.913 210.54C297.26 210.845 297.674 211.057 298.117 211.155C300.198 211.445 301.456 208.888 301.705 206.716C302.187 203.914 302.14 199.106 299.597 198.018C304.064 188.221 313.925 184.294 321.082 187.463C325.463 189.393 327.945 193.554 329.899 198.06C329.318 198.383 328.817 198.84 328.433 199.396C328.051 199.954 327.797 200.594 327.691 201.27C327.496 202.802 327.471 204.354 327.612 205.892C327.662 207.097 327.905 208.286 328.335 209.405C328.504 209.845 328.773 210.233 329.12 210.538C329.467 210.845 329.88 211.055 330.325 211.153C330.8 211.208 331.279 211.123 331.709 210.91C332.14 210.698 332.507 210.366 332.767 209.951C333.388 208.978 333.779 207.869 333.911 206.709C334.456 203.571 334.271 198.377 331.268 197.825Z" fill="#031623"/>
<path d="M341.134 207.876C341.253 208.768 342.555 208.39 342.433 207.502C342.151 205.342 341.505 203.252 340.528 201.326C340.437 201.166 340.29 201.048 340.116 201C339.944 200.953 339.758 200.979 339.604 201.073C339.45 201.168 339.337 201.32 339.291 201.502C339.246 201.681 339.27 201.874 339.361 202.034C340.279 203.856 340.88 205.834 341.134 207.876Z" fill="#031623"/>
<path d="M360.274 301.273C359.545 285.316 359.605 286.186 359.514 285.982C359.469 285.848 359.388 285.735 359.278 285.653C359.167 285.572 359.037 285.53 358.902 285.532H331.859C331.681 285.534 331.511 285.609 331.385 285.74C331.258 285.872 331.186 286.049 331.184 286.234C332.093 299.897 332.72 283.803 317.897 273.718C318.541 274.23 317.897 275.37 317.175 274.89C314.445 272.95 311.354 271.63 308.103 271.014C302.423 270.119 295.29 272.987 290.452 276.366C289.617 276.897 288.9 277.603 288.343 278.439C288.063 278.895 287.898 279.418 287.866 279.958C287.833 280.498 287.933 281.039 288.158 281.527C289.306 283.752 293.966 283.214 296.357 282.803C297.195 282.66 297.577 283.951 296.715 284.154C295.034 284.551 293.387 285.084 291.788 285.75C290.614 286.122 289.575 286.858 288.809 287.858C288.191 288.988 289.389 290.301 290.293 290.793C291.749 291.362 293.316 291.553 294.86 291.349C296.451 291.304 298.041 291.171 299.625 291C300.497 290.907 300.469 292.295 299.625 292.405C296.926 292.632 294.273 293.273 291.753 294.306C291.317 294.531 290.927 294.846 290.61 295.232C289.647 296.598 290.3 299.015 293.057 299.221C296.883 299.509 302.569 298.324 304.266 298.397C304.29 298.397 304.32 298.397 304.344 298.397H304.372C304.821 298.424 304.982 298.766 305.546 299.432C311.406 306.335 313.469 314.889 318.383 322.399C318.847 323.107 317.836 323.75 317.311 323.204C318.839 325.531 320.731 327.577 322.911 329.252C337.988 341.087 358.536 331.836 360.119 312.865C360.419 309.008 360.471 305.135 360.274 301.273ZM303.793 281.741C302.946 281.934 302.586 280.583 303.433 280.39L307.346 279.489C308.193 279.296 308.553 280.647 307.706 280.84L303.793 281.741ZM308.666 291.671H305.48C305.3 291.671 305.129 291.596 305.003 291.465C304.875 291.333 304.804 291.154 304.804 290.969C304.804 290.781 304.875 290.604 305.003 290.471C305.129 290.339 305.3 290.266 305.48 290.266H308.672C308.852 290.266 309.023 290.339 309.149 290.471C309.277 290.604 309.347 290.781 309.347 290.969C309.347 291.154 309.277 291.333 309.149 291.465C309.023 291.596 308.852 291.671 308.672 291.671H308.666ZM347.677 325.776L343.707 328.853C343.01 329.395 342.338 328.175 343.027 327.641L346.994 324.562C347.694 324.012 348.369 325.232 347.677 325.767V325.776ZM334.015 305.023L332.64 298.555C332.455 297.673 333.753 297.299 333.939 298.181L335.313 304.648C335.505 305.519 334.202 305.905 334.015 305.013V305.023Z" fill="#FF4A24"/>
<path d="M344.978 203.773C345.421 205.118 345.791 206.487 346.082 207.876C346.258 208.76 347.566 208.386 347.38 207.502C346.518 203.069 344.77 198.871 342.251 195.185C341.726 194.467 340.78 195.465 341.296 196.179C342.913 198.485 344.156 201.05 344.978 203.773Z" fill="#031623"/>
<path d="M352.265 206.57C352.368 207.002 352.47 207.438 352.556 207.876C352.728 208.76 354.03 208.386 353.854 207.502C352.695 201.351 350.276 195.532 346.766 190.438C346.234 189.726 345.282 190.726 345.811 191.432C348.939 195.963 351.137 201.116 352.265 206.57Z" fill="#031623"/>
<path d="M318.101 224.044C319.503 224.044 320.904 224.032 322.304 224.069C323.887 224.131 325.467 223.905 326.975 223.399C328.016 222.959 328.919 222.23 329.585 221.292C330.253 220.352 330.659 219.24 330.758 218.076C330.995 216.339 331.073 214.568 331.249 212.817C331.34 211.918 329.99 211.925 329.899 212.817C329.752 214.272 329.624 215.73 329.513 217.189C329.029 223.413 324.133 222.676 318.101 222.639C317.953 222.681 317.821 222.772 317.728 222.899C317.635 223.025 317.583 223.181 317.583 223.341C317.583 223.502 317.635 223.656 317.728 223.783C317.821 223.911 317.953 224.001 318.101 224.044Z" fill="#031623"/>
<path d="M314.448 220.5C313.684 220.47 312.938 220.753 312.375 221.294C311.813 221.834 311.477 222.583 311.445 223.38C311.373 224.057 311.562 224.739 311.972 225.271C312.382 225.804 312.977 226.148 313.63 226.223C314.33 226.319 315.038 226.163 315.639 225.781C316.242 225.399 316.7 224.814 316.938 224.125C317.027 223.714 317.032 223.289 316.953 222.876C316.873 222.463 316.71 222.073 316.474 221.732C316.24 221.388 315.938 221.103 315.587 220.89C315.239 220.678 314.851 220.545 314.448 220.5Z" fill="#031623"/>
<path d="M259.396 307.789L255.686 312.507C255.14 313.202 256.09 314.202 256.639 313.501L260.349 308.781C260.895 308.086 259.945 307.086 259.396 307.789Z" fill="#031623"/>
<path d="M227.673 307.789L223.963 312.507C223.418 313.202 224.368 314.202 224.919 313.501L228.629 308.781C229.172 308.086 228.223 307.086 227.673 307.789Z" fill="#031623"/>
<path d="M304.055 299.818C309.306 305.706 312.017 314.127 315.636 320.505C315.864 320.909 317.155 323.074 317.305 323.207C317.83 323.759 318.841 323.111 318.377 322.403C313.515 314.97 311.403 306.36 305.541 299.436C305.09 298.901 304.864 298.49 304.367 298.401C304.118 298.318 296.613 299.173 295.928 299.21C294.971 299.273 294.008 299.273 293.051 299.21C291.408 299.073 290.131 298.15 290.218 296.388C290.298 294.746 291.968 294.034 293.491 293.582C295.5 293.028 297.546 292.63 299.612 292.393C300.456 292.283 300.484 290.895 299.612 290.988C298.028 291.16 296.438 291.293 294.847 291.337C293.303 291.542 291.736 291.351 290.28 290.781C289.376 290.289 288.178 288.977 288.796 287.846C289.562 286.846 290.601 286.111 291.775 285.738C293.374 285.073 295.023 284.54 296.702 284.142C297.564 283.936 297.182 282.645 296.344 282.791C294.381 283.129 290.779 283.5 289.041 282.477C288.683 282.212 288.388 281.869 288.178 281.469C287.967 281.07 287.846 280.626 287.824 280.17C287.803 279.715 287.881 279.261 288.052 278.841C288.222 278.422 288.484 278.049 288.814 277.75C291.064 275.749 293.621 274.155 296.375 273.029C299.794 271.449 303.519 270.713 307.257 270.881C310.811 271.397 314.2 272.765 317.159 274.878C317.871 275.359 318.524 274.218 317.88 273.707C317.023 273.11 316.135 272.566 315.218 272.076C312.631 270.563 309.75 269.669 306.787 269.463C303.825 269.256 300.855 269.739 298.095 270.879C294.504 272.059 291.157 273.925 288.226 276.384C287.666 276.874 287.221 277.49 286.922 278.184C286.625 278.879 286.482 279.636 286.505 280.398C286.625 283.117 288.577 284.258 291.185 284.49L291.122 284.519C289.76 284.993 288.564 285.875 287.681 287.055C287.354 287.736 287.258 288.512 287.406 289.259C287.555 290.004 287.939 290.677 288.497 291.169C289.456 292.049 290.669 292.576 291.945 292.663C291.05 292.982 290.246 293.532 289.614 294.265C289.074 295.01 288.809 295.933 288.864 296.863C288.92 297.795 289.293 298.675 289.916 299.347C292.637 301.806 297.399 300.227 304.055 299.818Z" fill="#031623"/>
<path d="M303.793 281.732L307.706 280.832C308.553 280.639 308.193 279.288 307.346 279.481L303.433 280.383C302.586 280.574 302.946 281.927 303.793 281.732Z" fill="#031623"/>
<path d="M305.479 291.662H308.672C308.852 291.662 309.023 291.586 309.149 291.455C309.277 291.324 309.347 291.144 309.347 290.959C309.347 290.772 309.277 290.592 309.149 290.461C309.023 290.33 308.852 290.257 308.672 290.257H305.485C305.305 290.257 305.134 290.33 305.008 290.461C304.88 290.592 304.81 290.772 304.81 290.959C304.81 291.144 304.88 291.324 305.008 291.455C305.134 291.586 305.305 291.662 305.485 291.662H305.479Z" fill="#031623"/>
<path d="M346.994 324.553L343.027 327.631C342.338 328.166 343.01 329.385 343.707 328.843L347.677 325.767C348.369 325.232 347.694 324.012 346.994 324.553Z" fill="#031623"/>
<path d="M332.64 298.546L334.015 305.013C334.201 305.895 335.499 305.521 335.314 304.639L333.939 298.171C333.755 297.289 332.453 297.664 332.64 298.546Z" fill="#031623"/>
<path d="M233.858 225.266C232.86 227.005 232.157 228.91 231.782 230.897C231.608 231.779 232.91 232.158 233.081 231.272C233.459 229.411 234.112 227.624 235.019 225.976C235.106 225.816 235.129 225.625 235.082 225.447C235.036 225.27 234.925 225.119 234.773 225.024C234.619 224.932 234.437 224.905 234.266 224.949C234.094 224.996 233.947 225.107 233.854 225.266H233.858Z" fill="#031623"/>
<path d="M289.751 193.193C288.516 194.123 287.48 195.31 286.712 196.68C286.052 194.444 284.642 192.526 282.741 191.276C281.999 190.792 281.327 192.008 282.06 192.488C283.121 193.168 284.012 194.102 284.655 195.212C285.301 196.322 285.683 197.576 285.77 198.869C285.774 199.035 285.835 199.195 285.943 199.321C286.05 199.444 286.195 199.525 286.354 199.548C286.514 199.572 286.675 199.537 286.811 199.446C286.948 199.357 287.048 199.22 287.096 199.062C287.714 197.188 288.883 195.561 290.435 194.415C291.135 193.87 290.461 192.652 289.751 193.193Z" fill="#031623"/>
<path d="M73.829 156.629C69.8148 171.164 70.9593 170.633 70.2878 169.174C65.3238 158.333 54.3775 152.92 43.2233 152.576C37.5591 152.634 31.9932 154.124 27.0051 156.917C12.2207 164.924 8.22688 184.159 14.7101 198.74C15.6163 200.73 16.7093 202.621 17.9731 204.387C18.4331 206.832 19.0249 209.252 19.4367 211.707C21.6849 225.161 19.0657 248.725 31.0063 258.039C34.2077 260.484 37.7184 262.459 41.4388 263.904C54.8171 269.27 67.5146 267.494 76.5725 261.509C77.0103 261.609 76.3648 261.577 93.7127 261.581C94.5983 271.026 96.3474 280.361 98.9364 289.461C92.1879 311.32 82.3045 343.328 82.2952 343.357C81.9854 344.362 83.5047 344.792 83.8144 343.793L99.7675 292.098C101.877 298.857 105.121 305.172 109.349 310.751C109.497 310.904 109.697 310.99 109.905 310.99C110.114 310.99 110.313 310.904 110.462 310.751C113.762 307.225 116.875 303.516 119.787 299.636C121.968 310.747 126.279 330.107 130.857 341.288C130.928 341.409 131.028 341.51 131.147 341.581C131.266 341.65 131.401 341.687 131.538 341.687C131.675 341.687 131.809 341.65 131.929 341.581C132.048 341.51 132.148 341.409 132.219 341.288C136.749 330.705 140.815 310.888 142.902 299.575C145.428 302.62 151.294 309.584 153.763 312.141C153.838 312.218 153.926 312.278 154.024 312.318C154.121 312.359 154.226 312.378 154.331 312.376C154.436 312.374 154.539 312.351 154.635 312.307C154.731 312.264 154.818 312.201 154.891 312.121C158.539 306.248 161.57 299.984 163.93 293.435C167.76 283.171 170.45 272.489 171.949 261.59C182.478 261.59 190.18 261.579 190.249 261.579C190.369 261.577 190.49 261.548 190.598 261.492C190.705 261.436 190.8 261.353 190.874 261.252C190.946 261.154 190.998 261.036 191.02 260.913C191.045 260.789 191.041 260.662 191.009 260.54C190.013 257.728 189.019 254.918 188.025 252.106C194.419 228.906 194.888 202.833 191.451 179.293C206.51 175.74 243.155 167.117 246.335 166.457C250.076 165.735 253.579 164.025 256.502 161.491C261.772 156.801 260.474 149.515 252.033 147.13C255.387 145.852 258.667 143.795 259.852 140.245C260.366 138.265 260.305 136.172 259.678 134.228C259.322 132.559 258.552 131.016 257.444 129.751C256.339 128.487 254.935 127.545 253.371 127.019C255.133 126.379 256.712 125.287 257.962 123.844C258.962 122.747 259.576 121.331 259.707 119.826C259.839 118.32 259.479 116.812 258.687 115.545C254.354 108.379 244.033 108.537 234.999 106.235C233.422 105.816 231.873 105.29 230.361 104.66C229.827 104.459 229.341 104.14 228.937 103.726C228.282 103.018 229.063 103.34 229.764 91.7425C230.068 88.7576 230.163 85.7537 230.048 82.7545C230.042 81.4456 229.74 80.1563 229.17 78.9898C228.599 77.8231 227.774 76.8118 226.761 76.0362C225.462 75.3275 224.012 74.975 222.546 75.0123C221.081 75.0494 219.649 75.4749 218.385 76.2485C217.747 76.6277 217.187 77.1361 216.738 77.7436C216.291 78.3512 215.965 79.0456 215.779 79.7862C213.553 88.2106 215.184 93.5374 214.03 100.167C213.854 101.261 213.551 102.329 213.13 103.348C212.746 103.761 194.512 119.901 179.184 132.618C167.655 103.913 148.906 75.5884 130.332 51.4962C130.181 51.3432 129.977 51.259 129.766 51.2619C129.555 51.2648 129.354 51.3546 129.206 51.5117C129.021 51.7047 114.335 72.8362 106.097 85.9023C91.8485 108.491 81.1358 130.146 73.829 156.629ZM70.8035 176.595C71.713 183.686 70.7159 190.901 67.9227 197.439C68.5231 190.442 69.4848 183.484 70.8035 176.595ZM17.3961 200.564C14.8577 195.978 13.4393 190.813 13.2653 185.524C13.0913 180.235 14.167 174.982 16.3982 170.226C18.1526 166.757 20.5664 163.695 23.4932 161.226C26.4198 158.757 29.7983 156.933 33.4234 155.865C39.7229 153.578 46.5853 153.606 52.8675 155.944C56.8155 157.094 60.4337 159.229 63.408 162.165C66.3821 165.101 68.6222 168.748 69.9335 172.789C67.9989 182.085 66.7108 191.515 66.0788 201.004C65.4848 202 64.8235 202.951 64.0995 203.848C64.1848 201.442 64.4371 201.123 64.5132 196.983C64.5319 196.144 64.3893 195.308 64.0934 194.527C63.7973 193.745 63.3542 193.031 62.7899 192.431C59.8015 189.866 55.6333 192.317 54.5277 196.045C53.0103 201.17 54.9414 203.042 53.6967 207.664C53.4741 208.494 52.9398 209.532 52.1329 209.747C51.9383 209.762 51.7432 209.727 51.5658 209.642C51.3885 209.557 51.2351 209.426 51.1201 209.262C51.0002 209.15 50.9064 209.011 50.8455 208.857C48.8254 203.673 51.6562 199.114 48.6103 193.006C48.2274 192.213 47.6119 191.567 46.8528 191.162C46.0939 190.757 45.2306 190.614 44.3883 190.753C43.4619 191.101 42.6551 191.727 42.0701 192.551C41.485 193.376 41.148 194.363 41.1012 195.385C40.7747 197.74 40.7302 200.16 40.6004 202.526C39.7793 199.147 38.7602 195.822 37.5489 192.571C37.2458 191.891 36.8273 191.273 36.3135 190.748C35.7482 190.153 35.0571 189.703 34.2952 189.435C33.5336 189.167 32.7222 189.088 31.9256 189.204C31.1293 189.32 30.37 189.628 29.7084 190.103C29.0467 190.579 28.5008 191.209 28.1144 191.942C27.7066 193.16 27.4445 194.426 27.3334 195.71C27.1386 197.01 27.0218 198.319 26.942 199.629C26.571 198.471 26.1629 197.331 25.6991 196.21C24.7457 193.909 22.4362 190.782 19.7483 192.635C17.2515 194.361 17.1457 197.738 17.3961 200.564ZM65.7319 216.766C64.6386 213.388 64.0815 209.847 64.0828 206.282C64.7371 205.589 65.3496 204.856 65.9174 204.084C65.4314 214.765 66.1103 217.829 65.7319 216.766ZM62.4986 205.618C60.0486 207.986 57.0731 209.687 53.8377 210.569C54.9653 209.224 55.604 207.51 55.6426 205.724C55.9023 201.789 54.294 197.678 57.5068 194.117C58.0277 193.536 58.7269 193.164 59.4839 193.064C60.2407 192.962 61.008 193.139 61.6528 193.564C63.9975 195.484 62.469 200.504 62.4986 205.618ZM19.4311 203.688C19.1428 202.193 18.9642 200.676 18.8969 199.151C18.5258 196.063 20.3809 192.734 22.3249 194.042C23.3088 194.87 24.0391 195.98 24.4266 197.234C25.683 200.347 26.5808 203.605 27.1015 206.938C27.2444 207.84 28.7432 207.639 28.6467 206.72C28.2071 202.44 28.4024 198.114 29.2255 193.895C29.6744 190.203 34.6384 189.389 36.2745 193.602C38.226 198.607 38.1722 201.21 40.4687 206.859C40.7989 207.67 41.8914 207.176 41.936 206.446C42.0918 203.916 42.2482 201.386 42.4053 198.856C42.524 196.926 42.3311 194.224 43.8893 192.83C45.3733 191.516 46.8573 192.888 47.5084 194.33C49.675 199.081 47.5473 203.125 49.061 208.48C49.1771 209.083 49.4302 209.648 49.7991 210.131C50.1679 210.611 50.6419 210.993 51.1813 211.244C42.795 212.9 34.1335 212.153 26.1239 209.083C23.386 208.094 21.0349 206.201 19.4311 203.69V203.688ZM34.1876 258.33C33.0921 257.632 32.0479 256.85 31.0638 255.991C20.2677 245.834 23.7347 223.878 20.1045 207.018C20.7871 207.77 21.5516 208.436 22.3824 209.003C26.5617 211.727 36.3172 214.481 46.9686 213.529C41.1068 215.367 37.0499 219.036 32.8557 223.639C32.1583 224.411 33.2713 225.569 33.9687 224.797C39.224 219.026 46.3527 212.873 54.5834 214.761C55.5721 214.988 55.9932 213.41 55.0026 213.18C53.8872 212.925 52.7478 212.802 51.6061 212.811C55.6114 212.088 59.3782 210.331 62.5617 207.701C62.6658 211.128 63.2965 214.516 64.4297 217.737C67.3699 225.084 77.1402 224.893 82.3267 218.437C82.7738 217.88 83.206 217.31 83.603 216.714C86.5307 219.2 89.8595 221.126 93.4345 222.4C89.2978 236.448 87.4985 250.504 78.5537 258.016C66.1771 268.434 47.885 267.234 34.1876 258.332V258.33ZM117.292 166.567C114.138 160.506 107.289 157.044 101.398 160.628C95.6679 164.114 93.1915 171.305 93.1599 177.873C93.1713 182.186 93.656 186.485 94.605 190.684C93.2983 192.142 92.1334 193.729 91.1269 195.426C87.4317 185.735 88.4427 170.402 96.1817 161.41C108.315 147.321 129.943 149.345 142.13 162.826C134.306 169.018 123.563 177.508 120.406 180.003C120.269 175.35 119.209 170.776 117.292 166.569V166.567ZM118.878 180.656C114.686 180.327 110.476 180.925 106.522 182.41C102.569 183.895 98.9618 186.233 95.9387 189.271C94.7905 182.966 93.8982 176.388 96.0296 170.218C97.8846 164.828 102.923 159.186 108.898 161.163C111.934 162.208 114.46 164.443 115.937 167.395C117.778 171.557 118.779 176.067 118.878 180.648V180.656ZM91.6574 197.58C94.1514 192.981 97.7533 189.138 102.108 186.427C106.464 183.716 111.422 182.232 116.496 182.121C119.115 182.121 119.581 182.613 120.312 182.109C121.349 181.395 147.94 160.281 150.609 158.142L158.565 186.127C152.177 187.891 135.749 191.145 129.442 193.224C129.296 193.272 129.167 193.361 129.069 193.482C128.971 193.606 128.908 193.753 128.889 193.911C128.869 194.069 128.894 194.229 128.959 194.372C129.024 194.515 129.127 194.637 129.256 194.721C133.916 198.4 138.923 201.608 143.505 205.392C139.495 210.515 133.835 213.95 127.576 215.058C121.259 216.17 114.776 215.652 108.696 213.553C105.512 212.665 102.66 210.8 100.511 208.201C100.44 208.081 100.34 207.981 100.221 207.911C100.102 207.844 99.9676 207.807 99.8315 207.807C99.6953 207.807 99.5614 207.844 99.4423 207.911C99.3234 207.981 99.2232 208.081 99.1516 208.201C96.9404 212.188 95.1838 216.43 93.9168 220.842C90.5051 219.537 87.3176 217.669 84.4767 215.311C87.6654 209.748 88.63 203.2 91.6574 197.576V197.58ZM149.109 190.037C148.57 195.023 146.987 199.824 144.471 204.105C140.264 200.645 135.736 197.624 131.41 194.324C134.992 193.241 142.547 191.529 149.109 190.034V190.037ZM154.215 310.253C150.619 306.357 146.671 301.64 143.002 297.197C142.904 297.096 142.783 297.025 142.65 296.988C142.518 296.952 142.378 296.952 142.246 296.988C142.113 297.025 141.992 297.096 141.894 297.197C141.796 297.297 141.725 297.421 141.687 297.558C139.763 308.456 135.586 328.36 131.555 338.79C129.33 332.703 127.468 326.481 125.979 320.156C124.287 313.115 122.371 304.853 120.987 297.558C120.949 297.421 120.877 297.297 120.779 297.197C120.681 297.096 120.559 297.025 120.427 296.988C120.294 296.954 120.154 296.954 120.022 296.988C119.889 297.025 119.768 297.096 119.67 297.197C116.627 301.271 113.39 305.183 109.97 308.92C106.337 303.863 103.48 298.249 101.502 292.279C100.76 290.094 100.632 289.525 100.586 289.484C102.376 283.695 106.581 270.071 106.592 270.028C106.904 269.023 105.384 268.592 105.075 269.594C104.846 270.331 102.689 277.314 99.7879 286.713C97.6151 278.483 96.1105 270.078 95.2895 261.586H121.091C122.908 270.325 126.222 278.653 130.874 286.173C130.945 286.294 131.045 286.393 131.164 286.462C131.283 286.532 131.417 286.568 131.554 286.568C131.69 286.568 131.824 286.532 131.943 286.462C132.062 286.393 132.162 286.294 132.234 286.173C136.731 278.661 139.786 270.312 141.23 261.59C151.336 261.59 170.003 261.6 170.384 261.59C168.419 276.828 162.159 297.606 154.215 310.249V310.253ZM122.708 261.588H139.641C138.295 269.571 135.542 277.227 131.521 284.169C127.39 277.208 124.411 269.575 122.708 261.588ZM189.132 259.94C189.132 259.94 79.6426 259.921 78.7781 259.913C81.1967 257.987 83.2728 255.636 84.9126 252.965C113.665 252.982 185.799 252.982 186.663 252.965C187.487 255.287 188.31 257.612 189.132 259.94ZM186.607 251.317H85.8809C92.1378 239.907 92.7852 224.029 99.9993 210.046C101.891 212.047 104.189 213.581 106.726 214.539C116.099 218.115 127.6 218.468 136.433 213.608C145.387 208.681 149.589 200.208 150.735 189.665C163.67 186.704 168.914 184.622 189.917 179.658C193.361 203.69 192.751 228.917 186.613 251.317H186.607ZM253.037 149.189C256.122 150.306 258.511 152.752 257.993 156.093C257.58 157.721 256.697 159.179 255.463 160.271C251.13 163.941 245.582 165.684 240.02 165.119C237.637 165.015 235.318 164.275 233.287 162.971C232.361 162.268 231.641 161.31 231.209 160.205C230.777 159.1 230.649 157.892 230.84 156.716C230.927 155.651 231.261 154.624 231.816 153.724C232.37 152.823 233.125 152.077 234.019 151.549C235.874 150.421 237.891 149.607 239.992 149.137C242.875 149.207 245.754 148.849 248.54 148.073C250.067 148.308 251.571 148.681 253.037 149.189ZM258.112 134.461C258.708 136.179 258.789 138.045 258.342 139.811C257.624 141.595 256.342 143.07 254.71 143.993C247.19 147.908 238.497 148.612 230.486 145.956C228.757 145.435 227.219 144.385 226.071 142.943C225.512 142.118 225.138 141.173 224.974 140.177C224.813 139.182 224.867 138.161 225.132 137.19C226.265 131.804 231.178 129.663 236.462 129.179C245.083 128.407 245.199 128.58 250.521 127.828C254.564 128.843 257.01 130.258 258.112 134.459V134.461ZM183.626 131.086C188.915 126.647 212.32 106.25 212.935 105.706C213.551 105.162 214.405 104.614 214.705 103.811C217.564 96.1738 214.679 86.9889 217.634 79.3596C219.372 76.2021 225.483 75.4244 227.534 79.1994C228.517 81.5239 228.853 84.0899 228.499 86.6029C228.313 89.8839 228.15 93.1649 227.881 96.4324C227.417 102.029 227.139 101.875 227.139 103.436C227.245 104.093 227.573 104.688 228.067 105.114C229.228 106.007 230.545 106.654 231.945 107.02C236.529 108.351 241.187 109.379 245.895 110.099C250.718 111.064 257.407 113.401 258.149 118.481C258.201 119.811 257.862 121.127 257.173 122.249C256.485 123.372 255.482 124.248 254.3 124.759C249.766 127.563 235.733 127.598 230.274 126.959C227.618 126.65 224.548 125.9 223.019 123.375C221.294 120.523 223.401 117.537 225.739 115.966C228.616 114.33 231.812 113.396 235.088 113.233C235.296 113.228 235.492 113.14 235.639 112.987C235.785 112.835 235.869 112.63 235.874 112.415C235.874 112.307 235.854 112.201 235.815 112.101C235.776 112.002 235.719 111.911 235.644 111.835C235.572 111.759 235.485 111.698 235.388 111.657C235.294 111.616 235.192 111.594 235.088 111.594C231.894 111.8 228.764 112.614 225.854 113.997C223.106 115.509 220.363 118.436 220.845 121.939C221.316 125.363 224.544 127.413 227.523 128.133C232.847 129.424 231.357 127.615 227.455 130.642C225.739 131.955 224.474 133.806 223.845 135.923C223.216 138.04 223.255 140.311 223.958 142.403C225.709 146.771 231.037 148.228 235.644 148.882C234.913 149.214 234.207 149.581 233.507 149.973C232.463 150.537 231.554 151.342 230.853 152.326C230.15 153.309 229.673 154.446 229.456 155.651C229.118 156.998 229.113 158.412 229.441 159.762C229.77 161.112 230.421 162.353 231.333 163.371C233.389 165.215 235.949 166.343 238.651 166.596C209.429 173.58 183.831 178.867 160.087 185.693C160.087 185.693 152.249 158.131 151.947 157.065C162.592 148.519 173.152 139.859 183.626 131.086ZM177.924 133.685C171.74 138.813 155.436 152.277 143.391 161.819C127.871 144.545 100.101 146.437 90.793 166.881C88.7046 171.619 87.5701 176.751 87.4593 181.962C87.3486 187.173 88.264 192.353 90.1493 197.182C86.6878 203.841 86.3799 209.243 82.7849 215.104L82.7757 215.127L82.7534 215.152C77.9731 222.761 70.8406 222.992 67.5238 219.563C67.2198 213.531 67.2619 207.487 67.65 201.461C72.5387 192.811 73.946 182.502 71.5659 172.777C77.1077 145.863 87.1592 120.174 101.261 96.886C101.261 96.886 158.892 96.9709 159.541 96.9168C166.657 108.61 172.807 120.91 177.924 133.685ZM129.805 53.432C140.144 66.7857 149.736 80.7473 158.534 95.2474C158.196 95.2474 102.65 95.2377 102.264 95.2242C110.692 81.085 120.297 67.1852 129.805 53.432Z" fill="#031623"/>
<path d="M108.536 166.063C107.61 165.483 106.546 165.185 105.466 165.202C104.385 165.219 103.331 165.551 102.422 166.16C101.513 166.769 100.787 167.63 100.324 168.646C99.8621 169.663 99.6827 170.794 99.8064 171.91C100.042 173.212 100.62 174.419 101.477 175.398C102.334 176.377 103.436 177.088 104.659 177.453C105.94 177.812 107.304 177.646 108.472 176.991C109.639 176.336 110.522 175.242 110.938 173.931C111.43 172.528 111.462 170.994 111.027 169.571C110.592 168.147 109.716 166.913 108.536 166.063ZM105.533 175.985C101.773 175.247 99.7192 170.44 102.856 167.838C103.537 167.265 104.37 166.922 105.244 166.858C106.118 166.793 106.99 167.009 107.742 167.477C111.649 170.336 109.378 176.737 105.533 175.985Z" fill="#031623"/>
<path d="M174.472 178.371C176.722 177.792 178.974 177.213 181.204 176.547C181.398 176.483 181.561 176.343 181.658 176.157C181.755 175.97 181.779 175.752 181.725 175.548C181.671 175.343 181.543 175.169 181.368 175.06C181.193 174.952 180.985 174.918 180.786 174.966C178.534 175.545 176.28 176.124 174.053 176.792C173.862 176.859 173.703 177 173.609 177.185C173.514 177.37 173.492 177.586 173.545 177.787C173.599 177.989 173.725 178.162 173.897 178.271C174.069 178.379 174.275 178.415 174.472 178.371Z" fill="#031623"/>
<path d="M53.5945 257.533L47.1242 256.663C46.9154 256.663 46.7152 256.75 46.5674 256.904C46.4197 257.057 46.3364 257.265 46.3359 257.483C46.3388 257.699 46.4229 257.906 46.5702 258.058C46.7174 258.211 46.9163 258.3 47.1242 258.301L53.5945 259.172C53.8032 259.17 54.003 259.083 54.1502 258.931C54.2977 258.776 54.3806 258.568 54.381 258.352C54.3777 258.135 54.2938 257.929 54.1471 257.776C54.0002 257.624 53.8021 257.537 53.5945 257.533Z" fill="#031623"/>
<path d="M211.381 145.933C212.707 145.927 214.015 146.253 215.195 146.883C216.375 147.512 217.391 148.427 218.161 149.551C218.929 150.675 219.428 151.974 219.613 153.339C219.801 154.705 219.667 156.098 219.229 157.399C218.899 158.399 220.426 158.831 220.747 157.836C221.211 156.413 221.366 154.902 221.205 153.409C221.044 151.917 220.569 150.479 219.812 149.199C219.057 147.92 218.04 146.829 216.833 146.004C215.627 145.179 214.26 144.641 212.832 144.428C220.448 134.039 224.589 120.322 215.403 111.338C214.661 110.614 213.548 111.772 214.29 112.496C215.853 114.025 217.091 115.879 217.922 117.937C218.753 119.995 219.157 122.213 219.113 124.445C218.964 131.813 215.011 138.698 210.698 144.71C210.329 145.217 210.836 145.931 211.381 145.933Z" fill="#031623"/>
<path d="M83.8959 168.768C80.9032 169.154 77.8937 169.379 74.8788 169.444C74.6766 169.454 74.4859 169.545 74.3462 169.698C74.2065 169.85 74.1286 170.053 74.1286 170.263C74.1286 170.474 74.2065 170.676 74.3462 170.829C74.4859 170.982 74.6766 171.072 74.8788 171.082C77.8959 171.072 80.9086 170.846 83.8959 170.407C84.1029 170.402 84.2999 170.314 84.4465 170.161C84.5928 170.009 84.6774 169.804 84.6824 169.589C84.6828 169.481 84.6626 169.374 84.6231 169.275C84.5837 169.175 84.5259 169.085 84.4528 169.009C84.3797 168.933 84.2929 168.872 84.1973 168.831C84.1018 168.79 83.9994 168.768 83.8959 168.768Z" fill="#031623"/>
<path d="M82.7497 200.527L74.5024 200.986C73.4951 201.04 73.4877 202.681 74.5024 202.625L82.7497 202.165C83.757 202.119 83.7644 200.479 82.7497 200.527Z" fill="#031623"/>
<path d="M143.837 101.132C143.356 100.204 141.997 101.03 142.477 101.96L148.124 112.892C148.604 113.82 149.964 112.994 149.483 112.064L143.837 101.132Z" fill="#031623"/>
<path d="M159.313 136.486C159.684 137.451 161.198 137.036 160.832 136.052C159.821 133.33 157.514 127.11 157.369 126.722C157.007 125.757 155.484 126.172 155.85 127.158L159.313 136.486Z" fill="#031623"/>
<path d="M171.549 190.925C171.664 193.992 171.92 201.008 171.94 201.451C171.981 202.503 173.556 202.507 173.517 201.451C173.402 198.387 173.146 191.367 173.123 190.925C173.085 189.873 171.51 189.868 171.549 190.925Z" fill="#FF4A24"/>
<path d="M169.33 226.375C169.122 226.379 168.924 226.466 168.777 226.621C168.63 226.773 168.545 226.98 168.541 227.196C168.226 229.932 167.91 232.669 167.592 235.408C167.592 235.624 167.675 235.833 167.822 235.987C167.97 236.139 168.17 236.226 168.378 236.226C168.586 236.222 168.784 236.136 168.931 235.983C169.078 235.831 169.162 235.624 169.167 235.408L170.118 227.196C170.117 226.978 170.034 226.771 169.886 226.617C169.739 226.462 169.539 226.375 169.33 226.375Z" fill="#031623"/>
<path d="M80.572 268.147L32.7334 343.164C32.1769 344.044 33.5347 344.866 34.0931 343.99L81.9317 268.974C82.4937 268.092 81.1303 267.27 80.572 268.147Z" fill="#031623"/>
<path d="M178.87 267.544C179.173 268.228 212.652 343.945 212.67 343.99C213.095 344.955 214.451 344.115 214.03 343.164L180.23 266.726C179.807 265.761 178.451 266.591 178.87 267.544Z" fill="#031623"/>
<path d="M246.461 61.2678C247.706 58.6797 257.034 39.2812 257.489 38.3298C257.943 37.3783 256.582 36.558 256.129 37.5037C254.884 40.0899 245.101 60.4398 245.101 60.4398C244.65 61.3739 246.008 62.2116 246.461 61.2678Z" fill="#031623"/>
<path d="M252.907 68.6292L278.22 50.4872C279.049 49.8928 278.263 48.4723 277.426 49.0725L252.113 67.2145C251.284 67.809 252.07 69.2295 252.907 68.6292Z" fill="#031623"/>
<path d="M256.808 78.7443H279.51C279.712 78.7341 279.903 78.6431 280.042 78.4907C280.181 78.3382 280.259 78.1356 280.259 77.925C280.259 77.7142 280.181 77.5118 280.042 77.3591C279.903 77.2067 279.712 77.1159 279.51 77.1057H256.808C256.606 77.1159 256.415 77.2067 256.276 77.3591C256.137 77.5118 256.059 77.7142 256.059 77.925C256.059 78.1356 256.137 78.3382 256.276 78.4907C256.415 78.6431 256.606 78.7341 256.808 78.7443Z" fill="#031623"/>
<path d="M10.7107 171.25C12.9514 166.032 16.176 161.335 20.1935 157.437C20.9355 156.716 19.8225 155.559 19.0805 156.279C14.9616 160.268 11.6532 165.076 9.351 170.419C8.94105 171.384 10.2989 172.213 10.7107 171.25Z" fill="#031623"/>
<path d="M321.119 202.903C321.154 202.812 321.177 202.717 321.184 202.619C321.386 199.076 320.835 195.005 317.821 192.865C316.762 192.129 315.506 191.762 314.233 191.815C312.959 191.868 311.736 192.339 310.737 193.16C309.83 193.982 309.203 195.086 308.95 196.31C308.696 197.532 308.83 198.807 309.332 199.944C307.995 201.359 307.231 203.254 307.199 205.236C307.169 207.22 307.874 209.141 309.167 210.598C314.309 215.496 322.308 210.046 321.119 202.903ZM310.855 195.569C311.165 195.046 311.575 194.594 312.059 194.243C312.543 193.892 313.092 193.648 313.671 193.529C314.25 193.409 314.847 193.413 315.424 193.544C316.001 193.675 316.546 193.928 317.025 194.287C317.817 194.963 318.457 195.812 318.897 196.775C319.336 197.738 319.565 198.79 319.565 199.855C319.546 199.836 319.531 199.811 319.513 199.792C318.222 198.894 316.732 198.348 315.185 198.205C313.638 198.062 312.08 198.329 310.657 198.975C310.447 198.425 310.356 197.835 310.39 197.246C310.425 196.655 310.583 196.08 310.855 195.561V195.569ZM310.792 209.872C309.824 209.042 309.151 207.901 308.874 206.63C308.6 205.358 308.739 204.026 309.271 202.845C310.557 199.452 315.111 199.251 317.804 200.529C318.272 200.822 318.674 201.22 318.978 201.693C319.284 202.166 319.485 202.702 319.57 203.264C320.375 208.521 315.029 212.823 310.792 209.864V209.872Z" fill="#031623"/>
<path d="M36.0278 175.659L45.659 180.158C46.5754 180.587 47.3786 179.174 46.4548 178.743L36.8236 174.245C35.9054 173.816 35.104 175.229 36.0278 175.659Z" fill="#031623"/>
<path d="M36.7958 170.717L51.4835 176.595C52.4314 176.981 52.8395 175.391 51.9027 175.017L37.2148 169.13C36.2688 168.758 35.859 170.34 36.7958 170.717Z" fill="#031623"/>
<path d="M253.847 289.853C256.242 290.007 258.643 290.015 261.039 289.876C261.177 289.872 261.312 289.834 261.429 289.76C261.548 289.687 261.646 289.583 261.715 289.459C261.783 289.336 261.82 289.195 261.82 289.052C261.82 288.907 261.785 288.766 261.718 288.643C260.503 286.512 259.105 284.499 257.543 282.629C257.457 282.54 257.353 282.475 257.238 282.436C257.125 282.396 257.005 282.384 256.886 282.399C256.765 282.415 256.652 282.459 256.552 282.527C256.452 282.596 256.367 282.687 256.305 282.795C255.901 283.538 253.297 288.531 253.246 288.755C253.202 288.867 253.183 288.988 253.191 289.11C253.198 289.232 253.233 289.349 253.291 289.455C253.348 289.562 253.428 289.652 253.525 289.72C253.621 289.789 253.732 289.834 253.847 289.853ZM257.114 284.686C257.993 285.833 258.869 287.002 259.635 288.238H255.278L257.114 284.686Z" fill="#031623"/>
<path d="M360.241 312.866C360.542 309.006 360.593 305.129 360.397 301.263C360.128 295.385 358.599 261.106 357.16 251.234C356.633 247.295 355.062 243.585 352.624 240.52C349.656 236.879 345.217 235.784 340.819 235.336C322.162 233.424 296.457 235.379 276.543 235.514C272.091 235.545 266.873 235.674 263.534 232.04C262.854 231.297 262.33 230.411 262 229.444V229.425C261.69 228.29 261.627 227.097 261.817 225.935C262.008 224.772 262.444 223.668 263.097 222.705C267.048 215.98 277.885 209.808 289.252 210.893C290.94 213.41 293.075 215.567 295.542 217.25C296.149 217.687 296.841 217.98 297.568 218.109C298.297 218.239 299.043 218.202 299.755 218.001C300.332 217.727 300.824 217.287 301.169 216.733C301.515 216.179 301.703 215.535 301.708 214.875C301.727 213.248 301.278 211.651 300.419 210.293C301.208 209.27 301.695 208.033 301.823 206.728C302.309 203.93 302.322 199.058 299.759 197.945C304.372 188.02 314.174 184.515 321.037 187.545C325.295 189.421 327.849 193.517 329.756 197.991C329.162 198.323 328.656 198.802 328.279 199.382C327.903 199.963 327.667 200.633 327.593 201.33C327.393 202.835 327.365 204.36 327.511 205.873C327.56 207.101 327.81 208.311 328.253 209.451C328.428 209.903 328.708 210.304 329.066 210.619C329.424 210.934 329.852 211.152 330.311 211.254C330.808 211.314 331.312 211.229 331.767 211.007C332.221 210.785 332.605 210.436 332.88 209.999C333.505 209.015 333.902 207.89 334.034 206.718C334.59 203.517 334.46 198.315 331.377 197.752C329.454 193.234 326.849 188.717 322.462 186.426C314.385 182.207 302.842 186.65 298.11 197.779C295.759 198.587 295.346 200.674 295.218 202.889C294.695 201.743 294.32 200.529 294.105 199.28C293.89 198.145 293.927 196.976 294.214 195.86C295.921 191.749 298.659 188.192 302.141 185.561C303.506 184.494 304.923 183.49 306.331 182.497C307.635 181.749 308.815 180.79 309.828 179.656C310.23 179.118 310.471 178.468 310.52 177.788C310.57 177.108 310.423 176.428 310.102 175.834C308.078 172.625 303.474 174.29 300.291 176.22C301.232 174.46 301.404 171.11 298.828 170.859C297.711 170.876 296.629 171.265 295.741 171.968C293.211 173.845 290.92 176.05 288.927 178.53C289.258 177.722 289.404 176.845 289.356 175.969C289.308 175.092 289.067 174.238 288.651 173.474C288.427 173.141 288.126 172.871 287.779 172.685C287.432 172.499 287.046 172.405 286.655 172.408C285.663 172.588 284.759 173.118 284.099 173.91C280.934 176.895 278.742 180.832 277.829 185.173C267.2 187.906 257.212 192.847 248.466 199.699C234.897 210.364 226.445 227.053 230.118 243.906C232.482 254.754 240.152 264.887 251.562 267.768C256.025 268.868 260.572 269.563 265.15 269.847C271.305 270.277 277.477 270.37 283.641 270.123C283.641 272.651 283.656 290.936 283.661 296.79C282.99 294.539 277.078 274.728 276.779 273.703C276.731 273.531 276.631 273.381 276.495 273.273C276.358 273.164 276.191 273.103 276.02 273.101C274.536 273.081 231.363 272.831 231.337 272.831C231.217 272.831 231.096 272.861 230.988 272.917C230.881 272.973 230.786 273.054 230.712 273.155C230.64 273.255 230.59 273.373 230.565 273.496C230.543 273.62 230.547 273.747 230.578 273.869C232.78 280.186 238.501 296.155 239.135 297.851C237.729 297.982 236.347 298.31 235.027 298.83C229.974 300.939 225.549 304.407 222.207 308.881C215.579 318.023 217.169 329.957 224.359 338.445C226.854 341.39 230.263 344.451 234.131 344.943C235.726 345.103 237.331 345.15 238.933 345.078C240.035 345.057 266.588 345.215 266.777 345.242C266.962 345.221 336.488 345.105 339.929 345.049C340.137 345.045 340.335 344.959 340.482 344.806C340.63 344.652 340.713 344.445 340.715 344.229V334.409C343.403 334.025 346.004 333.145 348.395 331.811L360.241 348.558C360.733 349.249 361.975 348.882 361.681 347.927C359.794 340.925 357.067 334.199 353.563 327.907C357.492 323.918 359.868 318.564 360.241 312.866ZM331.251 199.413C332.455 199.821 332.577 201.799 332.672 202.887C332.852 204.744 332.618 206.62 331.991 208.369C331.177 210.214 330.051 209.97 329.548 208.481C328.995 206.226 328.853 203.885 329.129 201.577C329.322 200.39 330.112 199.035 331.242 199.413H331.251ZM296.921 201.567C297.121 200.39 297.92 199.029 299.041 199.413C300.247 199.821 300.367 201.799 300.462 202.887C300.644 204.744 300.41 206.62 299.781 208.369C299.553 208.886 299.147 209.637 298.523 209.671C296.587 209.768 296.685 203.594 296.911 201.567H296.921ZM231.69 227.908C236.731 205.89 258.016 192.16 278.669 186.642C278.803 186.606 278.925 186.534 279.024 186.432C279.122 186.33 279.191 186.203 279.226 186.063C280.081 181.547 282.405 177.475 285.805 174.531C286.23 174.172 286.772 173.827 287.238 174.288C288.185 175.224 287.718 176.732 287.451 177.841C287.16 179.064 286.878 180.286 286.609 181.508C286.451 182.228 287.406 182.998 287.926 182.305C289.451 180.3 291.09 178.389 292.832 176.585C294.053 175.257 295.431 174.095 296.934 173.13C297.49 172.783 298.753 172.009 299.215 172.862C299.347 173.239 299.399 173.641 299.367 174.041C299.336 174.441 299.221 174.829 299.03 175.178C298.252 176.605 297.249 177.885 296.062 178.963C295.438 179.594 296.271 180.8 297.017 180.248C298.77 178.948 300.629 177.811 302.573 176.851C303.753 176.185 305.049 175.78 306.387 175.659C307.707 175.635 309.455 176.496 308.835 178.183C308.379 179.023 307.694 179.704 306.869 180.142C301.847 183.703 298.021 186.092 294.693 191.315C293.647 192.776 292.895 194.442 292.483 196.213C292.304 197.962 292.459 199.732 292.942 201.419C293.424 203.105 294.222 204.675 295.29 206.039C295.375 207.209 295.622 208.361 296.021 209.459C296.238 210.073 296.659 210.586 297.206 210.908C297.753 211.229 298.393 211.337 299.011 211.213C299.221 211.578 299.429 211.943 299.605 212.331C300.124 213.468 300.662 215.87 299.152 216.498C298.662 216.604 298.156 216.6 297.666 216.488C297.178 216.376 296.718 216.156 296.318 215.843C294.531 214.707 292.96 213.24 291.68 211.516C290.233 209.683 290.25 209.355 289.454 209.272C281.148 208.486 272.871 211.082 266.367 216.515C262.579 219.676 259.247 224.386 260.275 229.238C255.712 231.725 236.689 241.615 231.777 244.143C230.502 238.816 230.473 233.248 231.69 227.908ZM253.95 266.689C248.791 265.724 244.003 263.246 240.152 259.546C236.301 255.847 233.546 251.079 232.211 245.807C239.744 241.922 258.824 231.934 260.835 230.834C261.792 232.598 263.165 234.082 264.824 235.145C266.48 236.211 268.37 236.821 270.316 236.921C272.843 237.174 275.384 237.247 277.922 237.141C280.63 237.07 283.34 237.06 286.048 236.989C302.4 236.554 325.389 235.263 341.884 237.097C352.376 238.255 355.374 245.612 356.151 256.609C356.765 265.273 358.019 284.474 358.069 285.405H331.86C331.652 285.406 331.451 285.493 331.305 285.648C331.158 285.8 331.075 286.009 331.073 286.225C331.271 289.203 331.407 290.942 331.407 290.942C331.407 290.942 329.033 281.533 317.954 273.608C316.446 272.568 314.849 271.676 313.183 270.945C308.401 268.861 303.402 268.513 296.052 271.541C294.58 272.147 293.149 272.892 293.175 272.875C291.519 273.77 289.946 274.822 288.473 276.015C287.818 276.521 287.289 277.181 286.93 277.943C286.57 278.704 286.392 279.543 286.408 280.392C286.425 280.784 286.486 281.174 286.594 281.55V281.585C286.833 282.299 287.25 282.932 287.805 283.42C288.36 283.907 289.031 284.231 289.747 284.357C290.07 284.449 290.398 284.522 290.729 284.575C289.486 285.049 288.401 285.889 287.605 286.991C287.267 287.695 287.167 288.498 287.317 289.268C287.469 290.04 287.864 290.737 288.44 291.249C289.304 292.057 290.387 292.569 291.541 292.715C290.779 293.036 290.098 293.536 289.554 294.178C289.193 294.688 288.946 295.276 288.835 295.9C288.723 296.523 288.749 297.166 288.911 297.778C285.603 297.778 286.082 297.712 285.227 297.731C285.227 294.719 285.206 269.281 285.206 269.281C285.204 269.065 285.121 268.857 284.973 268.704C284.826 268.552 284.626 268.465 284.418 268.463C274.236 269.069 264.02 268.473 253.966 266.689H253.95ZM232.432 274.49C233.545 274.49 274.996 274.768 275.414 274.764C276.18 277.333 282.071 297.104 282.277 297.784H240.764C238.054 290.563 235.273 282.589 232.445 274.49H232.432ZM237.557 343.443C236.095 343.542 234.628 343.416 233.203 343.067C231.526 342.488 229.964 341.598 228.594 340.44C221.244 334.264 217.183 323.59 220.988 314.264C222.999 309.686 226.271 305.835 230.391 303.197C233.357 300.877 236.934 299.561 240.642 299.422H260.195C256.908 300.738 253.983 302.873 251.673 305.637C249.362 308.402 247.739 311.714 246.945 315.285C245.526 320.897 246.107 326.855 248.581 332.056C251.054 337.258 255.255 341.351 260.405 343.582C256.758 343.565 241.543 343.472 237.57 343.443H237.557ZM339.09 343.443C333.689 343.523 278.332 343.636 267.805 343.627C263.711 343.409 259.769 341.948 256.461 339.427C253.156 336.908 250.629 333.436 249.195 329.441C247.75 325.52 247.381 321.256 248.127 317.13C248.874 313.002 250.707 309.171 253.423 306.063C256.786 302.568 261.11 300.25 265.797 299.43H289.829C292.513 301.939 297.249 300.37 303.996 299.947C311.351 308.227 313.169 320.392 321.024 327.828H294.912C294.702 327.828 294.502 327.915 294.353 328.067C294.207 328.222 294.123 328.43 294.123 328.648C294.123 328.866 294.207 329.075 294.353 329.227C294.502 329.381 294.702 329.468 294.912 329.468C323.427 329.987 322.764 329.54 322.883 329.414C327.528 333.106 333.288 334.946 339.124 334.602C339.124 334.855 339.109 343.084 339.103 343.436L339.09 343.443ZM358.629 343.563L349.725 331.018C350.638 330.418 351.51 329.756 352.339 329.036C354.967 333.608 357.082 338.479 358.642 343.555L358.629 343.563ZM351.58 327.581C341.155 336.955 325.899 333.645 318.4 322.229C314.133 315.651 311.722 307.63 307.292 301.493C306.513 300.397 305.658 299.36 304.734 298.393C304.524 298.283 304.524 298.336 304.337 298.281C303.634 298.2 296.772 299.214 293.728 299.148C291.131 299.246 289.898 297.511 290.417 295.89C290.973 293.613 297.251 292.841 299.618 292.524C299.826 292.518 300.022 292.432 300.169 292.279C300.315 292.127 300.401 291.922 300.406 291.706C300.406 291.598 300.386 291.492 300.347 291.391C300.308 291.291 300.248 291.202 300.176 291.125C300.102 291.05 300.015 290.988 299.92 290.947C299.824 290.907 299.722 290.886 299.618 290.886C298.034 291.056 296.446 291.189 294.852 291.235C292.593 291.297 289.927 291.428 288.916 289.191C288.803 289 288.742 288.78 288.738 288.556C288.734 288.332 288.788 288.112 288.894 287.917C289.647 286.948 290.66 286.232 291.805 285.864C293.405 285.198 295.053 284.665 296.733 284.27C297.739 284.026 297.29 282.521 296.314 282.689C293.661 283.144 288.818 283.668 288.074 281.006C287.933 280.446 287.937 279.86 288.082 279.304C288.228 278.746 288.51 278.238 288.903 277.831C290.708 275.741 297.358 271.962 303.591 271.115C307.928 270.609 312.297 271.713 315.927 274.232C322.34 278.213 327.727 284.206 331.832 296.066C331.885 296.253 332.002 296.415 332.16 296.521C332.318 296.627 332.507 296.67 332.694 296.645C332.88 296.618 333.052 296.525 333.177 296.378C333.303 296.232 333.375 296.045 333.379 295.85C333.119 292.92 332.891 289.986 332.694 287.053H358.143C358.399 291.816 358.64 296.581 358.802 301.348C359.167 311.757 359.237 320.693 351.587 327.573L351.58 327.581Z" fill="#031623"/>
<path d="M339.534 201.017C339.365 201.129 339.244 201.301 339.194 201.502C339.142 201.702 339.166 201.915 339.261 202.098C340.181 203.906 340.777 205.875 341.018 207.907C341.073 208.118 341.205 208.295 341.387 208.405C341.569 208.513 341.784 208.542 341.986 208.486C342.186 208.426 342.357 208.288 342.461 208.098C342.565 207.911 342.594 207.687 342.543 207.477C342.268 205.308 341.619 203.208 340.626 201.278C340.571 201.185 340.5 201.106 340.415 201.042C340.329 200.979 340.235 200.934 340.133 200.909C340.031 200.886 339.925 200.882 339.823 200.901C339.719 200.919 339.621 200.959 339.534 201.017Z" fill="#031623"/>
<path d="M341.22 195.102C341.075 195.258 340.995 195.465 340.995 195.681C340.995 195.897 341.075 196.103 341.22 196.26C343.546 199.767 345.164 203.729 345.974 207.907C346.18 208.938 347.697 208.502 347.493 207.471C346.62 203.019 344.863 198.805 342.335 195.102C342.186 194.947 341.986 194.862 341.776 194.862C341.569 194.862 341.368 194.947 341.22 195.102Z" fill="FF4A24"/>
<path d="M346.855 190.356C346.707 190.203 346.507 190.117 346.299 190.117C346.091 190.117 345.891 190.203 345.742 190.356C345.6 190.512 345.52 190.719 345.52 190.935C345.52 191.15 345.6 191.358 345.742 191.514C348.855 196.03 351.042 201.166 352.164 206.599C352.268 207.033 352.37 207.467 352.454 207.905C352.654 208.938 354.175 208.5 353.973 207.469C352.81 201.299 350.382 195.463 346.855 190.356Z" fill="#031623"/>
<path d="M318.101 224.162C322.87 224.162 324.512 224.382 327.005 223.513C328.057 223.058 328.969 222.315 329.65 221.363C330.329 220.414 330.748 219.288 330.865 218.109C331.064 216.349 331.184 214.579 331.362 212.819C331.466 211.771 329.891 211.779 329.787 212.819C329.639 214.274 329.518 215.731 329.4 217.191C328.91 223.347 324.042 222.542 318.101 222.523C317.891 222.523 317.691 222.61 317.543 222.764C317.396 222.917 317.312 223.125 317.312 223.343C317.312 223.561 317.396 223.77 317.543 223.924C317.691 224.077 317.891 224.164 318.101 224.164V224.162Z" fill="#031623"/>
<path d="M311.425 222.635C311.291 223.029 311.245 223.45 311.289 223.865C311.332 224.281 311.466 224.681 311.677 225.036C311.889 225.391 312.174 225.692 312.512 225.918C312.851 226.144 313.233 226.287 313.632 226.339C314.356 226.433 315.088 226.269 315.71 225.872C316.329 225.476 316.802 224.87 317.047 224.156C317.231 223.384 317.114 222.568 316.723 221.884C316.331 221.201 315.697 220.707 314.959 220.506C314.218 220.306 313.432 220.418 312.772 220.815C312.109 221.215 311.627 221.867 311.425 222.635ZM315.55 223.465C315.55 224.776 312.983 225.395 312.896 223.658C312.872 223.268 312.989 222.882 313.222 222.575C313.456 222.268 313.79 222.064 314.161 221.998C314.345 221.998 314.526 222.037 314.697 222.112C314.866 222.185 315.02 222.295 315.148 222.431C315.278 222.568 315.38 222.73 315.448 222.905C315.517 223.083 315.552 223.274 315.55 223.465Z" fill="#031623"/>
<path d="M259.316 307.706L255.606 312.425C254.97 313.235 256.077 314.401 256.719 313.583L260.429 308.862C261.065 308.053 259.958 306.887 259.316 307.706Z" fill="#031623"/>
<path d="M227.594 307.706L223.884 312.425C223.249 313.235 224.357 314.401 224.997 313.583L228.707 308.862C229.343 308.053 228.236 306.887 227.594 307.706Z" fill="#031623"/>
<path d="M307.316 279.365L303.404 280.265C302.415 280.493 302.832 282.073 303.823 281.845L307.735 280.944C308.724 280.716 308.301 279.138 307.316 279.365Z" fill="#031623"/>
<path d="M308.672 290.139H305.485C305.283 290.148 305.092 290.239 304.953 290.392C304.814 290.544 304.736 290.747 304.736 290.959C304.736 291.169 304.814 291.372 304.953 291.525C305.092 291.677 305.283 291.768 305.485 291.777H308.672C308.874 291.768 309.065 291.677 309.204 291.525C309.343 291.372 309.421 291.169 309.421 290.959C309.421 290.747 309.343 290.544 309.204 290.392C309.065 290.239 308.874 290.148 308.672 290.139Z" fill="#031623"/>
<path d="M346.939 324.452L342.969 327.531C342.793 327.645 342.665 327.822 342.613 328.031C342.561 328.239 342.587 328.461 342.687 328.65C342.739 328.743 342.808 328.824 342.891 328.889C342.973 328.955 343.067 329.003 343.168 329.03C343.268 329.057 343.372 329.065 343.474 329.05C343.577 329.034 343.676 328.999 343.765 328.945L347.735 325.867C347.911 325.753 348.039 325.574 348.091 325.365C348.143 325.157 348.117 324.935 348.017 324.746C347.911 324.558 347.738 324.421 347.536 324.367C347.334 324.311 347.119 324.342 346.939 324.452Z" fill="#031623"/>
<path d="M334.052 298.142C333.833 297.112 332.314 297.548 332.533 298.577L333.906 305.044C334.124 306.073 335.644 305.637 335.425 304.608L334.052 298.142Z" fill="#031623"/>
<path d="M234.802 224.924C234.626 224.824 234.422 224.799 234.227 224.851C234.034 224.903 233.867 225.032 233.762 225.208C232.758 226.954 232.051 228.869 231.675 230.867C231.471 231.895 232.992 232.337 233.192 231.303C233.567 229.454 234.218 227.676 235.121 226.034C235.171 225.939 235.201 225.835 235.212 225.729C235.223 225.621 235.214 225.513 235.184 225.41C235.155 225.306 235.105 225.212 235.04 225.127C234.975 225.044 234.893 224.974 234.802 224.924Z" fill="#031623"/>
<path d="M282.006 192.577C283.049 193.247 283.924 194.166 284.559 195.258C285.193 196.349 285.568 197.582 285.653 198.856C285.661 199.049 285.733 199.236 285.857 199.379C285.984 199.523 286.154 199.616 286.338 199.643C286.523 199.668 286.711 199.626 286.868 199.521C287.028 199.417 287.145 199.259 287.2 199.074C287.813 197.227 288.965 195.627 290.493 194.496C291.307 193.884 290.521 192.461 289.699 193.083C288.512 193.977 287.508 195.106 286.746 196.406C286.054 194.237 284.659 192.383 282.802 191.162C281.943 190.597 281.151 192.013 282.006 192.577Z" fill="#031623"/>
<path d="M330.618 283.108C330.669 284.158 332.243 284.163 332.195 283.108C331.939 277.64 331.561 272.178 331.06 266.724C330.965 265.684 329.39 265.674 329.485 266.724C329.986 272.176 330.364 277.638 330.618 283.108Z" fill="FF4A24"/>
</svg>